<svg xmlns="http://www.w3.org/2000/svg" width="3840" height="2160"><path fill="#F99B0C" d="M1071 893c-59-47-112-69-189-69-167 1-288 115-288 256 0 165 136 256 290 256 116-7 170-29 371-225h-167l-47 44c-80 83-165 83-165 83-187 0-189-162-189-162-8-195 182-201 182-201 81-5 115 12 163 48 0 0 22-20 38-29zm71 374c59 47 112 69 188 69 168-1 289-115 289-256 0-165-136-256-290-256-116 7-170 29-371 225h167l47-44c80-83 165-83 165-83 187 0 189 162 189 162 8 195-182 201-182 201-81 5-115-12-163-48 0 0-22 20-38 29z"/><path fill="#666D70" d="M2009 1252l-32-82h-117l-30 82h-59l127-330h44l132 330h-64zm1187 0l-10-21a97 97 0 01-68 26c-43 0-77-29-77-76 0-49 38-75 98-77l42-1c0-30-13-46-45-46-26 0-46 8-61 17l-19-37c31-21 61-26 92-26 58 0 93 24 93 86v93c0 34 1 51 4 62h-50zm-15-108l-34 1c-32 1-47 12-47 32 0 41 56 39 80 18v-51zm-233 108v-138c0-24-4-51-35-51-21 0-41 11-60 25v165h-60v-236h51l6 25c25-19 51-31 82-31 36 0 74 21 74 85v156h-60zm-192-180c-26-15-52-5-73 13v167h-60v-236h50l6 25c26-23 65-44 98-20l-22 51zm-306 78c1 35 30 59 66 59 22 0 41-5 61-16l14 38c-26 18-58 26-85 26-82 0-117-60-117-123 0-67 40-123 107-123 64 0 105 48 105 121v17h-151zm45-94c-29 0-46 26-46 52h91c-1-25-15-52-45-52zm-197 201c-42 0-58-23-58-55v-140h-42v-45h42v-54l60-18v72h73l-17 45h-56v118c0 39 39 29 62 14l16 38c-24 17-56 25-79 25zm-103-12c-17 9-33 12-46 12-39 0-54-22-54-52V899h60v279c0 27 11 27 33 22l7 44zm-276-241c-6 33-28 83-40 116h79c-13-36-30-79-39-116z"/></svg>