<svg xmlns="http://www.w3.org/2000/svg" width="3840" height="2160"><path d="M1516 1485H773V742h743z" fill="#003e69"/><path d="M1074 991l70 70 70-70V861h-140v130zm332 7l-99-99-92 92v99h99l92-92zm-89 93l-70 70 70 70h130v-140h-130zm-243 46v230h140v-230l-70-70-70 70zm-233-46v140h130l70-70-70-70H841zm41-93l92 92h99v-99l-92-92-99 99zM1562 1485h1486V742H1562z" fill="#fdb924"/><path d="M2698 1212h41v-91l62 91h44l-72-109 68-85h-32l-70 87v-87h-41v194zm-282-194h-24l-77 194h28l21-56h59l20 56h49l-76-194zm-43 116l22-57 20 57h-42zm265 7l-104-123h-29v194h27v-125l108 125h26v-194h-28v123zm-854 58c60-55 83-90 83-129 0-32-15-42-29-42-22 0-28 27-28 43l-26-18c7-21 27-37 61-37 54 0 68 28 68 50 0 26-11 60-65 109h64v38h-128v-13zm-88-9h-15v-69c26 0 46 4 46 36 0 22-16 33-31 33zm-15-151h15c11 0 28 9 28 27 0 30-20 33-44 33v-60zm60 67c49-23 42-89-27-89h-79v194h71c79 0 92-85 34-105zm266 83h-15v-69c26 0 46 4 46 36 0 22-16 33-31 33zm-15-151h15c11 0 28 9 28 27 0 30-20 33-44 33v-60zm60 67c49-23 42-89-27-89h-79v194h71c79 0 92-85 34-105zm184 83h-15v-69c26 0 46 4 46 36 0 22-16 33-31 33zm-15-151h15c11 0 28 9 28 27 0 30-20 33-44 33v-60zm60 67c49-23 42-89-27-89h-79v194h71c79 0 92-85 34-105z" fill="#003e69"/></svg>