<?xml version="1.0" encoding="UTF-8"?>
<svg version="1.1" xmlns="http://www.w3.org/2000/svg" width="800" height="343">
<path d="M0 0 C264 0 528 0 800 0 C800 113.19 800 226.38 800 343 C536 343 272 343 0 343 C0 229.81 0 116.62 0 0 Z " fill="#FEFEFE" transform="translate(0,0)"/>
<path d="M0 0 C1.22847656 -0.01224609 2.45695313 -0.02449219 3.72265625 -0.03710938 C9.76380081 -0.04682183 15.36209455 0.11720184 21.20727539 1.7199707 C23.37657377 2.24883212 25.46144775 2.42211833 27.6875 2.5625 C41.1631067 3.77238419 58.68998799 7.96200045 69.83203125 15.734375 C73.8050573 18.25220412 78.08240375 20.20577338 82.31616211 22.24536133 C86.49192215 24.28161026 90.39990664 26.39658114 94.125 29.1875 C94.125 29.8475 94.125 30.5075 94.125 31.1875 C94.805625 31.414375 95.48625 31.64125 96.1875 31.875 C102.59639122 34.73854714 106.77314618 38.6904215 111.125 44.1875 C111.90875 44.97125 112.6925 45.755 113.5 46.5625 C116.29188544 49.35438544 118.84909051 52.28508353 121.421875 55.27734375 C123.22986733 57.36432399 123.22986733 57.36432399 125.875 59.75 C128.09985464 62.1602592 129.04952155 64.19124273 130.203125 67.22265625 C131.28569649 69.53000143 132.68574656 71.2997794 134.25 73.3125 C139.63320927 80.72300298 142.73962261 89.40914846 146.15673828 97.84838867 C146.95914973 99.78684155 147.83388373 101.69517466 148.7265625 103.59375 C154.37299951 118.10414678 155.96168775 134.70610369 156.125 150.1875 C156.14401367 151.18378418 156.16302734 152.18006836 156.18261719 153.20654297 C156.24306276 156.5127174 156.2821265 159.81841877 156.3125 163.125 C156.33244019 164.6709082 156.33244019 164.6709082 156.3527832 166.24804688 C156.3587614 172.99145485 155.99911107 179.67085415 154.125 186.1875 C153.465 186.8475 152.805 187.5075 152.125 188.1875 C151.28411804 190.74555145 150.52598728 193.28161155 149.8125 195.875 C149.37179739 197.41984442 148.92904629 198.96410575 148.484375 200.5078125 C148.25943359 201.28930664 148.03449219 202.07080078 147.80273438 202.87597656 C141.29213359 225.08144061 141.29213359 225.08144061 136.70703125 229.578125 C134.72587059 231.59352795 133.41238198 233.77724157 131.9375 236.1875 C122.18899922 251.60748881 110.73942083 264.7757611 95.7109375 275.2578125 C92.91020054 277.34778842 90.58650653 279.71366539 88.125 282.1875 C86.15199884 283.23976728 84.14823613 284.23538888 82.125 285.1875 C80.95189866 285.94850485 79.78579916 286.72035877 78.625 287.5 C70.39969903 292.72567106 58.05820402 299.1875 48.125 299.1875 C48.125 299.8475 48.125 300.5075 48.125 301.1875 C46.92101562 301.29707031 45.71703125 301.40664063 44.4765625 301.51953125 C42.90096853 301.67896635 41.32545139 301.83916212 39.75 302 C38.9559375 302.07025391 38.161875 302.14050781 37.34375 302.21289062 C35.25720534 302.4339229 33.18760683 302.8025624 31.125 303.1875 C30.465 304.1775 29.805 305.1675 29.125 306.1875 C23.37551977 307.28286555 17.63701409 307.36027877 11.796875 307.390625 C10.92661682 307.39632507 10.05635864 307.40202515 9.159729 307.40789795 C7.32768956 307.41729092 5.49563365 307.42385905 3.66357422 307.42773438 C0.89650227 307.4374247 -1.86982095 307.46849645 -4.63671875 307.5 C-14.15470067 307.55756293 -22.75173645 307.22316702 -31.875 304.1875 C-32.62023926 303.96835937 -33.36547852 303.74921875 -34.13330078 303.5234375 C-50.33298477 298.73129618 -67.59150888 292.82844937 -80.875 282.1875 C-82.80681162 280.76308624 -84.74450493 279.3466206 -86.6875 277.9375 C-87.99654297 276.97070312 -87.99654297 276.97070312 -89.33203125 275.984375 C-91.81737391 274.1662504 -91.81737391 274.1662504 -94.38671875 272.7578125 C-97.30380226 270.9168901 -99.47160883 268.78348655 -101.875 266.3125 C-102.7 265.46945312 -103.525 264.62640625 -104.375 263.7578125 C-105.2 262.90960938 -106.025 262.06140625 -106.875 261.1875 C-107.7 260.37539063 -108.525 259.56328125 -109.375 258.7265625 C-115.84699582 252.15344174 -121.66965498 245.24010776 -125.86328125 237 C-126.86001657 235.01023565 -126.86001657 235.01023565 -128.9375 233.1875 C-134.07247878 227.88687674 -135.98702331 219.41823825 -138.65478516 212.64526367 C-140.00702314 209.24228922 -141.42946422 205.93305915 -143.125 202.6875 C-150.61115351 187.71519299 -150.15858291 169.59516826 -150.125 153.25 C-150.12413391 152.45535339 -150.12326782 151.66070679 -150.12237549 150.84197998 C-150.02287437 115.42779584 -150.02287437 115.42779584 -141.875 102.1875 C-141.3798875 100.84634362 -140.92429016 99.49021598 -140.5 98.125 C-137.33079108 88.19816571 -133.10059154 79.14858425 -127.625 70.3125 C-127.18857178 69.60407959 -126.75214355 68.89565918 -126.30249023 68.16577148 C-125.21981612 66.46671203 -124.05442858 64.8208813 -122.875 63.1875 C-122.215 63.1875 -121.555 63.1875 -120.875 63.1875 C-120.545 62.1975 -120.215 61.2075 -119.875 60.1875 C-118.885 59.6925 -118.885 59.6925 -117.875 59.1875 C-117.25625 58.135625 -117.25625 58.135625 -116.625 57.0625 C-114.43181364 53.45940813 -111.91503248 50.12591579 -108.875 47.1875 C-108.215 47.1875 -107.555 47.1875 -106.875 47.1875 C-106.648125 46.630625 -106.42125 46.07375 -106.1875 45.5 C-103.43244559 40.64585652 -99.73641107 38.0618107 -94.8984375 35.484375 C-92.27559731 33.80332685 -90.10538202 31.79447267 -87.8125 29.6875 C-81.24870019 23.67395885 -75.37544169 20.5424418 -67.046875 17.48046875 C-64.32495742 16.37091861 -62.15547563 15.217507 -59.75 13.5625 C-55.92860188 10.97172162 -52.06089048 9.97141075 -47.5859375 8.9609375 C-44.78893888 8.26198906 -44.78893888 8.26198906 -42.09765625 6.734375 C-38.11928762 4.82475806 -34.2391263 3.95495359 -29.9375 3.0625 C-29.16470703 2.89363281 -28.39191406 2.72476562 -27.59570312 2.55078125 C-18.32224689 0.55969259 -9.48029855 0.0049428 0 0 Z " fill="#EC1B24" transform="translate(625.875,11.8125)"/>
<path d="M0 0 C9.02488205 1.30480222 14.12059587 9.07190397 19.34936523 15.94042969 C22.0095634 19.51887666 24.42058517 23.19477489 26.75 27 C29.41323642 31.33404039 32.00563499 33.91344522 36 37 C39.95349462 41.72326622 39.40349375 46.72629723 39.34057617 52.57348633 C39.34093778 53.65451724 39.34129938 54.73554815 39.34167194 55.84933758 C39.33943526 59.34375809 39.31660035 62.83769677 39.29296875 66.33203125 C39.28855715 68.49133066 39.28549708 70.65063327 39.28381348 72.80993652 C39.2680935 80.81083998 39.2262098 88.81167474 39.1875 96.8125 C39.125625 114.694375 39.06375 132.57625 39 151 C-8.85 151 -56.7 151 -106 151 C-106 114.7 -106 78.4 -106 41 C-104.68 40.34 -103.36 39.68 -102 39 C-100.87914688 36.6569191 -100.87914688 36.6569191 -100 34 C-98.60739623 31.40469298 -97.33134268 29.32406042 -95.22265625 27.26171875 C-92.49643329 24.48758326 -90.17505643 21.45521582 -87.8125 18.375 C-85.88474966 15.90890393 -83.94571131 13.45194538 -82 11 C-81.57428711 10.46310547 -81.14857422 9.92621094 -80.70996094 9.37304688 C-79.55689591 7.93980646 -78.37300228 6.53152813 -77.1875 5.125 C-76.52105469 4.32320313 -75.85460937 3.52140625 -75.16796875 2.6953125 C-73 1 -73 1 -70.05078125 0.5546875 C-64.87632907 1.30998526 -62.26917518 3.47383654 -59.09765625 7.4765625 C-58.07635434 8.85231235 -57.06497581 10.23547221 -56.0625 11.625 C-55.53543457 12.34051025 -55.00836914 13.05602051 -54.46533203 13.79321289 C-51.19060784 18.26569809 -48.02873848 22.79652976 -45.0859375 27.49609375 C-44.05835505 29.16388008 -44.05835505 29.16388008 -42 30 C-40.98308736 31.99145391 -39.98357352 33.99187074 -39 36 C-37.13036002 38.26298437 -37.13036002 38.26298437 -34.1875 38.4375 C-30.01664819 37.86503014 -28.52556075 36.12225916 -26 33 C-25.01773438 31.82050781 -25.01773438 31.82050781 -24.015625 30.6171875 C-20.03670405 25.79734161 -20.03670405 25.79734161 -16.59765625 20.59375 C-14.55360915 17.27529701 -12.11019539 14.43991088 -9.5625 11.5 C-8.60483796 10.3859586 -7.64779687 9.27138309 -6.69140625 8.15625 C-6.23652832 7.62644531 -5.78165039 7.09664063 -5.31298828 6.55078125 C-3.49536038 4.403966 -1.74249372 2.20798259 0 0 Z " fill="#FDFAFA" transform="translate(662,81)"/>
<path d="M0 0 C1.81661133 -0.0309375 1.81661133 -0.0309375 3.66992188 -0.0625 C10.18577813 -0.09103139 14.9539982 0.09881951 20.6875 3.25 C22.11255859 3.90162109 22.11255859 3.90162109 23.56640625 4.56640625 C24.89478516 5.18322266 24.89478516 5.18322266 26.25 5.8125 C29.23132247 7.18251787 32.05828851 8.36918202 35.1875 9.375 C37.84476433 10.30504252 38.98636371 11.03852283 40.6875 13.25 C40.996875 13.930625 41.30625 14.61125 41.625 15.3125 C42.51625906 17.39855493 42.51625906 17.39855493 44.55859375 18.09375 C47.25437588 19.55788121 48.2184848 21.07949083 49.8125 23.6875 C50.31007813 24.46996094 50.80765625 25.25242188 51.3203125 26.05859375 C55.2069298 35.13106899 55.02530631 44.97493786 55 54.6875 C55.01611328 55.92048828 55.03222656 57.15347656 55.04882812 58.42382812 C55.05307138 66.4563175 54.03391537 73.56622209 51.6875 81.25 C51.0275 81.25 50.3675 81.25 49.6875 81.25 C49.419375 81.95125 49.15125 82.6525 48.875 83.375 C46.52002139 89.07652716 45.18633543 92.21116989 39.6875 95.25 C39.1925 96.735 39.1925 96.735 38.6875 98.25 C37.6975 98.25 36.7075 98.25 35.6875 98.25 C35.1925 99.735 35.1925 99.735 34.6875 101.25 C32.83203125 102.09375 32.83203125 102.09375 30.5 102.75 C24.09956492 104.57601128 24.09956492 104.57601128 18.6875 108.25 C11.83353191 109.46792061 5.02512451 109.43609277 -1.90820312 109.43530273 C-4.04317441 109.43748029 -6.17762038 109.45565346 -8.3125 109.47460938 C-16.16111707 109.50575468 -23.63549941 109.05280815 -31.3125 107.25 C-31.3125 106.59 -31.3125 105.93 -31.3125 105.25 C-32.983125 104.9715625 -32.983125 104.9715625 -34.6875 104.6875 C-44.66484611 102.1314661 -51.74498132 94.56493651 -57.3125 86.25 C-57.6425 85.26 -57.9725 84.27 -58.3125 83.25 C-59.3025 82.59 -60.2925 81.93 -61.3125 81.25 C-68.1593359 67.95908325 -67.67210084 48.58865282 -63.53125 34.61328125 C-57.61809565 18.37759453 -46.93754582 9.89645083 -31.7578125 2.5234375 C-27.52096639 0.95743769 -24.08393651 0.7078369 -19.6171875 1.1015625 C-17.37976378 1.370174 -17.37976378 1.370174 -15.54663086 0.77197266 C-10.51209754 -0.4042739 -5.14466761 0.02169602 0 0 Z " fill="#0379C0" transform="translate(354.3125,123.75)"/>
<path d="M0 0 C10.21394774 -0.0463537 20.42787043 -0.08188467 30.64190197 -0.10362434 C35.38475957 -0.11405863 40.12754517 -0.12821141 44.87036133 -0.15087891 C49.44799316 -0.17261986 54.02555576 -0.1845713 58.60323524 -0.18975449 C60.34912519 -0.19344798 62.09501137 -0.20066045 63.84087181 -0.21146011 C66.28747096 -0.22599166 68.73378452 -0.22797725 71.18041992 -0.22705078 C71.90115189 -0.23424133 72.62188385 -0.24143188 73.36445618 -0.24884033 C77.37539079 -0.23242056 80.37829691 0.2806728 84 2 C85.47902849 2.37554462 86.95819189 2.75055837 88.4375 3.125 C93.75799039 4.84816383 96.3101788 8.23517388 99 13 C101.61301947 20.83905841 100.30982757 28.62417245 97.0703125 36.0390625 C94.3740022 40.97901787 89.82429888 41.39591127 84.75 42.90234375 C81.71563294 43.81215511 81.71563294 43.81215511 80 47 C77.3984375 47.51171875 77.3984375 47.51171875 74.375 47.6875 C72.87066406 47.78611328 72.87066406 47.78611328 71.3359375 47.88671875 C70.56507812 47.92410156 69.79421875 47.96148437 69 48 C69 48.66 69 49.32 69 50 C70.85625 50.185625 70.85625 50.185625 72.75 50.375 C94.00039743 52.79210682 94.00039743 52.79210682 101.453125 61.91015625 C106.60930991 68.87621414 106.62046998 75.62891355 106 84 C105.57429892 86.59720658 105.00379651 88.54627519 104 91 C103.01 91.495 103.01 91.495 102 92 C101.77763672 92.94359375 101.77763672 92.94359375 101.55078125 93.90625 C100.75767486 96.92117924 98.79879948 98.09120919 96.2890625 99.76953125 C87.28928567 104.60729525 76.46753304 107.26187511 66.29882812 107.22705078 C65.57589569 107.22734283 64.85296326 107.22763489 64.10812378 107.22793579 C61.74903821 107.2265567 59.39027951 107.21106362 57.03125 107.1953125 C55.38358737 107.1915773 53.73592249 107.18873272 52.08825684 107.18673706 C47.77447256 107.17914052 43.46082528 107.15952669 39.14709473 107.1373291 C34.73610283 107.11678448 30.32508856 107.107717 25.9140625 107.09765625 C17.27597915 107.07627664 8.63800667 107.04218935 0 107 C0 105.02 0 103.04 0 101 C0.85464844 100.79503906 1.70929687 100.59007812 2.58984375 100.37890625 C3.69457031 100.10949219 4.79929687 99.84007812 5.9375 99.5625 C7.03964844 99.29566406 8.14179688 99.02882813 9.27734375 98.75390625 C11.89421254 98.27004275 11.89421254 98.27004275 13 97 C13.09517803 94.23061034 13.12554265 91.48622841 13.11352539 88.71655273 C13.11367142 87.84833893 13.11381744 86.98012512 13.1139679 86.08560181 C13.11326846 83.20157414 13.10547463 80.3176102 13.09765625 77.43359375 C13.09579218 75.43962133 13.09436823 73.44564845 13.09336853 71.45167542 C13.08954248 66.19254298 13.07971145 60.93343797 13.06866455 55.67431641 C13.0584523 50.31217825 13.05387131 44.95003569 13.04882812 39.58789062 C13.03808926 29.05858167 13.0210118 18.52929311 13 8 C8.71 7.34 4.42 6.68 0 6 C0 4.02 0 2.04 0 0 Z " fill="#146FAB" transform="translate(11,125)"/>
<path d="M0 0 C5.88969302 -0.19801127 11.77744404 -0.34304089 17.66967773 -0.43945312 C19.67295072 -0.47964499 21.6759896 -0.53421105 23.6784668 -0.60351562 C26.56097078 -0.70076706 29.44037183 -0.74596533 32.32421875 -0.78125 C33.66355721 -0.84318542 33.66355721 -0.84318542 35.029953 -0.90637207 C37.58349183 -0.90820786 39.5770862 -0.81285658 42 0 C44.33578489 2.37381387 45.63840962 4.98531088 47 8 C47.51006592 8.96502441 48.02013184 9.93004883 48.5456543 10.92431641 C48.96758057 11.80780762 49.38950684 12.69129883 49.82421875 13.6015625 C50.53094727 15.07882813 50.53094727 15.07882813 51.25195312 16.5859375 C51.96254883 18.09027344 51.96254883 18.09027344 52.6875 19.625 C53.17283203 20.635625 53.65816406 21.64625 54.15820312 22.6875 C56.40500545 27.41043344 58.37191077 32.02611273 60 37 C60.92798164 38.69569904 61.90735566 40.36435096 62.9375 42 C65.68214458 46.46088219 68.29135802 50.77105562 69.88671875 55.7890625 C71.02953089 59.0851733 72.45301306 62.03257054 74.0625 65.125 C75.76761476 68.401822 77.29466299 71.36011274 78 75 C78.66 75 79.32 75 80 75 C80.37511719 74.11699219 80.75023437 73.23398438 81.13671875 72.32421875 C84.32933463 64.83725305 87.59077518 57.39168212 91 50 C91.66 50 92.32 50 93 50 C93.11214844 49.40316406 93.22429687 48.80632812 93.33984375 48.19140625 C95.01079719 40.84139535 98.05994382 34.76292208 101.65869141 28.21582031 C104.19964531 23.57907348 106.32924094 18.97361396 108.1640625 14.0078125 C109.38156372 11.08353387 111.23429192 8.61811888 113 6 C113.33 4.35 113.66 2.7 114 1 C127.53 0.67 141.06 0.34 155 0 C155 1.98 155 3.96 155 6 C154.24074219 6.04898438 153.48148438 6.09796875 152.69921875 6.1484375 C151.20841797 6.26058594 151.20841797 6.26058594 149.6875 6.375 C148.70136719 6.44460937 147.71523438 6.51421875 146.69921875 6.5859375 C143.78471567 6.83865472 143.78471567 6.83865472 141 9 C140.60335991 11.58394967 140.39927242 13.94136441 140.32080078 16.5390625 C140.28771379 17.29796783 140.25462681 18.05687317 140.22053719 18.83877563 C139.89441586 27.01507737 139.85465698 35.193405 139.8671875 43.375 C139.86651148 44.96256525 139.865539 46.55013041 139.86428833 48.13769531 C139.86283222 51.42155977 139.86490216 54.70539661 139.86962891 57.98925781 C139.87540106 62.20478437 139.87198762 66.42024829 139.86605644 70.63577271 C139.86245796 73.89384441 139.8635848 77.151901 139.86618423 80.40997314 C139.86685161 81.96657316 139.86603167 83.52317453 139.86370468 85.07977295 C139.86118185 87.23551143 139.86500993 89.39114445 139.87060547 91.546875 C139.87140106 92.77245117 139.87219666 93.99802734 139.87301636 95.26074219 C139.6877434 97.9122781 139.6877434 97.9122781 141 99 C143.34723966 99.397493 145.70328548 99.74368723 148.0625 100.0625 C149.35285156 100.23910156 150.64320313 100.41570312 151.97265625 100.59765625 C152.97167969 100.73042969 153.97070312 100.86320312 155 101 C155 102.98 155 104.96 155 107 C135.86 107 116.72 107 97 107 C97 105.02 97 103.04 97 101 C102.94 100.01 108.88 99.02 115 98 C115 71.93 115 45.86 115 19 C110.52387911 21.23806044 108.8367925 28.56191217 107 33 C106.21758017 35.48574087 105.52140033 37.95023268 104.93359375 40.48828125 C103.79438584 43.55317952 102.12338654 46.03143749 100.35717773 48.7722168 C98.02039663 52.60800158 96.19001724 56.67511591 94.3125 60.75 C93.53803236 62.41158511 92.76330225 64.07304792 91.98828125 65.734375 C91.65352783 66.45850586 91.31877441 67.18263672 90.97387695 67.92871094 C90.01434542 69.96948946 89.01685789 71.98726205 88 74 C87.34 74 86.68 74 86 74 C85.79503906 74.61488281 85.59007812 75.22976562 85.37890625 75.86328125 C84.25260417 79.2421875 83.12630208 82.62109375 82 86 C81.34 86 80.68 86 80 86 C79.7215625 86.86367187 79.443125 87.72734375 79.15625 88.6171875 C78.05181895 91.84839455 76.82050872 94.97671396 75.5 98.125 C75.0771875 99.13820313 74.654375 100.15140625 74.21875 101.1953125 C73.21364196 103.50834959 72.15729833 105.76041342 71 108 C69.35 108 67.7 108 66 108 C62.02816924 100.87435822 58.17226084 93.8730888 55.375 86.1875 C53.96119136 82.31122994 52.47269072 78.91121336 50.25 75.4375 C47.07229985 70.43096721 44.67180578 65.14953932 42.25 59.75 C41.86102539 58.88560303 41.47205078 58.02120605 41.07128906 57.13061523 C39.5023397 53.59294274 38.04544267 50.14130802 36.859375 46.453125 C36.26426628 43.8420199 36.26426628 43.8420199 34 43 C32.99075736 40.256695 32.20523001 37.47074704 31.390625 34.6640625 C29.4483546 29.54650733 26.62111012 24.80536855 24 20 C24 46.07 24 72.14 24 99 C29.28 99.66 34.56 100.32 40 101 C40 102.98 40 104.96 40 107 C26.8 107 13.6 107 0 107 C0 105.02 0 103.04 0 101 C7.425 100.01 7.425 100.01 15 99 C15.02273109 89.61065987 15.04101829 80.22133848 15.05181217 70.83197689 C15.05699668 66.47057498 15.06401223 62.10919311 15.07543945 57.74780273 C15.08642785 53.52674225 15.09231006 49.30570086 15.09487724 45.08462715 C15.09670311 43.48656476 15.10026733 41.88850324 15.10573006 40.29044914 C15.13171505 32.36240612 15.07644085 24.44135206 14.68139648 16.52172852 C14.59570656 14.70717918 14.59570656 14.70717918 14.50828552 12.85597229 C14.25668419 11.44226601 14.25668419 11.44226601 14 10 C10.85426323 7.90284215 8.98543749 7.47995441 5.3125 6.875 C4.31863281 6.70742187 3.32476562 6.53984375 2.30078125 6.3671875 C1.54152344 6.24601563 0.78226562 6.12484375 0 6 C0 4.02 0 2.04 0 0 Z " fill="#0379C2" transform="translate(127,125)"/>
<path d="M0 0 C1.58041407 0.00138269 1.58041407 0.00138269 3.1927557 0.00279331 C4.39735439 0.00141865 5.60195309 0.00004398 6.84305477 -0.00137234 C8.19008566 0.00216726 9.53711629 0.00580208 10.88414669 0.00952244 C12.29314325 0.00980431 13.70213996 0.00964658 15.11113644 0.00907993 C18.94774448 0.00879194 22.78432152 0.01468889 26.62092233 0.02165389 C30.62613758 0.0278872 34.63135348 0.02849121 38.63657284 0.0296793 C46.22618821 0.03279268 53.81578926 0.04100616 61.40539831 0.05102879 C70.04370741 0.06218971 78.68201718 0.06770032 87.32033169 0.07272422 C105.09478697 0.08318877 122.8692226 0.10153434 140.64366817 0.12304783 C140.64366817 14.97304783 140.64366817 29.82304783 140.64366817 45.12304783 C93.12366817 45.12304783 45.60366817 45.12304783 -3.35633183 45.12304783 C-3.35633183 0.17526791 -3.35633183 0.17526791 0 0 Z " fill="#FDFCFC" transform="translate(560.3563318252563,186.87695217132568)"/>
<path d="M0 0 C3.1875 1.4375 3.1875 1.4375 5 3 C5 3.66 5 4.32 5 5 C5.598125 5.28875 6.19625 5.5775 6.8125 5.875 C11.16516523 8.11351355 12.31204155 9.53187468 14 14 C14.66 15.03125 15.32 16.0625 16 17.125 C20.75769278 25.34643396 20.32851466 35.66374087 20.25 44.875 C20.24323242 46.02105713 20.23646484 47.16711426 20.22949219 48.34790039 C20.07413609 61.03561632 19.25793478 74.11309783 12 85 C11.34 85 10.68 85 10 85 C9.79375 85.5775 9.5875 86.155 9.375 86.75 C5.89971789 92.43682527 -1.79664616 95.34746721 -8 97 C-14.92569736 97.73283542 -20.10188963 97.93207358 -26 94 C-27.98451771 93.28856912 -29.98202112 92.61008664 -32 92 C-32 91.34 -32 90.68 -32 90 C-32.5775 89.79375 -33.155 89.5875 -33.75 89.375 C-38.55826919 86.43661327 -40.39504266 81.5250169 -41.72460938 76.23828125 C-41.87736328 75.58214844 -42.03011719 74.92601562 -42.1875 74.25 C-43.24932074 69.50626778 -43.24932074 69.50626778 -45 65 C-47.5293754 22.54835875 -47.5293754 22.54835875 -38 9.125 C-37.02879715 8.05643345 -36.03217346 7.00979572 -35 6 C-34.319375 5.195625 -33.63875 4.39125 -32.9375 3.5625 C-30.62113716 1.69446545 -28.907272 1.44727261 -26 1 C-19.42139574 -3.38573617 -7.61067474 -1.33564822 0 0 Z " fill="#FDFDFE" transform="translate(363,131)"/>
<path d="M0 0 C3.77225474 2.69446767 6.40608327 5.57528175 9.125 9.3125 C9.89457031 10.36308594 10.66414062 11.41367188 11.45703125 12.49609375 C11.86518066 13.05925293 12.27333008 13.62241211 12.69384766 14.20263672 C14.08173249 16.11247002 15.48286515 18.01203406 16.88671875 19.91015625 C17.86223669 21.23158076 18.83750099 22.55319256 19.8125 23.875 C20.26834473 24.49286377 20.72418945 25.11072754 21.19384766 25.74731445 C21.63132324 26.34374756 22.06879883 26.94018066 22.51953125 27.5546875 C22.94153809 28.12912598 23.36354492 28.70356445 23.79833984 29.29541016 C24.96335271 30.94801475 26.02891843 32.66934804 27.08984375 34.390625 C28.85422353 37.39539199 28.85422353 37.39539199 32.75 37.875 C34.35875 37.936875 34.35875 37.936875 36 38 C36.23976563 37.45988281 36.47953125 36.91976562 36.7265625 36.36328125 C38.33272661 33.38251657 40.29628118 30.86158004 42.375 28.1875 C42.8090918 27.62853027 43.24318359 27.06956055 43.69042969 26.49365234 C47.18068757 22.01411754 50.70947033 17.56486208 54.25 13.125 C54.97388916 12.21657349 54.97388916 12.21657349 55.71240234 11.28979492 C59.05613793 7.11784175 62.4978102 3.03968507 66 -1 C71.97239425 -0.62672536 76.71016111 3.49171797 80.61230469 7.76611328 C82.09200233 9.64103146 83.4947451 11.55078689 84.875 13.5 C85.37749268 14.19125977 85.87998535 14.88251953 86.39770508 15.59472656 C87.43097787 17.01968372 88.45907842 18.44840594 89.48193359 19.88085938 C90.95634793 21.93906401 92.45282384 23.97912859 93.95703125 26.015625 C94.86793041 27.25987313 95.77812107 28.50464035 96.6875 29.75 C97.10950684 30.32169922 97.53151367 30.89339844 97.96630859 31.48242188 C99.99756475 34.30601199 101.27867471 36.60739314 102 40 C102.66 40.33 103.32 40.66 104 41 C101.37022456 42.31488772 99.42855111 42.1229086 96.48251343 42.12025452 C95.31019669 42.12162918 94.13787994 42.12300385 92.93003845 42.12442017 C90.9911953 42.11902725 90.9911953 42.11902725 89.01318359 42.11352539 C87.6434479 42.11324343 86.27371205 42.11340142 84.90397644 42.1139679 C81.1789939 42.11425553 77.45404337 42.10836428 73.72906828 42.10139394 C69.83863708 42.09515476 65.9482052 42.09455615 62.05776978 42.09336853 C54.68776648 42.09025688 47.31777798 42.08204573 39.94778121 42.07201904 C31.55853735 42.06085274 23.1692928 42.05534615 14.78004336 42.05032361 C-2.47997965 42.03986299 -19.73998826 42.02226676 -37 42 C-35.59867964 36.70625304 -34.09013536 33.32943852 -30.625 29.0625 C-29.72654463 27.93855387 -28.82947387 26.8134999 -27.93359375 25.6875 C-27.45905762 25.09582031 -26.98452148 24.50414062 -26.49560547 23.89453125 C-23.3047786 19.85260887 -20.2675053 15.69242181 -17.19970703 11.55688477 C-6.97071721 -2.15760295 -6.97071721 -2.15760295 0 0 Z " fill="#E91C24" transform="translate(596,144)"/>
<path d="M0 0 C21.06314727 -0.11018064 42.1267603 -0.09211685 63.18768311 0.26345825 C65.22475849 0.29608118 67.26192085 0.32367109 69.2991333 0.34616089 C72.16340782 0.37926999 75.02673955 0.43126326 77.890625 0.48828125 C79.16614731 0.49787369 79.16614731 0.49787369 80.46743774 0.50765991 C85.1321084 0.62455777 88.18264122 1.03354815 92 4 C93.546875 5.71875 93.546875 5.71875 94.75 7.5 C95.15734375 8.0878125 95.5646875 8.675625 95.984375 9.28125 C98.99479948 14.37581451 98.51877863 20.29343512 98 26 C96.73578138 30.51164274 95.34679462 34.65320538 92 38 C89.5262164 38.97174118 87.08212888 39.85552471 84.5625 40.6875 C83.88123047 40.92533203 83.19996094 41.16316406 82.49804688 41.40820312 C77.36635427 43.12211809 77.36635427 43.12211809 74 42 C74.020625 41.21625 74.04125 40.4325 74.0625 39.625 C74.18684063 37.01885039 74.18684063 37.01885039 73 35 C72.91573906 33.3325394 72.89274857 31.66174813 72.90234375 29.9921875 C72.90717773 28.51298828 72.90717773 28.51298828 72.91210938 27.00390625 C72.92467773 25.45509766 72.92467773 25.45509766 72.9375 23.875 C72.94201172 22.83472656 72.94652344 21.79445312 72.95117188 20.72265625 C72.96298048 18.14838038 72.97944925 15.57421854 73 13 C72.01 12.505 72.01 12.505 71 12 C70.375 9.4375 70.375 9.4375 70 7 C59.189608 4.33619527 48.06572319 4.39301704 37 4 C36.97530508 10.21134144 36.95714242 16.42265438 36.94506836 22.6340332 C36.94003556 24.74764504 36.9332088 26.86125338 36.92456055 28.97485352 C36.91244896 32.01058818 36.90676119 35.04627686 36.90234375 38.08203125 C36.89718246 39.02899368 36.89202118 39.97595612 36.88670349 40.95161438 C36.88662796 41.83230087 36.88655243 42.71298737 36.88647461 43.62036133 C36.884254 44.39535477 36.88203339 45.17034821 36.87974548 45.96882629 C36.92390923 48.20440588 36.92390923 48.20440588 38 51 C37.01 51.495 37.01 51.495 36 52 C36.33 68.5 36.66 85 37 102 C28.09 102 19.18 102 10 102 C10 101.01 10 100.02 10 99 C11.485 98.01 11.485 98.01 13 97 C13.34359152 94.3736881 13.48925217 91.97447741 13.51171875 89.33984375 C13.53905342 88.14405197 13.53905342 88.14405197 13.56694031 86.92410278 C13.62294823 84.26193481 13.65630576 81.60006725 13.6875 78.9375 C13.71710577 77.07933759 13.74722552 75.22118331 13.77783203 73.36303711 C13.8390849 69.37457676 13.88751441 65.3861819 13.92822266 61.39746094 C13.97364816 57.01749493 14.03727361 52.63830473 14.11474609 48.25878906 C14.21386779 42.62342546 14.28612238 36.98830752 14.33901978 31.35232544 C14.36299971 29.15973788 14.39503908 26.96722361 14.43515015 24.77487183 C14.48863414 21.69464406 14.51009322 18.61578403 14.5234375 15.53515625 C14.54605148 14.61203644 14.56866547 13.68891663 14.59196472 12.73782349 C14.58419883 10.38502489 14.54101285 8.28958959 14 6 C10.90223431 3.31262072 8.22554163 2.61384639 4.1875 2.3125 C3.00220703 2.21388672 3.00220703 2.21388672 1.79296875 2.11328125 C0.90544922 2.05720703 0.90544922 2.05720703 0 2 C0 1.34 0 0.68 0 0 Z " fill="#0379C1" transform="translate(13,127)"/>
<path d="M0 0 C27.14477212 0 27.14477212 0 33.6328125 6.26953125 C38.54144182 12.4824535 38.6868296 17.27756975 38 25 C37.17723373 29.71435615 36.15404742 34.35633302 35 39 C34.34 39 33.68 39 33 39 C32.67 39.99 32.34 40.98 32 42 C21.22114573 48.97455276 14.16706622 48 0 48 C0 32.16 0 16.32 0 0 Z " fill="#FCFDFE" transform="translate(52,178)"/>
<path d="M0 0 C12.37098007 -0.40030552 24.49422234 -0.56314175 36.6875 1.8125 C37.54045654 1.97782227 38.39341309 2.14314453 39.2722168 2.31347656 C48.23217972 4.22786759 53.55644871 7.64570722 59 15 C63.11249974 21.76572538 62.86762095 29.70663579 61.61328125 37.359375 C61.125 39.25 61.125 39.25 60 42 C59.01 42.495 59.01 42.495 58 43 C57.855625 43.62777344 57.71125 44.25554687 57.5625 44.90234375 C56.73667141 47.98199618 54.63189226 49.1444802 52.06469727 50.84277344 C45.02098728 54.7906492 37.49344162 55.63033598 29.5625 56.1875 C28.00208984 56.30810791 28.00208984 56.30810791 26.41015625 56.43115234 C17.2647675 57.08819697 8.16305442 57.20825124 -1 57 C-1 56.01 -1 55.02 -1 54 C5.6 54 12.2 54 19 54 C19 53.34 19 52.68 19 52 C19.56847656 51.97164062 20.13695313 51.94328125 20.72265625 51.9140625 C25.60750881 51.31059157 28.77758657 49.97918451 32.0625 46.25 C37.35654484 37.89227181 36.35429127 25.09054561 34.55029297 15.64550781 C33.83355772 12.71566007 32.95360656 9.86081969 32 7 C25.61559088 3.40396519 18.0573851 3.46972144 10.9375 3.3125 C9.35291992 3.26125977 9.35291992 3.26125977 7.73632812 3.20898438 C5.15765843 3.12730705 2.57929438 3.05790057 0 3 C0 2.01 0 1.02 0 0 Z " fill="#0379C2" transform="translate(55,174)"/>
<path d="M0 0 C3.361875 -0.020625 6.72375 -0.04125 10.1875 -0.0625 C11.23832764 -0.071604 12.28915527 -0.08070801 13.37182617 -0.09008789 C14.21205322 -0.09258545 15.05228027 -0.09508301 15.91796875 -0.09765625 C17.19837036 -0.10551147 17.19837036 -0.10551147 18.50463867 -0.11352539 C25.00179783 0.18206007 25.00179783 0.18206007 27.73046875 2.41796875 C28.21128906 3.00191406 28.69210938 3.58585938 29.1875 4.1875 C29.67605469 4.75855469 30.16460937 5.32960937 30.66796875 5.91796875 C33.93422437 11.02328912 34.2295465 15.55255432 33.8125 21.5 C33.73644531 22.7684375 33.66039062 24.036875 33.58203125 25.34375 C32.76356391 30.48526296 30.64225565 35.22284599 27 39 C21.46405467 41.51390754 16.06963968 41.22890476 10.125 41.125 C6.78375 41.08375 3.4425 41.0425 0 41 C0 27.47 0 13.94 0 0 Z " fill="#FBFDFD" transform="translate(51,131)"/>
<path d="M0 0 C0.66 0.33 1.32 0.66 2 1 C2.33 30.04 2.66 59.08 3 89 C5.05913283 84.88173435 5.30487733 82.1035991 5.31884766 77.66113281 C5.32889328 76.92903091 5.3389389 76.19692902 5.34928894 75.44264221 C5.3801113 73.02947759 5.39715324 70.61642387 5.4140625 68.203125 C5.43277493 66.52731371 5.4523484 64.85151182 5.4727478 63.17572021 C5.52406715 58.76993358 5.5636939 54.3641164 5.60089111 49.95819092 C5.640932 45.46033167 5.69202396 40.96259948 5.7421875 36.46484375 C5.83894443 27.64331842 5.92334997 18.82172135 6 10 C6.33 10 6.66 10 7 10 C8.02416319 26.60252819 8.12498867 43.16178312 8.06866455 59.79211426 C8.05822892 63.21231444 8.0538247 66.63252269 8.04882812 70.05273438 C8.03794444 76.70184564 8.02075944 83.35091254 8 90 C13.28 90.66 18.56 91.32 24 92 C24 93.98 24 95.96 24 98 C10.8 98 -2.4 98 -16 98 C-16 96.02 -16 94.04 -16 92 C-8.575 91.01 -8.575 91.01 -1 90 C-1.00580078 88.2041748 -1.01160156 86.40834961 -1.01757812 84.55810547 C-1.05900679 65.74072696 -0.84418499 46.93967615 -0.5 28.125 C-0.45128662 25.37110305 -0.4033702 22.61719242 -0.35546875 19.86328125 C-0.23971252 13.24213678 -0.12108174 6.62104912 0 0 Z " fill="#1073B3" transform="translate(143,134)"/>
<path d="M0 0 C1.81661133 -0.0309375 1.81661133 -0.0309375 3.66992188 -0.0625 C10.15428365 -0.09089348 14.9851857 0.07945093 20.6875 3.25 C22.3890625 4.0853125 22.3890625 4.0853125 24.125 4.9375 C24.970625 5.370625 25.81625 5.80375 26.6875 6.25 C23.6875 7.25 23.6875 7.25 20.6875 6.25 C18.35450175 6.21045766 16.02041811 6.20598268 13.6875 6.25 C13.3575 6.91 13.0275 7.57 12.6875 8.25 C13.38875 8.435625 14.09 8.62125 14.8125 8.8125 C21.39384436 12.10317218 24.52806129 18.10321109 27.0078125 24.8046875 C27.93070355 28.12497371 27.98499491 30.82880859 27.6875 34.25 C27.3575 34.25 27.0275 34.25 26.6875 34.25 C26.58953125 33.65832031 26.4915625 33.06664062 26.390625 32.45703125 C25.41201427 27.28557972 24.24221296 24.26338559 20.6875 20.25 C20.56375 19.569375 20.44 18.88875 20.3125 18.1875 C19.28436432 15.00027939 16.41215611 13.9891422 13.6875 12.25 C13.6875 11.59 13.6875 10.93 13.6875 10.25 C5.26061907 6.54156939 -5.22538081 6.47832663 -14.3125 7.25 C-17.74955842 8.4651493 -17.74955842 8.4651493 -20.3125 10.25 C-21.28509766 10.70246094 -21.28509766 10.70246094 -22.27734375 11.1640625 C-27.4295437 13.91322101 -30.36673573 18.59645782 -32.0625 24.0625 C-33.36417656 29.07665053 -34.39075227 34.15327726 -35.3125 39.25 C-35.9725 38.92 -36.6325 38.59 -37.3125 38.25 C-37.88467929 32.09907263 -36.19553801 27.06528799 -34.28515625 21.23828125 C-33.30045042 18.38295834 -33.30045042 18.38295834 -32.8046875 15.9140625 C-32.64226562 15.36492187 -32.47984375 14.81578125 -32.3125 14.25 C-31.673125 13.940625 -31.03375 13.63125 -30.375 13.3125 C-28.0478022 12.41280742 -28.0478022 12.41280742 -27.4375 9.75 C-26.880625 8.5125 -26.880625 8.5125 -26.3125 7.25 C-23.2421875 6.09375 -23.2421875 6.09375 -20.3125 5.25 C-21.63314453 5.59224609 -21.63314453 5.59224609 -22.98046875 5.94140625 C-24.14191406 6.22886719 -25.30335938 6.51632813 -26.5 6.8125 C-27.64855469 7.10253906 -28.79710937 7.39257812 -29.98046875 7.69140625 C-33.19730093 8.23068761 -35.20922783 8.13247476 -38.3125 7.25 C-35.6756554 3.99272137 -32.30910836 2.27975675 -28.3125 1.25 C-25.47449194 1.09344793 -22.70245731 1.12171327 -19.86328125 1.2421875 C-17.41483127 1.36302105 -17.41483127 1.36302105 -15.53125 0.76318359 C-10.49969229 -0.40058559 -5.13929565 0.02167336 0 0 Z " fill="#1577B7" transform="translate(354.3125,123.75)"/>
<path d="M0 0 C0.33 0 0.66 0 1 0 C1 13.53 1 27.06 1 41 C4.34125 40.855625 7.6825 40.71125 11.125 40.5625 C12.16672363 40.51939697 13.20844727 40.47629395 14.28173828 40.43188477 C21.19314652 40.14867254 21.19314652 40.14867254 28 39 C29.30859649 37.30287793 29.30859649 37.30287793 30 35 C30.49371094 34.11570313 30.98742187 33.23140625 31.49609375 32.3203125 C34.29343949 26.14435437 34.86473192 18.30936652 33.52734375 11.64453125 C32.04611048 7.97787186 29.59179778 4.94928713 27 2 C28.99954746 1.95745644 31.00041636 1.95919217 33 2 C34 3 34 3 34.0625 5.5625 C34.041875 6.366875 34.02125 7.17125 34 8 C34.99 8.33 35.98 8.66 37 9 C36.99476318 9.69150146 36.98952637 10.38300293 36.98413086 11.09545898 C36.963425 14.20946352 36.95036037 17.32345361 36.9375 20.4375 C36.92493164 22.07041992 36.92493164 22.07041992 36.91210938 23.73632812 C36.90888672 24.77080078 36.90566406 25.80527344 36.90234375 26.87109375 C36.89710693 27.82943115 36.89187012 28.78776855 36.88647461 29.77514648 C36.7494687 31.97285339 36.7494687 31.97285339 38 33 C38.04063832 34.66617115 38.042721 36.33388095 38 38 C39.32 38.33 40.64 38.66 42 39 C41.505 39.99 41.505 39.99 41 41 C33.16174339 43.4142243 24.92481191 43.24856187 16.8125 43.125 C15.66974609 43.11597656 14.52699219 43.10695312 13.34960938 43.09765625 C10.5661769 43.07436393 7.78320771 43.04165999 5 43 C5 43.99 5 44.98 5 46 C5.64960693 45.97905273 6.29921387 45.95810547 6.96850586 45.93652344 C9.95800833 45.85254417 12.94726158 45.801084 15.9375 45.75 C16.95908203 45.71648437 17.98066406 45.68296875 19.03320312 45.6484375 C25.79061452 45.5620808 31.20642586 46.3360828 37 50 C39.35610933 52.78449285 39.94637098 54.19556469 40.1875 57.8125 C40.125625 58.534375 40.06375 59.25625 40 60 C37.97069407 58.07749964 36.4553533 56.23749461 34.8125 53.9375 C27.45736124 46.25546618 10.46642481 47.76967498 2 47 C2 62.84 2 78.68 2 95 C7.28 95 12.56 95 18 95 C18 95.33 18 95.66 18 96 C12.39 96 6.78 96 1 96 C0.97494385 94.47600586 0.9498877 92.95201172 0.92407227 91.38183594 C0.82994762 85.73119603 0.72973906 80.08067759 0.62768555 74.43017578 C0.58435588 71.98391561 0.54267939 69.53762558 0.50268555 67.09130859 C0.44493562 63.57640582 0.38125438 60.06165309 0.31640625 56.546875 C0.29969376 55.4519574 0.28298126 54.35703979 0.26576233 53.22894287 C0.24581711 52.20818665 0.22587189 51.18743042 0.20532227 50.13574219 C0.18977798 49.23861511 0.1742337 48.34148804 0.15821838 47.41717529 C0.00929221 45.14196136 -0.44633236 43.20166588 -1 41 C-1.05673603 39.59520211 -1.06076743 38.1876276 -1.02172852 36.78222656 C-0.99158409 35.5514035 -0.99158409 35.5514035 -0.96083069 34.29571533 C-0.93379562 33.41953552 -0.90676056 32.54335571 -0.87890625 31.640625 C-0.85529526 30.73624695 -0.83168427 29.8318689 -0.80735779 28.90008545 C-0.73089281 26.01655712 -0.64679464 23.13330903 -0.5625 20.25 C-0.50926213 18.29298238 -0.45652185 16.33595116 -0.40429688 14.37890625 C-0.27530089 9.58576063 -0.13945947 4.79285213 0 0 Z " fill="#267FB8" transform="translate(50,131)"/>
<path d="M0 0 C0.93423645 3.01031744 1.04449911 3.86650268 0 7 C1.32 6.67 2.64 6.34 4 6 C3.70738281 6.86882812 3.41476563 7.73765625 3.11328125 8.6328125 C2.42170494 10.72452752 1.74882051 12.82264026 1.10546875 14.9296875 C0.80253906 15.90164062 0.49960938 16.87359375 0.1875 17.875 C-0.10769531 18.84179688 -0.40289062 19.80859375 -0.70703125 20.8046875 C-2.04912452 24.12140138 -3.7345712 26.83156113 -5.66918945 29.82275391 C-8.00127446 33.63811515 -9.81836967 37.69331851 -11.6875 41.75 C-12.46196764 43.41158511 -13.23669775 45.07304792 -14.01171875 46.734375 C-14.34647217 47.45850586 -14.68122559 48.18263672 -15.02612305 48.92871094 C-15.98565458 50.96948946 -16.98314211 52.98726205 -18 55 C-18.66 55 -19.32 55 -20 55 C-20.20496094 55.61488281 -20.40992188 56.22976562 -20.62109375 56.86328125 C-21.74739583 60.2421875 -22.87369792 63.62109375 -24 67 C-24.66 67 -25.32 67 -26 67 C-26.268125 67.86625 -26.53625 68.7325 -26.8125 69.625 C-27.97111987 72.91791964 -29.38209839 75.91127875 -31 79 C-31.71484375 77.453125 -31.71484375 77.453125 -32 75 C-30.94608774 72.46142115 -29.86034426 70.15504473 -28.5625 67.75 C-28.05493164 66.77546875 -28.05493164 66.77546875 -27.53710938 65.78125 C-26.70213113 64.18185506 -25.85246886 62.59014141 -25 61 C-25.66 60.34 -26.32 59.68 -27 59 C-25.75593027 55.83097231 -24.50365162 52.66524805 -23.25 49.5 C-22.90195313 48.613125 -22.55390625 47.72625 -22.1953125 46.8125 C-20.0422364 41.38993798 -17.68660259 36.17957616 -15 31 C-14.34 31 -13.68 31 -13 31 C-12.88785156 30.40316406 -12.77570313 29.80632812 -12.66015625 29.19140625 C-10.62106976 20.22209115 -6.36567259 12.67233213 -1.89208984 4.7265625 C-0.86049492 2.83904213 -0.86049492 2.83904213 0 0 Z " fill="#227DB7" transform="translate(233,144)"/>
<path d="M0 0 C0.33 0 0.66 0 1 0 C1 19.8 1 39.6 1 60 C1.66 60 2.32 60 3 60 C3 59.34 3 58.68 3 58 C3.66 58 4.32 58 5 58 C4.34 59.98 3.68 61.96 3 64 C4.24604004 63.96970703 5.49208008 63.93941406 6.77587891 63.90820312 C39.6868757 63.1302556 72.58082508 62.9085537 105.5 62.9375 C106.48043526 62.93835602 107.46087051 62.93921204 108.47101593 62.94009399 C120.64736217 62.95151249 132.82368187 62.97162942 145 63 C145 63.66 145 64.32 145 65 C97.81 65.33 50.62 65.66 2 66 C1.67 80.52 1.34 95.04 1 110 C0.67 110 0.34 110 0 110 C0 73.7 0 37.4 0 0 Z " fill="#FBAEA8" transform="translate(556,122)"/>
<path d="M0 0 C10.21394774 -0.0463537 20.42787043 -0.08188467 30.64190197 -0.10362434 C35.38475957 -0.11405863 40.12754517 -0.12821141 44.87036133 -0.15087891 C49.44799316 -0.17261986 54.02555576 -0.1845713 58.60323524 -0.18975449 C60.34912519 -0.19344798 62.09501137 -0.20066045 63.84087181 -0.21146011 C66.28747096 -0.22599166 68.73378452 -0.22797725 71.18041992 -0.22705078 C71.90115189 -0.23424133 72.62188385 -0.24143188 73.36445618 -0.24884033 C77.3539513 -0.23250833 80.40693504 0.23889088 84 2 C84 2.33 84 2.66 84 3 C56.64844655 3.13942836 29.34002358 2.80619942 2 2 C2 2.66 2 3.32 2 4 C2.58007812 3.95359375 3.16015625 3.9071875 3.7578125 3.859375 C9.59057731 3.58987432 12.4757875 4.28782564 17 8 C16.67 8.99 16.34 9.98 16 11 C15.87981119 13.78302759 15.81463878 16.54288924 15.79467773 19.3269043 C15.77982834 20.60040237 15.77982834 20.60040237 15.76467896 21.89962769 C15.73307417 24.70779627 15.70831052 27.51598178 15.68359375 30.32421875 C15.66302334 32.27049704 15.64202685 34.21677088 15.62062073 36.16304016 C15.56540901 41.28728628 15.51599573 46.41157265 15.46777344 51.53588867 C15.41755187 56.76419663 15.36186922 61.99244608 15.30664062 67.22070312 C15.19907005 77.48041877 15.09762259 87.74018521 15 98 C14.01 98 13.02 98 12 98 C12.495 97.505 12.495 97.505 13 97 C13.09517803 94.23061034 13.12554265 91.48622841 13.11352539 88.71655273 C13.11367142 87.84833893 13.11381744 86.98012512 13.1139679 86.08560181 C13.11326846 83.20157414 13.10547463 80.3176102 13.09765625 77.43359375 C13.09579218 75.43962133 13.09436823 73.44564845 13.09336853 71.45167542 C13.08954248 66.19254298 13.07971145 60.93343797 13.06866455 55.67431641 C13.0584523 50.31217825 13.05387131 44.95003569 13.04882812 39.58789062 C13.03808926 29.05858167 13.0210118 18.52929311 13 8 C8.71 7.34 4.42 6.68 0 6 C0 4.02 0 2.04 0 0 Z " fill="#2379B0" transform="translate(11,125)"/>
<path d="M0 0 C0.33 0 0.66 0 1 0 C1.0093457 0.8156543 1.01869141 1.63130859 1.02832031 2.47167969 C1.07288091 5.55859313 1.13473139 8.64458981 1.20751953 11.73095703 C1.24893359 13.69931469 1.27120453 15.66804576 1.29296875 17.63671875 C1.50893351 26.14573032 2.91449668 33.09429972 6 41 C6.33161133 42.03350586 6.66322266 43.06701172 7.00488281 44.13183594 C8.36698335 48.05773318 10.16278818 52.08139409 14 54 C14 54.66 14 55.32 14 56 C15.8871875 56.433125 15.8871875 56.433125 17.8125 56.875 C20.8539399 57.57303539 22.30669878 58.20446585 25 60 C35.22008729 61.39699035 44.48273715 59.16754618 52.73046875 52.9375 C54.58183362 51.35698886 56.32473631 49.76343546 58 48 C59 50 59 50 57.9375 53.5 C56.57923436 56.49690722 56.18813934 56.90793181 53.0625 58.4375 C50 59 50 59 46 59 C45.67 59.99 45.34 60.98 45 62 C40.62535204 62.14564235 36.2513304 62.23419143 31.875 62.3125 C30.6375 62.35439453 29.4 62.39628906 28.125 62.43945312 C17.84607976 62.57761066 17.84607976 62.57761066 14.1328125 59.60546875 C12 57 12 57 12 55 C11.01 55 10.02 55 9 55 C9 53.68 9 52.36 9 51 C7.35 50.67 5.7 50.34 4 50 C-0.01992985 38.86701502 -0.4991491 28.86086257 -0.25 17.125 C-0.22987679 15.45444882 -0.21163645 13.78387387 -0.1953125 12.11328125 C-0.1518403 8.07491856 -0.08314672 4.03773259 0 0 Z " fill="#3186BC" transform="translate(317,167)"/>
<path d="M0 0 C0 1.65 0 3.3 0 5 C10.89 4.67 21.78 4.34 33 4 C31.68 3.34 30.36 2.68 29 2 C29 1.34 29 0.68 29 0 C33.29 0.33 37.58 0.66 42 1 C42 2.98 42 4.96 42 7 C22.86 7 3.72 7 -16 7 C-16 5.02 -16 3.04 -16 1 C-10.61509359 0.08342019 -5.45769811 -0.11138159 0 0 Z " fill="#217EB8" transform="translate(240,225)"/>
<path d="M0 0 C0.66 0.33 1.32 0.66 2 1 C2 30.37 2 59.74 2 90 C1.01 90 0.02 90 -1 90 C-1.07282335 69.36718303 -0.87739009 48.75481395 -0.5 28.125 C-0.45128662 25.37110305 -0.4033702 22.61719242 -0.35546875 19.86328125 C-0.23971252 13.24213678 -0.12108174 6.62104912 0 0 Z " fill="#1A73AC" transform="translate(143,134)"/>
<path d="M0 0 C0.33 0 0.66 0 1 0 C1 19.47 1 38.94 1 59 C6.28 59.66 11.56 60.32 17 61 C17 62.98 17 64.96 17 67 C3.8 67 -9.4 67 -23 67 C-23 65.02 -23 63.04 -23 61 C-18.05 60.34 -13.1 59.68 -8 59 C-8 59.66 -8 60.32 -8 61 C-9.98 61.99 -11.96 62.98 -14 64 C-14 64.66 -14 65.32 -14 66 C-4.1 66 5.8 66 16 66 C16 64.68 16 63.36 16 62 C15.15695313 62.144375 14.31390625 62.28875 13.4453125 62.4375 C12.34960938 62.623125 11.25390625 62.80875 10.125 63 C9.03445312 63.185625 7.94390625 63.37125 6.8203125 63.5625 C4 64 4 64 2 64 C2 63.01 2 62.02 2 61 C1.34 61 0.68 61 0 61 C0 40.87 0 20.74 0 0 Z " fill="#408FC0" transform="translate(150,165)"/>
<path d="M0 0 C1.0355603 0.04543945 1.0355603 0.04543945 2.09204102 0.09179688 C5.24879479 0.22942679 8.40564416 0.36473229 11.5625 0.5 C13.19155273 0.57154297 13.19155273 0.57154297 14.85351562 0.64453125 C21.43878695 0.93485193 21.43878695 0.93485193 28.02734375 0.90625 C31 1 31 1 32.88671875 1.984375 C36.37329205 3.65999248 39.99865416 3.29232148 43.8125 3.25 C44.64821533 3.24613281 45.48393066 3.24226563 46.3449707 3.23828125 C54.01036789 3.13338557 61.44320857 2.26511306 69 1 C69 1.99 69 2.98 69 4 C65.58705555 7.41294445 55.31976676 6.17897386 50.671875 6.203125 C49.36648773 6.21167511 49.36648773 6.21167511 48.034729 6.22039795 C46.20268956 6.22979092 44.37063365 6.23635905 42.53857422 6.24023438 C39.77150227 6.2499247 37.00517905 6.28099645 34.23828125 6.3125 C24.72143508 6.36880224 16.13104077 6.01698695 7 3 C5.58461839 2.59959599 4.16811593 2.20310937 2.75 1.8125 C1.8425 1.544375 0.935 1.27625 0 1 C0 0.67 0 0.34 0 0 Z " fill="#D92830" transform="translate(587,313)"/>
<path d="M0 0 C-1.12451727 2.9719385 -2.22293791 5.33440687 -4 8 C-4.66 8 -5.32 8 -6 8 C-6.12375 8.804375 -6.2475 9.60875 -6.375 10.4375 C-6.58125 11.283125 -6.7875 12.12875 -7 13 C-7.99 13.495 -7.99 13.495 -9 14 C-12.87822997 22.31642793 -13.58339687 30.45131968 -13.625 39.5 C-13.65051855 41.78135847 -13.68402442 44.0626454 -13.7265625 46.34375 C-13.73252441 47.33568359 -13.73848633 48.32761719 -13.74462891 49.34960938 C-14.00448913 52.04659078 -14.62237151 53.6923183 -16 56 C-19.9861869 37.05737629 -17.50029674 22.14749559 -7.68359375 5.53125 C-4.00462963 0 -4.00462963 0 0 0 Z " fill="#207BB3" transform="translate(306,138)"/>
<path d="M0 0 C0.66 0.33 1.32 0.66 2 1 C0.6875 3.5 0.6875 3.5 -1 6 C-1.99 6 -2.98 6 -4 6 C-4.33 6.99 -4.66 7.98 -5 9 C-6.85546875 9.84375 -6.85546875 9.84375 -9.1875 10.5 C-15.58793508 12.32601128 -15.58793508 12.32601128 -21 16 C-25.93145877 16.89020155 -30.67965216 17.1177524 -35.68359375 17.09765625 C-36.38396255 17.0962413 -37.08433136 17.09482635 -37.80592346 17.09336853 C-40.01649466 17.08782477 -42.22696004 17.07528326 -44.4375 17.0625 C-45.94726415 17.05747771 -47.45702991 17.05291609 -48.96679688 17.04882812 C-52.64456493 17.03787387 -56.32227212 17.0206489 -60 17 C-60 16.34 -60 15.68 -60 15 C-59.34628418 14.98541748 -58.69256836 14.97083496 -58.01904297 14.95581055 C-45.65455122 14.64816582 -33.99042459 14.18055863 -22 11 C-20.55846217 10.67958362 -19.11566601 10.36479309 -17.671875 10.0546875 C-16.19773902 9.72475106 -14.72377744 9.39403431 -13.25 9.0625 C-12.55712891 8.91707764 -11.86425781 8.77165527 -11.15039062 8.62182617 C-7.28808431 7.76384058 -7.28808431 7.76384058 -4.6796875 4.98046875 C-4.45539063 4.32691406 -4.23109375 3.67335937 -4 3 C-1.875 1.25 -1.875 1.25 0 0 Z " fill="#2378AD" transform="translate(394,216)"/>
<path d="M0 0 C4.269375 -0.0825 8.53875 -0.165 12.9375 -0.25 C14.26515381 -0.28641602 15.59280762 -0.32283203 16.96069336 -0.36035156 C24.05332667 -0.4263345 29.95575429 0.01717318 36 4 C38.35610933 6.78449285 38.94637098 8.19556469 39.1875 11.8125 C39.0946875 12.8953125 39.0946875 12.8953125 39 14 C36.97069407 12.07749964 35.4553533 10.23749461 33.8125 7.9375 C26.45736124 0.25546618 9.46642481 1.76967498 1 1 C1 16.84 1 32.68 1 49 C6.28 49 11.56 49 17 49 C17 49.33 17 49.66 17 50 C11.39 50 5.78 50 0 50 C0 33.5 0 17 0 0 Z " fill="#559ACA" transform="translate(51,177)"/>
<path d="M0 0 C4.29 0 8.58 0 13 0 C13 0.33 13 0.66 13 1 C9.04 1 5.08 1 1 1 C1 2.32 1 3.64 1 5 C1.81984375 4.96519531 2.6396875 4.93039063 3.484375 4.89453125 C4.56203125 4.86746094 5.6396875 4.84039062 6.75 4.8125 C8.35101563 4.76029297 8.35101563 4.76029297 9.984375 4.70703125 C13.30027855 5.02917214 14.59016673 5.77148914 17 8 C16.67 8.99 16.34 9.98 16 11 C15.87981119 13.78302759 15.81463878 16.54288924 15.79467773 19.3269043 C15.77982834 20.60040237 15.77982834 20.60040237 15.76467896 21.89962769 C15.73307417 24.70779627 15.70831052 27.51598178 15.68359375 30.32421875 C15.66302334 32.27049704 15.64202685 34.21677088 15.62062073 36.16304016 C15.56540901 41.28728628 15.51599573 46.41157265 15.46777344 51.53588867 C15.41755187 56.76419663 15.36186922 61.99244608 15.30664062 67.22070312 C15.19907005 77.48041877 15.09762259 87.74018521 15 98 C14.01 98 13.02 98 12 98 C12.495 97.505 12.495 97.505 13 97 C13.09517803 94.23061034 13.12554265 91.48622841 13.11352539 88.71655273 C13.11367142 87.84833893 13.11381744 86.98012512 13.1139679 86.08560181 C13.11326846 83.20157414 13.10547463 80.3176102 13.09765625 77.43359375 C13.09579218 75.43962133 13.09436823 73.44564845 13.09336853 71.45167542 C13.08954248 66.19254298 13.07971145 60.93343797 13.06866455 55.67431641 C13.0584523 50.31217825 13.05387131 44.95003569 13.04882812 39.58789062 C13.03808926 29.05858167 13.0210118 18.52929311 13 8 C8.71 7.34 4.42 6.68 0 6 C0 4.02 0 2.04 0 0 Z " fill="#5294BF" transform="translate(11,125)"/>
<path d="M0 0 C5.88969302 -0.19801127 11.77744404 -0.34304089 17.66967773 -0.43945312 C19.67295072 -0.47964499 21.6759896 -0.53421105 23.6784668 -0.60351562 C26.56097078 -0.70076706 29.44037183 -0.74596533 32.32421875 -0.78125 C33.66355721 -0.84318542 33.66355721 -0.84318542 35.029953 -0.90637207 C41.08045191 -0.9107219 41.08045191 -0.9107219 43.74551392 1.72875977 C45.13288648 3.80980372 46.22559386 5.62044901 47 8 C46.67 8.99 46.34 9.98 46 11 C43.47411298 8.63707344 42.11179163 7.33537489 41 4 C27.8 3.34 14.6 2.68 1 2 C0.67 3.32 0.34 4.64 0 6 C0 4.02 0 2.04 0 0 Z " fill="#277AAE" transform="translate(127,125)"/>
<path d="M0 0 C0.66 0 1.32 0 2 0 C1.67 20.46 1.34 40.92 1 62 C0.34 62 -0.32 62 -1 62 C-1.02312764 54.06386213 -1.04091723 46.12773824 -1.05181217 38.19157505 C-1.05704008 34.50685502 -1.06413605 30.82215797 -1.07543945 27.13745117 C-1.08627162 23.58429169 -1.09227753 20.03115437 -1.09487724 16.47797966 C-1.0967309 15.11954334 -1.10035038 13.76110829 -1.10573006 12.40268135 C-1.11294475 10.50617777 -1.11340809 8.60965207 -1.11352539 6.71313477 C-1.115746 5.63169693 -1.11796661 4.55025909 -1.12025452 3.43605042 C-1 1 -1 1 0 0 Z " fill="#FEF4ED" transform="translate(558,120)"/>
<path d="M0 0 C1.25361328 -0.00386719 2.50722656 -0.00773438 3.79882812 -0.01171875 C5.01119141 -0.01042969 6.22355469 -0.00914063 7.47265625 -0.0078125 C8.569729 -0.00668457 9.66680176 -0.00555664 10.79711914 -0.00439453 C13.9212334 0.12432976 16.86816615 0.54363647 19.9375 1.125 C19.9375 1.455 19.9375 1.785 19.9375 2.125 C8.69640964 2.75136921 -2.49395169 3.30368281 -13.75512695 3 C-19.29905954 2.9116407 -24.17901758 3.59782227 -29.171875 6.2421875 C-31.64655643 7.39772057 -33.597523 7.32144676 -36.3125 7.25 C-37.20453125 7.23195313 -38.0965625 7.21390625 -39.015625 7.1953125 C-40.02882813 7.16050781 -40.02882813 7.16050781 -41.0625 7.125 C-38.88210555 4.94460555 -38.09050811 4.71833908 -35.17578125 4.08984375 C-34.40169922 3.92033203 -33.62761719 3.75082031 -32.83007812 3.57617188 C-31.61481445 3.3219043 -31.61481445 3.3219043 -30.375 3.0625 C-29.58416016 2.88912109 -28.79332031 2.71574219 -27.97851562 2.53710938 C-18.55860387 0.50688892 -9.63250204 -0.02980661 0 0 Z " fill="#D7363E" transform="translate(626.0625,11.875)"/>
<path d="M0 0 C0.33 1.32 0.66 2.64 1 4 C14.86 4.99 14.86 4.99 29 6 C29 6.33 29 6.66 29 7 C15.47 7 1.94 7 -12 7 C-12 5.02 -12 3.04 -12 1 C-10.37681021 0.63762737 -8.7513642 0.28534843 -7.125 -0.0625 C-6.22007813 -0.25972656 -5.31515625 -0.45695313 -4.3828125 -0.66015625 C-2 -1 -2 -1 0 0 Z " fill="#3B90C9" transform="translate(23,225)"/>
<path d="M0 0 C3 1 3 1 4.08740234 2.91430664 C4.41691895 3.73793701 4.74643555 4.56156738 5.0859375 5.41015625 C5.45976562 6.31830078 5.83359375 7.22644531 6.21875 8.16210938 C6.6003125 9.11923828 6.981875 10.07636719 7.375 11.0625 C9.82448094 17.15663964 12.26825319 22.85643398 15.98950195 28.29272461 C17.44899846 30.7586002 17.78811859 33.17491454 18 36 C18.66 36 19.32 36 20 36 C20.66 39.3 21.32 42.6 22 46 C18.75338711 43.05580414 16.90491379 40.26066104 15.01953125 36.31640625 C14.49552734 35.22392578 13.97152344 34.13144531 13.43164062 33.00585938 C12.89732422 31.86955078 12.36300781 30.73324219 11.8125 29.5625 C11.26658203 28.43005859 10.72066406 27.29761719 10.15820312 26.13085938 C7.90032545 21.38288116 5.99311183 17.16927437 5 12 C4.02149805 10.97895449 3.02019573 9.9793879 2 9 C0.35116058 5.61554014 0 3.86245304 0 0 Z " fill="#237AB1" transform="translate(159,159)"/>
<path d="M0 0 C1.32 0.33 2.64 0.66 4 1 C4 37.96 4 74.92 4 113 C3.67 113 3.34 113 3 113 C2.99503478 112.16289553 2.99503478 112.16289553 2.98996925 111.30887985 C2.90874852 97.72974486 2.81653385 84.15072285 2.71247292 70.57174301 C2.66248272 64.00504426 2.6161528 57.43836182 2.578125 50.87158203 C2.54130679 44.53675356 2.49495606 38.20206059 2.44193649 31.86734772 C2.42337415 29.44801455 2.40827304 27.02865231 2.39665604 24.60927582 C2.37982529 21.22602907 2.35079739 17.84309391 2.31884766 14.45996094 C2.31668747 13.45511154 2.31452728 12.45026215 2.31230164 11.41496277 C2.30113815 10.49232132 2.28997467 9.56967987 2.2784729 8.61907959 C2.27294214 7.81896328 2.26741138 7.01884697 2.26171303 6.19448471 C1.97122056 3.75868207 1.21428082 2.11481532 0 0 Z " fill="#BC3B3E" transform="translate(698,119)"/>
<path d="M0 0 C3.47691641 3.23657656 6.17297434 6.86927663 8.875 10.75 C12.15026854 15.41365814 15.47007257 20.00276997 19.0390625 24.44921875 C20 26 20 26 20 29 C20.66 29.33 21.32 29.66 22 30 C21.34 30.33 20.68 30.66 20 31 C19.34 30.67 18.68 30.34 18 30 C18 29.01 18 28.02 18 27 C17.21625 26.71125 16.4325 26.4225 15.625 26.125 C13 25 13 25 11 23 C11 21.68 11 20.36 11 19 C10.01 18.67 9.02 18.34 8 18 C6.35179805 15.39757586 6 14.13751221 6 11 C5.38125 10.7525 4.7625 10.505 4.125 10.25 C1.5621636 8.74244918 0.95685553 7.79082862 0 5 C-0.125 2.25 -0.125 2.25 0 0 Z " fill="#DA363C" transform="translate(678,155)"/>
<path d="M0 0 C3 1 3 1 4.3515625 3.3984375 C4.77179688 4.38070312 5.19203125 5.36296875 5.625 6.375 C6.05039062 7.35210937 6.47578125 8.32921875 6.9140625 9.3359375 C7.67352513 11.19907964 8.3637546 13.09126379 9 15 C9.99 15.66 10.98 16.32 12 17 C12 17.99 12 18.98 12 20 C12.66 20 13.32 20 14 20 C14.3403125 21.0828125 14.3403125 21.0828125 14.6875 22.1875 C16.27057223 25.57979763 18.32329999 27.38413408 21 30 C27 37.31294118 27 37.31294118 27 40 C28.485 40.495 28.485 40.495 30 41 C30 41.99 30 42.98 30 44 C29.34 44 28.68 44 28 44 C26.265625 42.09375 26.265625 42.09375 24.25 39.5 C23.5384375 38.58605469 22.826875 37.67210937 22.09375 36.73046875 C21.4028125 35.82941406 20.711875 34.92835938 20 34 C19.4328125 33.27425781 18.865625 32.54851562 18.28125 31.80078125 C15.90605477 28.71666295 13.74638028 25.66635701 11.875 22.25 C10.22788547 19.03193118 10.22788547 19.03193118 8 17.125 C3.69784379 12.55395902 1.81788967 5.90814141 0 0 Z " fill="#D1343B" transform="translate(489,228)"/>
<path d="M0 0 C0 1.98 0 3.96 0 6 C-0.74765625 6.04898438 -1.4953125 6.09796875 -2.265625 6.1484375 C-3.25046875 6.22320312 -4.2353125 6.29796875 -5.25 6.375 C-6.22453125 6.44460937 -7.1990625 6.51421875 -8.203125 6.5859375 C-10.89633189 6.98465249 -12.66963279 7.63507063 -15 9 C-14.67 7.68 -14.34 6.36 -14 5 C-17.21654702 3.11375329 -19.71432261 2.70952258 -23.421875 2.5859375 C-24.95908203 2.52792969 -24.95908203 2.52792969 -26.52734375 2.46875 C-27.59082031 2.4378125 -28.65429688 2.406875 -29.75 2.375 C-31.36841797 2.31699219 -31.36841797 2.31699219 -33.01953125 2.2578125 C-35.67951775 2.16365369 -38.3394994 2.07802613 -41 2 C-41 1.67 -41 1.34 -41 1 C-35.48243025 0.85725841 -29.96485203 0.71485012 -24.44726562 0.57275391 C-22.56933356 0.52434355 -20.69140386 0.47584129 -18.81347656 0.42724609 C-16.11784468 0.35750694 -13.42220453 0.28809573 -10.7265625 0.21875 C-9.88380768 0.19687622 -9.04105286 0.17500244 -8.17276001 0.15246582 C-2.22774341 0 -2.22774341 0 0 0 Z " fill="#2F83BA" transform="translate(282,125)"/>
<path d="M0 0 C0.66 0.33 1.32 0.66 2 1 C2 21.46 2 41.92 2 63 C-1 62 -1 62 -2.16796875 60.15234375 C-2.50441406 59.42144531 -2.84085938 58.69054687 -3.1875 57.9375 C-3.53167969 57.20402344 -3.87585938 56.47054687 -4.23046875 55.71484375 C-4.48441406 55.14894531 -4.73835937 54.58304688 -5 54 C-3.68 54.66 -2.36 55.32 -1 56 C0.21383381 37.33730512 0.10300478 18.69140599 0 0 Z " fill="#F5D6D6" transform="translate(699,122)"/>
<path d="M0 0 C0 1.65 0 3.3 0 5 C10.89 5 21.78 5 33 5 C33 5.33 33 5.66 33 6 C18.81 6 4.62 6 -10 6 C-8.68 5.34 -7.36 4.68 -6 4 C-8.31 3.67 -10.62 3.34 -13 3 C-13 3.99 -13 4.98 -13 6 C-13.99 6 -14.98 6 -16 6 C-16 4.35 -16 2.7 -16 1 C-10.61509359 0.08342019 -5.45769811 -0.11138159 0 0 Z " fill="#1371AD" transform="translate(240,225)"/>
<path d="M0 0 C0.33 0 0.66 0 1 0 C1 23.43 1 46.86 1 71 C1.99 71.33 2.98 71.66 4 72 C4.6875 74.0625 4.6875 74.0625 5 76 C3.35 76.99 1.7 77.98 0 79 C0 52.93 0 26.86 0 0 Z " fill="#1773AE" transform="translate(242,145)"/>
<path d="M0 0 C1.46373047 0.05414063 1.46373047 0.05414063 2.95703125 0.109375 C4.06111328 0.17898437 4.06111328 0.17898437 5.1875 0.25 C5.1875 0.91 5.1875 1.57 5.1875 2.25 C5.8475 1.92 6.5075 1.59 7.1875 1.25 C9.2249763 1.02141886 11.26790303 0.83975722 13.3125 0.6875 C14.40820312 0.60371094 15.50390625 0.51992187 16.6328125 0.43359375 C17.47585937 0.37300781 18.31890625 0.31242188 19.1875 0.25 C19.1875 1.57 19.1875 2.89 19.1875 4.25 C9.2875 4.25 -0.6125 4.25 -10.8125 4.25 C-5.1875 -0.25 -5.1875 -0.25 0 0 Z " fill="#0F75B8" transform="translate(146.8125,226.75)"/>
<path d="M0 0 C5.28 0 10.56 0 16 0 C15.67 1.65 15.34 3.3 15 5 C15.33 5.66 15.66 6.32 16 7 C15.91075148 9.7235195 15.76646668 12.41013311 15.5625 15.125 C15.51029297 15.87910156 15.45808594 16.63320312 15.40429688 17.41015625 C15.27454996 19.2737937 15.13792512 21.13694996 15 23 C14.67 23 14.34 23 14 23 C13.96261719 21.94039062 13.92523438 20.88078125 13.88671875 19.7890625 C13.82106742 18.40100576 13.75461979 17.01298651 13.6875 15.625 C13.66494141 14.92632812 13.64238281 14.22765625 13.61914062 13.5078125 C13.53015704 11.22711059 13.53015704 11.22711059 13 8 C9.99559979 5.99706653 8.29006055 5.50728374 4.8125 4.875 C3.46091797 4.62363281 3.46091797 4.62363281 2.08203125 4.3671875 C1.39496094 4.24601563 0.70789063 4.12484375 0 4 C0 2.68 0 1.36 0 0 Z " fill="#1B7DBB" transform="translate(128,127)"/>
<path d="M0 0 C0.33 0 0.66 0 1 0 C2.48221739 21.54060925 2.48221739 21.54060925 -2.875 28.8125 C-4.85965046 31.04967767 -6.33439451 32.66719725 -9 34 C-10.70702735 34.06996014 -12.41668003 34.08440154 -14.125 34.0625 C-15.03507812 34.05347656 -15.94515625 34.04445312 -16.8828125 34.03515625 C-17.58148438 34.02355469 -18.28015625 34.01195312 -19 34 C-16.90684915 31.90684915 -15.86596501 31.50417745 -13.125 30.625 C-9.55373194 29.36341074 -7.55244184 27.84695436 -5 25 C-4.34 25 -3.68 25 -3 25 C-2.01 16.75 -1.02 8.5 0 0 Z " fill="#3584B7" transform="translate(90,192)"/>
<path d="M0 0 C-0.66 0.99 -1.32 1.98 -2 3 C-7.89778012 4.14310447 -13.75896779 4.13379906 -19.75 4.09765625 C-20.64871826 4.0962413 -21.54743652 4.09482635 -22.47338867 4.09336853 C-25.31562775 4.08781583 -28.15778513 4.07527237 -31 4.0625 C-32.93880094 4.05747888 -34.87760312 4.05291705 -36.81640625 4.04882812 C-41.54430183 4.03786194 -46.27213711 4.02063044 -51 4 C-51 3.67 -51 3.34 -51 3 C-50.14994385 2.98541748 -49.2998877 2.97083496 -48.42407227 2.95581055 C-27.03361567 2.66392614 -27.03361567 2.66392614 -5.921875 -0.4765625 C-3 -1 -3 -1 0 0 Z " fill="#CF3B43" transform="translate(657,315)"/>
<path d="M0 0 C0.66 0 1.32 0 2 0 C2 26.07 2 52.14 2 79 C1.67 79 1.34 79 1 79 C0.98969254 78.06705612 0.97938507 77.13411224 0.96876526 76.17289734 C0.87108254 67.38822853 0.7683533 58.60363137 0.66066074 49.8190794 C0.60545549 45.30266958 0.55203927 40.78625325 0.50268555 36.26977539 C0.45500669 31.91255331 0.40266253 27.55541015 0.34705925 23.19828224 C0.32665167 21.5345029 0.30793594 19.87070193 0.29092598 18.20688438 C0.26684664 15.87962389 0.23679691 13.55251237 0.20532227 11.2253418 C0.1995668 10.53482224 0.19381134 9.84430267 0.18788147 9.13285828 C0.14189938 6.14913134 -0.04808549 3.85574352 -1 1 C-0.67 0.67 -0.34 0.34 0 0 Z " fill="#ECF3F8" transform="translate(240,144)"/>
<path d="M0 0 C1.99954746 -0.04254356 4.00041636 -0.04080783 6 0 C7 1 7 1 7.0625 3.5625 C7.041875 4.366875 7.02125 5.17125 7 6 C7.99 6.33 8.98 6.66 10 7 C10 14.26 10 21.52 10 29 C9.34 29.33 8.68 29.66 8 30 C7.94392578 28.17275391 7.94392578 28.17275391 7.88671875 26.30859375 C7.82101883 24.6848671 7.75457291 23.06117051 7.6875 21.4375 C7.66494141 20.63763672 7.64238281 19.83777344 7.61914062 19.01367188 C7.27106262 11.26102544 5.21645158 5.93596214 0 0 Z " fill="#1C77B1" transform="translate(77,133)"/>
<path d="M0 0 C0.33 0.66 0.66 1.32 1 2 C0.21484375 3.62890625 0.21484375 3.62890625 -1.0625 5.5625 C-1.75859375 6.61824219 -1.75859375 6.61824219 -2.46875 7.6953125 C-2.9740625 8.45585937 -3.479375 9.21640625 -4 10 C-4.5053125 10.82242188 -5.010625 11.64484375 -5.53125 12.4921875 C-6.0365625 13.29914063 -6.541875 14.10609375 -7.0625 14.9375 C-7.76052734 16.06478516 -7.76052734 16.06478516 -8.47265625 17.21484375 C-10.27553539 19.3220452 -11.3476925 19.47500717 -14 20 C-15.28436734 21.9837767 -15.28436734 21.9837767 -16 24 C-18.31 24 -20.62 24 -23 24 C-23.66 22.68 -24.32 21.36 -25 20 C-20.545 20.99 -20.545 20.99 -16 22 C-15.34 20.68 -14.68 19.36 -14 18 C-12.40389389 15.82273331 -10.78956096 13.68566449 -9.125 11.5625 C-8.69058594 11.00240234 -8.25617187 10.44230469 -7.80859375 9.86523438 C-5.23483552 6.55335629 -2.62767922 3.26932182 0 0 Z " fill="#D83940" transform="translate(648,160)"/>
<path d="M0 0 C0.93423645 3.01031744 1.04449911 3.86650268 0 7 C1.32 6.67 2.64 6.34 4 6 C3.71125 6.85980469 3.4225 7.71960938 3.125 8.60546875 C2.40087885 10.79040375 1.69133512 12.98025213 1 15.17578125 C0.505 16.72845703 0.505 16.72845703 0 18.3125 C-0.33 19.36050781 -0.66 20.40851563 -1 21.48828125 C-2 24 -2 24 -4 25 C-4 22.03 -4 19.06 -4 16 C-3.34 15.67 -2.68 15.34 -2 15 C-2 14.34 -2 13.68 -2 13 C-2.99 13 -3.98 13 -5 13 C-3.78184562 8.31479085 -2.30440013 4.29456388 0 0 Z " fill="#2E86BE" transform="translate(233,144)"/>
<path d="M0 0 C0 0.66 0 1.32 0 2 C-1.98 2.99 -3.96 3.98 -6 5 C-6 5.66 -6 6.32 -6 7 C-1.71 7 2.58 7 7 7 C7 7.33 7 7.66 7 8 C-0.26 8 -7.52 8 -15 8 C-15 6.02 -15 4.04 -15 2 C-12.87528825 1.6648342 -10.75022095 1.33192171 -8.625 1 C-7.44164062 0.814375 -6.25828125 0.62875 -5.0390625 0.4375 C-2 0 -2 0 0 0 Z " fill="#317FB3" transform="translate(142,224)"/>
<path d="M0 0 C5.09547261 3.96314536 8.72622157 7.43776648 10 14 C10.11751055 16.16438027 10.17507149 18.33246771 10.1875 20.5 C10.20167969 21.6240625 10.21585938 22.748125 10.23046875 23.90625 C10 27 10 27 8 31 C7.34 23.41 6.68 15.82 6 8 C4.02 8 2.04 8 0 8 C0.2784375 7.13375 0.2784375 7.13375 0.5625 6.25 C1.04023546 3.79307475 0.75729364 2.35602466 0 0 Z " fill="#3B8BBE" transform="translate(107,182)"/>
<path d="M0 0 C1.32 0.33 2.64 0.66 4 1 C4 1.66 4 2.32 4 3 C5.40958984 2.75443359 5.40958984 2.75443359 6.84765625 2.50390625 C11.7063754 1.80980351 16.53934211 1.89165691 21.4375 1.9375 C22.35982422 1.94201172 23.28214844 1.94652344 24.23242188 1.95117188 C26.48835048 1.96286062 28.74413967 1.97924545 31 2 C31.495 2.99 31.495 2.99 32 4 C27.49786378 4.16773186 22.99555027 4.32827877 18.49291992 4.48217773 C16.96127431 4.53554122 15.42969573 4.59086614 13.89819336 4.64819336 C11.69659883 4.73026252 9.49485949 4.80527067 7.29296875 4.87890625 C6.60849167 4.90594131 5.92401459 4.93297638 5.21879578 4.96083069 C2.1530145 5.05703182 -0.05919382 4.98026873 -3 4 C-3 3.34 -3 2.68 -3 2 C-2.01 2 -1.02 2 0 2 C0 1.34 0 0.68 0 0 Z " fill="#0B78BB" transform="translate(326,227)"/>
<path d="M0 0 C1.65 0.33 3.3 0.66 5 1 C4.88590407 2.45922693 4.75834456 3.91740598 4.625 5.375 C4.55539063 6.18710938 4.48578125 6.99921875 4.4140625 7.8359375 C4 10 4 10 2 12 C1.34 11.67 0.68 11.34 0 11 C0 11.66 0 12.32 0 13 C-0.99 13 -1.98 13 -3 13 C-4.00821159 10.31143576 -4.22736824 8.58296785 -3.17578125 5.88671875 C-2.16604698 3.89205069 -1.11893353 1.9353228 0 0 Z " fill="#1680C2" transform="translate(218,175)"/>
<path d="M0 0 C0.99 0.33 1.98 0.66 3 1 C-0.03065748 4.38034873 -2.93156896 6.04402354 -7 8 C-8.34230396 8.81880541 -9.67525818 9.65307536 -11 10.5 C-14.24762493 12.55309622 -17.45881713 14.4823502 -21 16 C-21.66 15.67 -22.32 15.34 -23 15 C-20.88504474 11.39213514 -18.70093005 10.40475321 -14.91430664 8.85864258 C-11.21075025 7.19745041 -7.9119615 4.86050974 -4.54296875 2.609375 C-3.07409603 1.66485164 -1.53973679 0.82396726 0 0 Z " fill="#D32F36" transform="translate(715,289)"/>
<path d="M0 0 C3.29926544 2.99737187 5.29648038 5.97049364 7.3125 9.9375 C8.11107422 11.46697266 8.11107422 11.46697266 8.92578125 13.02734375 C10.09299583 16.25734483 10.01657959 17.77191393 9 21 C8.34 21 7.68 21 7 21 C5.82181449 18.44225544 4.65734345 15.87965758 3.5 13.3125 C3.16613281 12.59126953 2.83226562 11.87003906 2.48828125 11.12695312 C0.76922841 7.28539628 -0.47556626 4.30557312 0 0 Z " fill="#3383B5" transform="translate(186,162)"/>
<path d="M0 0 C4.76879618 0.42077613 7.87005142 2.50858755 11 6 C15.49852765 12.76588207 17.15648292 17.8628884 17 26 C16.67 26 16.34 26 16 26 C15.90203125 25.40832031 15.8040625 24.81664062 15.703125 24.20703125 C14.72451427 19.03557972 13.55471296 16.01338559 10 12 C9.87625 11.319375 9.7525 10.63875 9.625 9.9375 C8.59686432 6.75027939 5.72465611 5.7391422 3 4 C3 3.34 3 2.68 3 2 C2.01 1.67 1.02 1.34 0 1 C0 0.67 0 0.34 0 0 Z " fill="#3D89BA" transform="translate(365,132)"/>
<path d="M0 0 C0.33 0 0.66 0 1 0 C1 3.63 1 7.26 1 11 C1.99 11.33 2.98 11.66 4 12 C4.125 14.375 4.125 14.375 4 17 C2 19 2 19 -1.125 19.125 C-2.548125 19.063125 -2.548125 19.063125 -4 19 C-3.34 17.68 -2.68 16.36 -2 15 C-3.32 15.99 -4.64 16.98 -6 18 C-4.857329 15.714658 -3.70072005 13.47326729 -2.4375 11.25 C-0.71796884 7.36236433 -0.36371538 4.21909836 0 0 Z " fill="#338CC4" transform="translate(84,152)"/>
<path d="M0 0 C2.60527105 -0.10792837 5.20608311 -0.18724878 7.8125 -0.25 C8.55048828 -0.28351563 9.28847656 -0.31703125 10.04882812 -0.3515625 C12.20703125 -0.390625 12.20703125 -0.390625 16 0 C18.01171875 2.015625 18.01171875 2.015625 19 4 C15.70880274 6.19413151 15.24874522 6.2045464 11.55078125 5.7578125 C10.70322266 5.66113281 9.85566406 5.56445312 8.98242188 5.46484375 C8.10134766 5.35269531 7.22027344 5.24054688 6.3125 5.125 C5.41982422 5.02058594 4.52714844 4.91617188 3.60742188 4.80859375 C1.40351151 4.54931018 -0.79856669 4.27941634 -3 4 C-3 3.67 -3 3.34 -3 3 C1.62 3 6.24 3 11 3 C11 2.34 11 1.68 11 1 C7.37 1 3.74 1 0 1 C0 0.67 0 0.34 0 0 Z " fill="#2F8FCC" transform="translate(347,126)"/>
<path d="M0 0 C0.33 0 0.66 0 1 0 C1.05893685 3.9374352 1.09390669 7.87475427 1.125 11.8125 C1.14175781 12.91271484 1.15851562 14.01292969 1.17578125 15.14648438 C1.21719429 22.16599491 1.08365577 29.23499951 -1 36 C-1.99 36.495 -1.99 36.495 -3 37 C-3.18451025 25.47835991 -3.18451025 25.47835991 -2 20 C-1.34 20 -0.68 20 0 20 C0 13.4 0 6.8 0 0 Z " fill="#E04E55" transform="translate(781,162)"/>
<path d="M0 0 C0.33 0 0.66 0 1 0 C1.28990996 6.32003716 0.31836884 11.46498124 -1.5 17.5 C-1.73847656 18.32242188 -1.97695313 19.14484375 -2.22265625 19.9921875 C-2.80561739 21.99757382 -3.40147151 23.99920475 -4 26 C-4.33 26 -4.66 26 -5 26 C-5.52998724 17.30428345 -4.93594603 7.40391905 0 0 Z " fill="#D63B43" transform="translate(482,118)"/>
<path d="M0 0 C0.66 0.66 1.32 1.32 2 2 C-3.673142 4.45417612 -8.81839396 6.46246904 -15 7 C-15 6.01 -15 5.02 -15 4 C-5.38202625 -0.7876136 -5.38202625 -0.7876136 0 0 Z " fill="#2C81B9" transform="translate(332,125)"/>
<path d="M0 0 C1 2 1 2 0.3125 5.4375 C-0.9537205 8.31038708 -1.76657106 8.90696189 -4.734375 10.08984375 C-7.81248916 10.8443571 -10.8785801 11.4553227 -14 12 C-14.74378906 12.20882812 -15.48757813 12.41765625 -16.25390625 12.6328125 C-18 13 -18 13 -20 12 C-19.19175781 11.68546875 -18.38351562 11.3709375 -17.55078125 11.046875 C-16.48214844 10.61890625 -15.41351563 10.1909375 -14.3125 9.75 C-13.25675781 9.33234375 -12.20101563 8.9146875 -11.11328125 8.484375 C-6.72067119 6.39003143 -3.33434373 3.5098355 0 0 Z " fill="#418DBE" transform="translate(375,215)"/>
<path d="M0 0 C2.9140625 0.53125 2.9140625 0.53125 6.9140625 3.53125 C2.9540625 4.19125 -1.0059375 4.85125 -5.0859375 5.53125 C-5.0859375 6.19125 -5.0859375 6.85125 -5.0859375 7.53125 C-5.7459375 7.53125 -6.4059375 7.53125 -7.0859375 7.53125 C-7.7459375 9.51125 -8.4059375 11.49125 -9.0859375 13.53125 C-10.4059375 12.87125 -11.7259375 12.21125 -13.0859375 11.53125 C-11.56376504 9.67817049 -10.02168155 7.85137272 -8.4609375 6.03125 C-8.03425781 5.50660156 -7.60757813 4.98195313 -7.16796875 4.44140625 C-4.85909227 1.78792134 -3.50579153 0.60352867 0 0 Z " fill="#FCD4D3" transform="translate(592.0859375,81.46875)"/>
<path d="M0 0 C0.99 0.33 1.98 0.66 3 1 C-1.36211899 7.66730383 -6.63099818 12.267303 -13 17 C-13.66 16.67 -14.32 16.34 -15 16 C-14.04882866 14.8274869 -13.08882991 13.66212985 -12.125 12.5 C-11.59132813 11.8503125 -11.05765625 11.200625 -10.5078125 10.53125 C-9.76144531 9.77328125 -9.76144531 9.77328125 -9 9 C-8.34 9 -7.68 9 -7 9 C-6.773125 8.443125 -6.54625 7.88625 -6.3125 7.3125 C-4.64103234 4.36753316 -2.44723648 2.31843456 0 0 Z " fill="#D43841" transform="translate(526,50)"/>
<path d="M0 0 C0 0.33 0 0.66 0 1 C-1.670625 1.2165625 -1.670625 1.2165625 -3.375 1.4375 C-6.82142047 1.78372035 -6.82142047 1.78372035 -9 3 C-10.76856576 3.15378833 -12.54012052 3.27426937 -14.3125 3.375 C-18.67191539 3.70283595 -18.67191539 3.70283595 -22.5625 5.5625 C-26.45874703 7.86028671 -30.58157862 7.23164539 -35 7 C-32.81960555 4.81960555 -32.02800811 4.59333908 -29.11328125 3.96484375 C-28.33919922 3.79533203 -27.56511719 3.62582031 -26.76757812 3.45117188 C-25.55231445 3.1969043 -25.55231445 3.1969043 -24.3125 2.9375 C-23.52166016 2.76412109 -22.73082031 2.59074219 -21.91601562 2.41210938 C-14.55583338 0.82581081 -7.53086257 -0.1321204 0 0 Z " fill="#DD4E55" transform="translate(620,12)"/>
<path d="M0 0 C0 0.33 0 0.66 0 1 C-5.43583811 2.5341379 -10.33499907 3.28123984 -16 3.1953125 C-17.08172485 3.19106766 -17.08172485 3.19106766 -18.18530273 3.18673706 C-20.45704747 3.17566696 -22.72837727 3.15058895 -25 3.125 C-26.55337967 3.1149531 -28.1067656 3.10583027 -29.66015625 3.09765625 C-33.44026062 3.07577111 -37.22006032 3.04133514 -41 3 C-41 2.67 -41 2.34 -41 2 C-36.60773661 1.71145435 -32.21524348 1.42678054 -27.82250977 1.14550781 C-26.33188299 1.04953573 -24.8413209 0.95255296 -23.35083008 0.85449219 C-15.56167635 0.34270066 -7.81104826 -0.14089828 0 0 Z " fill="#187BBA" transform="translate(93,229)"/>
<path d="M0 0 C4.87305969 4.29975855 7.8200442 9.37224317 11 15 C6.65800581 15 4.82564781 12.9057208 1.67578125 10.08984375 C-0.23271831 7.7097802 -0.52682744 6.57253828 -0.5 3.5625 C-0.335 2.386875 -0.17 1.21125 0 0 Z " fill="#E32830" transform="translate(612,164)"/>
<path d="M0 0 C3.5624308 -0.05827558 7.12473819 -0.09368885 10.6875 -0.125 C12.19860352 -0.15013672 12.19860352 -0.15013672 13.74023438 -0.17578125 C14.71669922 -0.18222656 15.69316406 -0.18867187 16.69921875 -0.1953125 C17.59471436 -0.20578613 18.49020996 -0.21625977 19.4128418 -0.22705078 C22.26168257 0.02296544 24.40894543 0.81983488 27 2 C27 2.33 27 2.66 27 3 C21.06 3 15.12 3 9 3 C9 2.34 9 1.68 9 1 C6.03 1 3.06 1 0 1 C0 0.67 0 0.34 0 0 Z " fill="#3683B4" transform="translate(68,125)"/>
<path d="M0 0 C2 2 2 2 2 6 C3.32 6.33 4.64 6.66 6 7 C6 10.96 6 14.92 6 19 C1.41305576 14.41305576 0.14400371 8.78407171 -0.1875 2.375 C-0.125625 1.59125 -0.06375 0.8075 0 0 Z " fill="#D82E35" transform="translate(479,198)"/>
<path d="M0 0 C0.99 0 1.98 0 3 0 C2.12105218 4.37040631 -0.23741811 7.30389268 -2.9375 10.75 C-3.39318359 11.35199219 -3.84886719 11.95398438 -4.31835938 12.57421875 C-5.49327492 14.09145961 -6.74169407 15.55116855 -8 17 C-8.66 17 -9.32 17 -10 17 C-9.49259538 12.60249328 -6.91706686 10.13051078 -4 7 C-3.34 7 -2.68 7 -2 7 C-1.34 4.69 -0.68 2.38 0 0 Z " fill="#CE262D" transform="translate(642,101)"/>
<path d="M0 0 C0.33 0.99 0.66 1.98 1 3 C-0.3125 5.1875 -0.3125 5.1875 -2 7 C-2.66 7 -3.32 7 -4 7 C-4.28875 7.804375 -4.5775 8.60875 -4.875 9.4375 C-6 12 -6 12 -8 13 C-7.73958333 11.01432292 -7.47916667 9.02864583 -7.21875 7.04296875 C-6.946767 4.84528294 -6.946767 4.84528294 -7 2 C-4.69 1.34 -2.38 0.68 0 0 Z " fill="#DC232C" transform="translate(569,103)"/>
<path d="M0 0 C0.33 0 0.66 0 1 0 C1.02505615 0.86802246 1.0501123 1.73604492 1.07592773 2.63037109 C1.17099484 5.84713163 1.27023203 9.06372849 1.37231445 12.28027344 C1.41565846 13.6731259 1.45733396 15.06603131 1.49731445 16.45898438 C1.55502932 18.45976651 1.61921869 20.46035859 1.68359375 22.4609375 C1.72025146 23.66540527 1.75690918 24.86987305 1.79467773 26.11083984 C1.81052987 28.93996367 1.81052987 28.93996367 3 31 C3.04022391 33.3329866 3.04320247 35.66706666 3 38 C2.34 38 1.68 38 1 38 C-0.58645357 34.82709287 -0.12078213 31.41174616 -0.09765625 27.9296875 C-0.0962413 27.13345978 -0.09482635 26.33723206 -0.09336853 25.51687622 C-0.08776345 22.9695462 -0.07521014 20.42230353 -0.0625 17.875 C-0.05748565 16.14974085 -0.05292263 14.42448033 -0.04882812 12.69921875 C-0.03779237 8.46611209 -0.02052436 4.23307086 0 0 Z " fill="#2880BA" transform="translate(317,167)"/>
<path d="M0 0 C1.65 0.33 3.3 0.66 5 1 C3.3125 3.9375 3.3125 3.9375 1 7 C-0.66014616 7.36442233 -2.32706064 7.69972883 -4 8 C-5.01866229 9.65532623 -6.01810813 11.32260138 -7 13 C-9.6875 14.3125 -9.6875 14.3125 -12 15 C-8.19695186 9.80789528 -4.23841458 4.84390238 0 0 Z " fill="#DB393F" transform="translate(662,143)"/>
<path d="M0 0 C0.33 0 0.66 0 1 0 C1.97631455 4.92062532 2.1831655 9.63165953 2.1875 14.625 C2.19974609 15.37523437 2.21199219 16.12546875 2.22460938 16.8984375 C2.23484653 20.74760773 2.18079278 23.74174044 0 27 C-0.6888091 17.86533168 -1.30192693 9.11348853 0 0 Z " fill="#4B91BE" transform="translate(289,164)"/>
<path d="M0 0 C3.68405866 3.18025577 5.11258392 6.201622 6.75 10.75 C7.17796875 11.92046875 7.6059375 13.0909375 8.046875 14.296875 C8.36140625 15.18890625 8.6759375 16.0809375 9 17 C8.01 17 7.02 17 6 17 C3.8480563 13.77208445 3.79913557 12.71599191 4 9 C3.01 8.67 2.02 8.34 1 8 C0.67 5.36 0.34 2.72 0 0 Z " fill="#3181B5" transform="translate(196,183)"/>
<path d="M0 0 C4.31392226 0.4793247 6.16569547 1.7457985 9 5 C8.38511719 4.96519531 7.77023437 4.93039063 7.13671875 4.89453125 C6.32847656 4.86746094 5.52023437 4.84039062 4.6875 4.8125 C3.88699219 4.77769531 3.08648438 4.74289063 2.26171875 4.70703125 C-0.50708741 5.0656849 -1.18360958 5.97054325 -3 8 C-3.66 8 -4.32 8 -5 8 C-5 8.99 -5 9.98 -5 11 C-5.99 10.67 -6.98 10.34 -8 10 C-7.59007812 9.52949219 -7.18015625 9.05898437 -6.7578125 8.57421875 C-6.21898437 7.95160156 -5.68015625 7.32898438 -5.125 6.6875 C-4.59132813 6.07261719 -4.05765625 5.45773438 -3.5078125 4.82421875 C-1.8359553 2.86501788 -1.8359553 2.86501788 0 0 Z " fill="#FAC9C8" transform="translate(662,81)"/>
<path d="M0 0 C0.99 0.33 1.98 0.66 3 1 C2.34 1 1.68 1 1 1 C0.67 2.32 0.34 3.64 0 5 C-0.99 5 -1.98 5 -3 5 C-2.690625 5.928125 -2.690625 5.928125 -2.375 6.875 C-2.25125 7.57625 -2.1275 8.2775 -2 9 C-2.66 9.66 -3.32 10.32 -4 11 C-4.99 11 -5.98 11 -7 11 C-7.33 10.34 -7.66 9.68 -8 9 C-8.66 8.67 -9.32 8.34 -10 8 C-8.89764064 7.03958829 -7.79303376 6.08175593 -6.6875 5.125 C-5.76517578 4.32449219 -5.76517578 4.32449219 -4.82421875 3.5078125 C-3 2 -3 2 0 0 Z " fill="#DD373E" transform="translate(549,33)"/>
<path d="M0 0 C1.06528748 2.73019786 1.07998186 3.79298812 0.00390625 6.578125 C-0.47175781 7.45984375 -0.94742188 8.3415625 -1.4375 9.25 C-1.91058594 10.14203125 -2.38367188 11.0340625 -2.87109375 11.953125 C-3.24363281 12.62859375 -3.61617187 13.3040625 -4 14 C-4.66 14 -5.32 14 -6 14 C-5.88601335 12.37419034 -5.75844341 10.74932843 -5.625 9.125 C-5.55539062 8.22007812 -5.48578125 7.31515625 -5.4140625 6.3828125 C-5 4 -5 4 -3 2 C-2.01 2 -1.02 2 0 2 C0 1.34 0 0.68 0 0 Z " fill="#DF2E37" transform="translate(768,226)"/>
<path d="M0 0 C3.3 0 6.6 0 10 0 C9.67 0.66 9.34 1.32 9 2 C6.69 2 4.38 2 2 2 C2.33 2.66 2.66 3.32 3 4 C3.66 3.67 4.32 3.34 5 3 C6.99960012 2.960008 9.00047242 2.95653201 11 3 C10.01 4.485 10.01 4.485 9 6 C6.8359375 6.29296875 6.8359375 6.29296875 4.375 6.1875 C3.55773437 6.16042969 2.74046875 6.13335937 1.8984375 6.10546875 C0.95871094 6.05326172 0.95871094 6.05326172 0 6 C0 4.02 0 2.04 0 0 Z " fill="#317FB2" transform="translate(11,226)"/>
<path d="M0 0 C0.33 0 0.66 0 1 0 C1 8.91 1 17.82 1 27 C0.34 27 -0.32 27 -1 27 C-2.32 24.36 -3.64 21.72 -5 19 C-3.02 19.99 -3.02 19.99 -1 21 C-0.67 14.07 -0.34 7.14 0 0 Z " fill="#FCE0E1" transform="translate(699,157)"/>
<path d="M0 0 C1.50433594 0.01353516 1.50433594 0.01353516 3.0390625 0.02734375 C3.80992187 0.03894531 4.58078125 0.05054688 5.375 0.0625 C5.375 0.7225 5.375 1.3825 5.375 2.0625 C6.695 2.3925 8.015 2.7225 9.375 3.0625 C4.095 3.0625 -1.185 3.0625 -6.625 3.0625 C-6.955 2.4025 -7.285 1.7425 -7.625 1.0625 C-4.98041621 -0.25979189 -2.94738699 -0.03427194 0 0 Z " fill="#0179BE" transform="translate(146.625,226.9375)"/>
<path d="M0 0 C7.59 0 15.18 0 23 0 C23 0.33 23 0.66 23 1 C16.4 1 9.8 1 3 1 C2.34 2.98 1.68 4.96 1 7 C0.01 7.495 0.01 7.495 -1 8 C-0.67 5.36 -0.34 2.72 0 0 Z " fill="#0D70B0" transform="translate(241,127)"/>
<path d="M0 0 C0.99 0.33 1.98 0.66 3 1 C3 1.66 3 2.32 3 3 C3.99 3.33 4.98 3.66 6 4 C6.33 4.99 6.66 5.98 7 7 C7.66 7.33 8.32 7.66 9 8 C9.66 8.33 10.32 8.66 11 9 C11.33 9.99 11.66 10.98 12 12 C8 12 8 12 6.11328125 10.13671875 C5.51902344 9.32847656 4.92476562 8.52023438 4.3125 7.6875 C3.71050781 6.88699219 3.10851562 6.08648437 2.48828125 5.26171875 C1 3 1 3 0 0 Z " fill="#D4303A" transform="translate(686,104)"/>
<path d="M0 0 C2.29158942 2.89818662 4.07862366 5.83140544 5.75 9.125 C6.19859375 9.99382812 6.6471875 10.86265625 7.109375 11.7578125 C7.40328125 12.49773437 7.6971875 13.23765625 8 14 C7.67 14.66 7.34 15.32 7 16 C3.4527612 13.75963865 1.71546069 12.02180241 0.6875 8 C0.08767548 5.18247564 0 2.94929643 0 0 Z " fill="#3788BB" transform="translate(174,136)"/>
<path d="M0 0 C0.33 0 0.66 0 1 0 C1.36795695 3.2828659 1.3231932 4.58663012 -0.75 7.23828125 C-1.4925 7.92277344 -2.235 8.60726562 -3 9.3125 C-3.7425 10.00988281 -4.485 10.70726563 -5.25 11.42578125 C-5.8275 11.94527344 -6.405 12.46476562 -7 13 C-7.66 12.67 -8.32 12.34 -9 12 C-6.2534186 7.72754004 -3.36007505 3.81413925 0 0 Z " fill="#F9CCC9" transform="translate(652,93)"/>
<path d="M0 0 C0.82273185 2.36734455 1.10990889 3.64262754 0.36328125 6.0703125 C0.01652344 6.74835938 -0.33023437 7.42640625 -0.6875 8.125 C-1.02136719 8.80820313 -1.35523438 9.49140625 -1.69921875 10.1953125 C-3.22681238 12.31467663 -4.60786878 13.02300325 -7 14 C-5.53967505 8.68972746 -3.01679014 4.53669968 0 0 Z " fill="#D83E45" transform="translate(497,85)"/>
<path d="M0 0 C0.33 0 0.66 0 1 0 C1.3125 2.25 1.3125 2.25 1 5 C-1.91227503 8.26527806 -3.41135903 8.96140059 -7.8125 9.25 C-8.864375 9.1675 -9.91625 9.085 -11 9 C-11 8.34 -11 7.68 -11 7 C-10.278125 6.938125 -9.55625 6.87625 -8.8125 6.8125 C-5.1410973 5.75187255 -3.52297062 3.80330069 -1 1 C-0.67 0.67 -0.34 0.34 0 0 Z " fill="#F6BEBF" transform="translate(637,113)"/>
<path d="M0 0 C6.0546875 -0.1953125 6.0546875 -0.1953125 8 0 C10 2 10 2 10 6 C5.56909529 4.79157144 3.01887244 3.48331435 0 0 Z " fill="#D9343B" transform="translate(553,298)"/>
<path d="M0 0 C2.31 0 4.62 0 7 0 C7.33 0.66 7.66 1.32 8 2 C10.32156597 2.40729228 12.6568787 2.74438677 15 3 C15 3.33 15 3.66 15 4 C9.06 4 3.12 4 -3 4 C-2.01 3.67 -1.02 3.34 0 3 C0 2.01 0 1.02 0 0 Z " fill="#217DB8" transform="translate(227,228)"/>
<path d="M0 0 C1.875 0.25 1.875 0.25 4 1 C5.3125 2.8125 5.3125 2.8125 6 5 C5.625 7.25 5.625 7.25 5 9 C4.34 8.34 3.68 7.68 3 7 C2.01 7.33 1.02 7.66 0 8 C0 5.36 0 2.72 0 0 Z " fill="#1E7BB7" transform="translate(179,151)"/>
<path d="M0 0 C3.6074848 1.94999178 5.58414365 3.74384579 8 7 C10.08334635 8.2516467 10.08334635 8.2516467 12 9 C5.91773487 9.7155606 5.91773487 9.7155606 3.421875 7.76953125 C1.12741029 5.09924904 0 3.57356623 0 0 Z " fill="#C91E25" transform="translate(620,111)"/>
<path d="M0 0 C0.66 0.33 1.32 0.66 2 1 C1.09648559 2.63234937 0.1766431 4.25566824 -0.75 5.875 C-1.26046875 6.77992187 -1.7709375 7.68484375 -2.296875 8.6171875 C-4.05697297 11.07970989 -5.21006094 11.94467523 -8 13 C-6.66749209 9.4124787 -5.169283 6.1635377 -3 3 C-2.34 3 -1.68 3 -1 3 C-0.67 2.01 -0.34 1.02 0 0 Z " fill="#D54B53" transform="translate(506,72)"/>
<path d="M0 0 C1.32 0 2.64 0 4 0 C3.44271087 3.34373475 2.64826111 6.03312999 1 9 C-0.65 9 -2.3 9 -4 9 C-4 8.34 -4 7.68 -4 7 C-2.68 7 -1.36 7 0 7 C-0.2784375 5.824375 -0.2784375 5.824375 -0.5625 4.625 C-1 2 -1 2 0 0 Z " fill="#2B82B8" transform="translate(197,224)"/>
<path d="M0 0 C4.49014624 1.49671541 8.47848764 3.83368341 12 7 C12 7.66 12 8.32 12 9 C8.61638481 8.38271885 6.47997439 7.13020282 3.75 5.0625 C3.04359375 4.53785156 2.3371875 4.01320313 1.609375 3.47265625 C1.07828125 2.98667969 0.5471875 2.50070313 0 2 C0 1.34 0 0.68 0 0 Z " fill="#D23843" transform="translate(720,43)"/>
<path d="M0 0 C9.06315455 1.31450333 9.06315455 1.31450333 12.5625 3.875 C13.98268782 5.97440808 14.64337468 7.50362274 15 10 C14.34 10 13.68 10 13 10 C12.484375 9.443125 11.96875 8.88625 11.4375 8.3125 C8.04490401 5.09388329 4.12545655 3.15087905 0 1 C0 0.67 0 0.34 0 0 Z " fill="#2A7EB2" transform="translate(381,131)"/>
<path d="M0 0 C3.17538332 0.34021964 4.02276865 1.02466604 6.25 3.4375 C8 6 8 6 8 8 C8.99 8.33 9.98 8.66 11 9 C11 9.99 11 10.98 11 12 C10.34 12 9.68 12 9 12 C7.58303493 10.42945794 6.23893184 8.79253336 4.9375 7.125 C4.22464844 6.22007812 3.51179688 5.31515625 2.77734375 4.3828125 C1 2 1 2 0 0 Z " fill="#D63E45" transform="translate(508,260)"/>
<path d="M0 0 C2.31 0 4.62 0 7 0 C7 0.66 7 1.32 7 2 C11.29 2 15.58 2 20 2 C20 2.33 20 2.66 20 3 C13.73 3 7.46 3 1 3 C0.67 2.01 0.34 1.02 0 0 Z " fill="#3E93D0" transform="translate(129,229)"/>
<path d="M0 0 C-2 2 -2 2 -5.125 2.125 C-6.07375 2.08375 -7.0225 2.0425 -8 2 C-8 2.99 -8 3.98 -8 5 C-8.99 5 -9.98 5 -11 5 C-11 3.35 -11 1.7 -11 0 C-3.57142857 -1.28571429 -3.57142857 -1.28571429 0 0 Z " fill="#1E77AF" transform="translate(235,226)"/>
<path d="M0 0 C4.51290803 3.33562767 6.68206814 5.33289301 8 11 C7.34 11 6.68 11 6 11 C6 10.01 6 9.02 6 8 C4.02 8 2.04 8 0 8 C0.2784375 7.13375 0.2784375 7.13375 0.5625 6.25 C1.04023546 3.79307475 0.75729364 2.35602466 0 0 Z " fill="#277EB5" transform="translate(107,182)"/>
<path d="M0 0 C1.13732426 3.40401948 0.83989957 5.77456664 0.0625 9.25 C-0.13214844 10.14203125 -0.32679688 11.0340625 -0.52734375 11.953125 C-0.68332031 12.62859375 -0.83929688 13.3040625 -1 14 C-1.66 13.67 -2.32 13.34 -3 13 C-3.17791204 8.46324303 -3.0461125 5.092225 -1 1 C-0.67 0.67 -0.34 0.34 0 0 Z " fill="#3786B8" transform="translate(320,149)"/>
<path d="M0 0 C3.375 0.25 3.375 0.25 7 1 C8.4375 3.0625 8.4375 3.0625 9 5 C5.88772805 5 3.05847848 4.54372951 0 4 C0 2.68 0 1.36 0 0 Z " fill="#257CB6" transform="translate(96,128)"/>
<path d="M0 0 C4.29 0 8.58 0 13 0 C12.67 0.99 12.34 1.98 12 3 C8.04 2.67 4.08 2.34 0 2 C0 1.34 0 0.68 0 0 Z " fill="#0479C3" transform="translate(128,127)"/>
<path d="M0 0 C0.66 0 1.32 0 2 0 C1.5206753 4.31392226 0.2542015 6.16569547 -3 9 C-3.99 8.67 -4.98 8.34 -6 8 C-5.04956626 6.66102417 -4.08940853 5.32894573 -3.125 4 C-2.59132813 3.2575 -2.05765625 2.515 -1.5078125 1.75 C-1.01023437 1.1725 -0.51265625 0.595 0 0 Z " fill="#FBD1CE" transform="translate(573,101)"/>
<path d="M0 0 C3.90181526 1.2654536 5.94481034 2.40341809 8 6 C8.6875 8.75 8.6875 8.75 9 11 C8.34 11 7.68 11 7 11 C6.67 10.01 6.34 9.02 6 8 C4.989375 7.175 3.97875 6.35 2.9375 5.5 C1.968125 4.675 0.99875 3.85 0 3 C0 2.01 0 1.02 0 0 Z " fill="#D33038" transform="translate(746,68)"/>
<path d="M0 0 C4.97631579 4.81578947 4.97631579 4.81578947 5.0625 9.125 C5.041875 10.07375 5.02125 11.0225 5 12 C2.69857565 10.21825212 1.19965609 8.83695835 0.51171875 5.953125 C0.27676898 3.9753389 0.13248542 1.98728128 0 0 Z " fill="#478EBD" transform="translate(402,147)"/>
<path d="M0 0 C3.85816731 3.50153 5.71910483 7.88674523 6.1875 13.078125 C6.1875 14.71994004 6.10241361 16.36138226 6 18 C5.67 18 5.34 18 5 18 C4.89042969 17.39671875 4.78085937 16.7934375 4.66796875 16.171875 C3.76231375 11.60678476 2.90009145 8.69102548 0 5 C-0.1875 2.25 -0.1875 2.25 0 0 Z " fill="#2880B7" transform="translate(376,140)"/>
<path d="M0 0 C3.68006822 3.38168431 5.9785845 6.42521756 8 11 C7.34 11 6.68 11 6 11 C6 10.34 6 9.68 6 9 C3.525 8.01 3.525 8.01 1 7 C0.67 4.69 0.34 2.38 0 0 Z " fill="#F9C6C7" transform="translate(680,97)"/>
<path d="M0 0 C1.32 0.33 2.64 0.66 4 1 C4 1.66 4 2.32 4 3 C4.99 3.33 5.98 3.66 7 4 C7 4.33 7 4.66 7 5 C0.375 5.125 0.375 5.125 -3 4 C-3 3.34 -3 2.68 -3 2 C-2.01 2 -1.02 2 0 2 C0 1.34 0 0.68 0 0 Z " fill="#358AC0" transform="translate(326,227)"/>
<path d="M0 0 C1.2989839 0.90626784 2.58893167 1.82549537 3.875 2.75 C4.59429688 3.26046875 5.31359375 3.7709375 6.0546875 4.296875 C8.08570565 6.07503547 8.97855012 7.52701607 10 10 C6.7451198 9.41978222 5.06347592 8.47352859 2.75 6.125 C2.22921875 5.61195312 1.7084375 5.09890625 1.171875 4.5703125 C0 3 0 3 0 0 Z " fill="#D23E45" transform="translate(732,52)"/>
<path d="M0 0 C1.64936913 0.78427352 3.29441127 1.57765259 4.9375 2.375 C5.85402344 2.81585938 6.77054688 3.25671875 7.71484375 3.7109375 C10 5 10 5 11 7 C4.64285714 6.51098901 4.64285714 6.51098901 1.5625 4.0625 C0 2 0 2 0 0 Z " fill="#D2373F" transform="translate(709,35)"/>
<path d="M0 0 C1.65 1.65 3.3 3.3 5 5 C4.67 5.99 4.34 6.98 4 8 C2.35 8.33 0.7 8.66 -1 9 C-0.67 6.03 -0.34 3.06 0 0 Z " fill="#DD2E36" transform="translate(602,151)"/>
<path d="M0 0 C1 1 2 2 3 3 C3.680625 3.598125 4.36125 4.19625 5.0625 4.8125 C7.34957487 7.3946813 8.09999377 9.69997714 9 13 C5.6227555 11.60724746 4.12929695 10.17726069 2.25 7.0625 C1.82203125 6.37285156 1.3940625 5.68320313 0.953125 4.97265625 C0 3 0 3 0 0 Z " fill="#F9C4C6" transform="translate(613,104)"/>
<path d="M0 0 C3 1 3 1 4.203125 2.9609375 C4.54859375 3.75757813 4.8940625 4.55421875 5.25 5.375 C5.60578125 6.16648438 5.9615625 6.95796875 6.328125 7.7734375 C7 10 7 10 6 13 C4.99491199 11.21118264 3.99607264 9.41885304 3 7.625 C2.1646875 6.12839844 2.1646875 6.12839844 1.3125 4.6015625 C0 2 0 2 0 0 Z " fill="#227AB1" transform="translate(186,218)"/>
<path d="M0 0 C2.95749791 3.46741134 5.07848152 6.86873527 7 11 C4.53199953 9.84826645 2.95216435 8.95216435 1 7 C1 6.01 1 5.02 1 4 C0.34 3.67 -0.32 3.34 -1 3 C-0.67 2.01 -0.34 1.02 0 0 Z " fill="#D8363D" transform="translate(616,169)"/>
<path d="M0 0 C-1.44472346 3.80881639 -3.32603071 5.29742886 -7 7 C-7.99 6.67 -8.98 6.34 -10 6 C-8.90398831 4.99106869 -7.79786082 3.99311775 -6.6875 3 C-6.07261719 2.443125 -5.45773437 1.88625 -4.82421875 1.3125 C-3 0 -3 0 0 0 Z " fill="#3583B4" transform="translate(316,131)"/>
<path d="M0 0 C0.99 0.33 1.98 0.66 3 1 C3 1.99 3 2.98 3 4 C1.5390625 5.38671875 1.5390625 5.38671875 -0.375 6.6875 C-1.00148438 7.12449219 -1.62796875 7.56148437 -2.2734375 8.01171875 C-4 9 -4 9 -6 9 C-5.67 8.01 -5.34 7.02 -5 6 C-4.01 6 -3.02 6 -2 6 C-2 5.34 -2 4.68 -2 4 C-1.34 4 -0.68 4 0 4 C0 2.68 0 1.36 0 0 Z " fill="#2F82B7" transform="translate(109,217)"/>
<path d="M0 0 C1.99954746 -0.04254356 4.00041636 -0.04080783 6 0 C7 1 7 1 7.0625 3.5625 C7.041875 4.366875 7.02125 5.17125 7 6 C3.63279613 4.60667426 2.0140476 3.0210714 0 0 Z " fill="#267CB3" transform="translate(77,133)"/>
<path d="M0 0 C1.32 0 2.64 0 4 0 C4 0.66 4 1.32 4 2 C7.63 2 11.26 2 15 2 C15 2.33 15 2.66 15 3 C14.25234375 3.04898438 13.5046875 3.09796875 12.734375 3.1484375 C11.74953125 3.22320312 10.7646875 3.29796875 9.75 3.375 C8.28820312 3.47941406 8.28820312 3.47941406 6.796875 3.5859375 C4.10366811 3.98465249 2.33036721 4.63507063 0 6 C0.185625 5.38125 0.37125 4.7625 0.5625 4.125 C1.23686176 1.95839822 1.23686176 1.95839822 0 0 Z " fill="#378AC0" transform="translate(267,128)"/>
<path d="M0 0 C0.99 0 1.98 0 3 0 C2.52797514 4.24822374 0.03344482 6.19989709 -3 9 C-3.33 8.34 -3.66 7.68 -4 7 C-3.34 7 -2.68 7 -2 7 C-1.34 4.69 -0.68 2.38 0 0 Z " fill="#D32F32" transform="translate(642,101)"/>
<path d="M0 0 C1.98 0 3.96 0 6 0 C7.0625 1.8125 7.0625 1.8125 8 4 C7.67 4.99 7.34 5.98 7 7 C5.83040013 6.02433888 4.66438823 5.044375 3.5 4.0625 C2.8503125 3.51722656 2.200625 2.97195312 1.53125 2.41015625 C1.0259375 1.94480469 0.520625 1.47945312 0 1 C0 0.67 0 0.34 0 0 Z " fill="#FCD2D2" transform="translate(666,143)"/>
<path d="M0 0 C0.66 0.33 1.32 0.66 2 1 C-0.46153846 7.64615385 -0.46153846 7.64615385 -3.1875 9.4375 C-4.0846875 9.7159375 -4.0846875 9.7159375 -5 10 C-3.66511872 6.40608886 -2.03977277 3.24509304 0 0 Z " fill="#F9BCBC" transform="translate(565,110)"/>
<path d="M0 0 C0.33 0 0.66 0 1 0 C1.103125 0.763125 1.20625 1.52625 1.3125 2.3125 C1.76434916 5.02987123 1.76434916 5.02987123 3.5625 6.5625 C4.036875 7.036875 4.51125 7.51125 5 8 C5 9.32 5 10.64 5 12 C2 11 2 11 0.8125 8.8125 C-0.07334979 5.74609689 -0.14770318 3.17561845 0 0 Z " fill="#3486BA" transform="translate(291,194)"/>
<path d="M0 0 C2.475 0.99 2.475 0.99 5 2 C5 2.66 5 3.32 5 4 C7.97 4.495 7.97 4.495 11 5 C11 5.33 11 5.66 11 6 C7.75 6.3125 7.75 6.3125 4 6 C1.5625 3.5625 1.5625 3.5625 0 1 C0 0.67 0 0.34 0 0 Z " fill="#FBCECC" transform="translate(621,176)"/>
<path d="M0 0 C0.99 0.33 1.98 0.66 3 1 C2.67 1.99 2.34 2.98 2 4 C1.67 4 1.34 4 1 4 C0.67 5.65 0.34 7.3 0 9 C-0.66 9 -1.32 9 -2 9 C-1.125 1.125 -1.125 1.125 0 0 Z " fill="#067AC4" transform="translate(229,156)"/>
<path d="M0 0 C-1.47540984 4.67213115 -1.47540984 4.67213115 -4 6.25 C-4.66 6.4975 -5.32 6.745 -6 7 C-6.99 7.495 -6.99 7.495 -8 8 C-5.18918919 0 -5.18918919 0 0 0 Z " fill="#3487BA" transform="translate(306,138)"/>
<path d="M0 0 C2.79872437 2.52788007 4.45773019 4.20411134 5 8 C4.01 8 3.02 8 2 8 C-0.1519437 4.77208445 -0.20086443 3.71599191 0 0 Z " fill="#3A87B8" transform="translate(169,127)"/>
<path d="M0 0 C0.66 0.66 1.32 1.32 2 2 C1.625 5.625 1.625 5.625 1 9 C0.01 9 -0.98 9 -2 9 C-1.34 6.03 -0.68 3.06 0 0 Z " fill="#3A88B8" transform="translate(292,155)"/>
<path d="M0 0 C1.32 1.65 2.64 3.3 4 5 C3.34 5.66 2.68 6.32 2 7 C1.01 7 0.02 7 -1 7 C-1.04254356 5.00045254 -1.04080783 2.99958364 -1 1 C-0.67 0.67 -0.34 0.34 0 0 Z " fill="#E4333C" transform="translate(674,150)"/>
<path d="M0 0 C0.99 0.33 1.98 0.66 3 1 C1.02 3.97 1.02 3.97 -1 7 C-2.32 6.34 -3.64 5.68 -5 5 C-3.35 3.35 -1.7 1.7 0 0 Z " fill="#D92E35" transform="translate(664,143)"/>
<path d="M0 0 C0.66 0.33 1.32 0.66 2 1 C1.34 3.64 0.68 6.28 0 9 C-0.66 9 -1.32 9 -2 9 C-2.33 9.66 -2.66 10.32 -3 11 C-2.69078116 9.54096742 -2.37751201 8.08279278 -2.0625 6.625 C-1.88847656 5.81289062 -1.71445312 5.00078125 -1.53515625 4.1640625 C-1 2 -1 2 0 0 Z " fill="#297FB6" transform="translate(406,196)"/>
<path d="M0 0 C4.75481646 0.57634139 7.97048212 2.55068521 12 5 C8.15941827 6.28019391 6.6601592 5.60131965 3 4 C1.125 1.875 1.125 1.875 0 0 Z " fill="#247DB8" transform="translate(369,125)"/>
<path d="M0 0 C3.375 -0.125 3.375 -0.125 7 0 C7.66 0.66 8.32 1.32 9 2 C5.37 2.66 1.74 3.32 -2 4 C-1.34 2.68 -0.68 1.36 0 0 Z " fill="#FCDAD8" transform="translate(590,83)"/>
<path d="M0 0 C0.66 0 1.32 0 2 0 C2 0.66 2 1.32 2 2 C3.65 2 5.3 2 7 2 C7 3.65 7 5.3 7 7 C3.17053157 5.54744301 1.87949705 3.57104439 0 0 Z " fill="#2A81B9" transform="translate(302,215)"/>
<path d="M0 0 C2.76223278 2.76223278 2.57856291 5.20706617 3 9 C0.20127563 6.47211993 -1.45773019 4.79588866 -2 1 C-1.34 0.67 -0.68 0.34 0 0 Z " fill="#2679AF" transform="translate(178,196)"/>
<path d="M0 0 C2.86724686 0.57344937 3.8614515 0.8614515 6 3 C5.625 5.125 5.625 5.125 5 7 C3.29115995 5.37660195 1.62553283 3.70680947 0 2 C0 1.34 0 0.68 0 0 Z " fill="#3382B3" transform="translate(396,141)"/>
<path d="M0 0 C2.875 0.25 2.875 0.25 6 1 C7.375 3.0625 7.375 3.0625 8 5 C7.01 5.99 6.02 6.98 5 8 C4.731875 7.05125 4.46375 6.1025 4.1875 5.125 C3.25013412 1.74732727 3.25013412 1.74732727 0 0 Z " fill="#3883B4" transform="translate(20,130)"/>
<path d="M0 0 C0.66 0 1.32 0 2 0 C1.67 2.64 1.34 5.28 1 8 C0.34 8 -0.32 8 -1 8 C-1.04241723 5.66705225 -1.04092937 3.33297433 -1 1 C-0.67 0.67 -0.34 0.34 0 0 Z " fill="#FDE4E2" transform="translate(558,120)"/>
<path d="M0 0 C5.875 2.75 5.875 2.75 7 5 C4.36 4.67 1.72 4.34 -1 4 C-0.67 2.68 -0.34 1.36 0 0 Z " fill="#FCD3D2" transform="translate(664,81)"/>
<path d="M0 0 C2.40072955 2.88087546 4.47291037 5.56404834 6 9 C2.83884224 7.63016497 2.0072908 7.0109362 0 4 C0 2.68 0 1.36 0 0 Z " fill="#D9454D" transform="translate(755,79)"/>
<path d="M0 0 C0.66 0 1.32 0 2 0 C1.60196439 2.88575819 1.20990931 3.82189513 -1.0625 5.75 C-1.701875 6.1625 -2.34125 6.575 -3 7 C-3.33 6.01 -3.66 5.02 -4 4 C-3.34 4 -2.68 4 -2 4 C-2 3.34 -2 2.68 -2 2 C-1.34 2 -0.68 2 0 2 C0 1.34 0 0.68 0 0 Z " fill="#D22027" transform="translate(659,81)"/>
<path d="M0 0 C0.99 0.33 1.98 0.66 3 1 C1.69593116 3.01920337 0.36176581 5.01924973 -1 7 C-1.33 7 -1.66 7 -2 7 C-2.125 4.625 -2.125 4.625 -2 2 C-1.34 1.34 -0.68 0.68 0 0 Z " fill="#D8343D" transform="translate(748,257)"/>
<path d="M0 0 C-0.99 1.485 -0.99 1.485 -2 3 C-4.625 3.1875 -4.625 3.1875 -7 3 C-7.33 2.34 -7.66 1.68 -8 1 C-5.29120665 -0.35439668 -2.99066732 -0.06501451 0 0 Z " fill="#157DBD" transform="translate(22,229)"/>
<path d="M0 0 C2.31 0 4.62 0 7 0 C7.33 0.66 7.66 1.32 8 2 C5.36 2.33 2.72 2.66 0 3 C0 2.01 0 1.02 0 0 Z " fill="#0579C1" transform="translate(227,228)"/>
<path d="M0 0 C0.99 0 1.98 0 3 0 C3 1.98 3 3.96 3 6 C2.01 6 1.02 6 0 6 C0 4.02 0 2.04 0 0 Z " fill="#E2EEF5" transform="translate(124,226)"/>
<path d="M0 0 C1.98 0.99 1.98 0.99 4 2 C3.34 3.32 2.68 4.64 2 6 C1.34 6 0.68 6 0 6 C0 4.02 0 2.04 0 0 Z " fill="#0A7AC3" transform="translate(212,189)"/>
<path d="M0 0 C0.33 0 0.66 0 1 0 C1.25532751 3.06393013 1.21861333 4.63233212 -0.375 7.3125 C-1.179375 8.1478125 -1.179375 8.1478125 -2 9 C-2.66 9 -3.32 9 -4 9 C-2.80100302 5.9168649 -1.52299523 2.93720508 0 0 Z " fill="#2F85BC" transform="translate(239,132)"/>
<path d="M0 0 C0.886875 0.103125 1.77375 0.20625 2.6875 0.3125 C2.6875 0.6425 2.6875 0.9725 2.6875 1.3125 C1.73875 1.580625 0.79 1.84875 -0.1875 2.125 C-3.56517273 3.06236588 -3.56517273 3.06236588 -5.3125 6.3125 C-6.3025 5.9825 -7.2925 5.6525 -8.3125 5.3125 C-4.12788462 0.38942308 -4.12788462 0.38942308 0 0 Z " fill="#FAC5C4" transform="translate(592.3125,81.6875)"/>
</svg>
