<?xml version="1.0" encoding="UTF-8"?>
<svg version="1.1" xmlns="http://www.w3.org/2000/svg" width="330" height="302">
<path d="M0 0 C108.9 0 217.8 0 330 0 C330 99.66 330 199.32 330 302 C221.1 302 112.2 302 0 302 C0 202.34 0 102.68 0 0 Z " fill="#B00B1C" transform="translate(0,0)"/>
<path d="M0 0 C7.54382769 -0.1017192 15.0874774 -0.17159975 22.63183594 -0.21972656 C25.1963563 -0.23979728 27.76083115 -0.26706001 30.32519531 -0.30175781 C34.01899471 -0.35047355 37.71218709 -0.37301513 41.40625 -0.390625 C43.1160907 -0.42159271 43.1160907 -0.42159271 44.86047363 -0.45318604 C52.60998671 -0.45535288 58.06952686 0.53193546 64.05859375 5.81640625 C64.51363281 6.39261719 64.96867187 6.96882813 65.4375 7.5625 C65.91058594 8.14128906 66.38367188 8.72007813 66.87109375 9.31640625 C69.84106258 13.74566772 69.62095127 18.89520292 69 24 C66.35298725 32.4481762 61.46663238 36.92955753 53.94140625 41.15625 C52 42 52 42 49 42 C49 42.66 49 43.32 49 44 C50.155 44.0825 51.31 44.165 52.5 44.25 C60.12516376 45.24692954 65.10424896 48.46524802 69.87109375 54.4140625 C73.62196907 59.68345828 72.5505541 67.76089948 72 74 C70.45842876 81.2156678 66.90807077 86.60251551 61 91 C54.56091369 94.87351286 48.7777528 97.13437397 41.2097168 97.11352539 C39.82885139 97.11341209 39.82885139 97.11341209 38.42008972 97.11329651 C36.94950859 97.10555458 36.94950859 97.10555458 35.44921875 97.09765625 C34.43527542 97.0962413 33.42133209 97.09482635 32.37666321 97.09336853 C29.14691179 97.08778328 25.91723038 97.07523345 22.6875 97.0625 C20.49414163 97.0574831 18.30078217 97.05292052 16.10742188 97.04882812 C10.73825747 97.03781868 5.36913374 97.0210952 0 97 C0 95.35 0 93.7 0 92 C2.97 91.505 2.97 91.505 6 91 C6 63.61 6 36.22 6 8 C4.02 7.34 2.04 6.68 0 6 C0 4.02 0 2.04 0 0 Z " fill="#FDCE01" transform="translate(150,36)"/>
<path d="M0 0 C0 2.31 0 4.62 0 7 C-5.50927993 7.67676821 -11.01872767 8.35214954 -16.52832031 9.02636719 C-18.39392441 9.25484769 -20.25948593 9.48367618 -22.125 9.71289062 C-24.84102841 10.04654067 -27.55719098 10.37906792 -30.2734375 10.7109375 C-31.62438507 10.87622955 -31.62438507 10.87622955 -33.00262451 11.04486084 C-38.11788267 11.66588664 -43.23543019 12.24764322 -48.35925293 12.79322815 C-54.81116616 13.48139862 -61.1934004 14.28416548 -67.56542969 15.53076172 C-69.99864583 15.999739 -72.43212476 16.38800834 -74.8828125 16.75390625 C-101.24807454 20.76960498 -127.4071654 26.72107541 -153.125 33.75 C-153.77975311 33.92832367 -154.43450623 34.10664734 -155.10910034 34.29037476 C-163.28786678 36.53204533 -171.34113149 39.06607205 -179.37011719 41.7878418 C-182.77679449 42.92546305 -186.19554239 43.99422373 -189.6328125 45.03515625 C-225.14331591 55.86364106 -261.51843908 70.39738529 -293.42358398 89.46191406 C-297.70826426 92 -297.70826426 92 -301 92 C-301 81.44 -301 70.88 -301 60 C-274.52982211 49.9595877 -274.52982211 49.9595877 -261.58203125 45.82617188 C-259.73131006 45.23399709 -257.88256889 44.63562029 -256.03515625 44.03320312 C-188.85828506 22.17018505 -117.95277274 8.55900636 -47.53564453 3.20605469 C-44.00849074 2.91942675 -40.48972545 2.56120731 -36.96899414 2.20532227 C-24.69031438 0.96741107 -12.34819738 0 0 0 Z " fill="#FDD001" transform="translate(316,151)"/>
<path d="M0 0 C0.04254356 1.99954746 0.04080783 4.00041636 0 6 C-1.79110818 7.79110818 -4.51387536 7.47290465 -6.9453125 7.7265625 C-8.87141357 7.93768677 -8.87141357 7.93768677 -10.83642578 8.15307617 C-11.53221741 8.22899994 -12.22800903 8.30492371 -12.94488525 8.38314819 C-52.51202091 12.77254249 -92.39707051 20.50311857 -130.46777344 32.22558594 C-133.29794532 33.09111864 -136.13674919 33.92447697 -138.9765625 34.7578125 C-193.11337257 50.81446302 -245.6398554 73.98620173 -291.92724609 106.52368164 C-294.87435589 108.58914748 -297.75807743 110.44306746 -301 112 C-301.38118112 108.50305794 -301.60923077 105.01142007 -301.8125 101.5 C-301.92142578 100.51773438 -302.03035156 99.53546875 -302.14257812 98.5234375 C-302.28350274 95.2713311 -302.15616458 93.05423373 -301 90 C-297.62243532 86.93036429 -293.89691705 84.9022831 -289.83407593 82.90594482 C-286.97550529 81.49394915 -284.20190322 79.92656173 -281.40625 78.39453125 C-279.10829263 77.19259927 -276.80603774 75.99885513 -274.5 74.8125 C-273.88327423 74.49462524 -273.26654846 74.17675049 -272.63113403 73.84924316 C-231.58953969 52.75091555 -188.17705479 36.57369854 -143.60742188 24.70410156 C-141.20385903 24.05504957 -138.81195155 23.3765304 -136.421875 22.6796875 C-94.09835892 10.37850535 -44.32752279 -0.54725337 0 0 Z " fill="#FCF8F9" transform="translate(316,166)"/>
<path d="M0 0 C1.43786865 -0.00193359 1.43786865 -0.00193359 2.90478516 -0.00390625 C11.37471032 0.12075564 18.40134703 1.75095005 26.4375 4.375 C25.7775 11.965 25.1175 19.555 24.4375 27.375 C22.4575 27.375 20.4775 27.375 18.4375 27.375 C17.23181947 22.70298795 17.34367574 18.16003708 17.4375 13.375 C16.3546875 12.941875 16.3546875 12.941875 15.25 12.5 C13.54287301 11.8171492 11.8477367 11.10154574 10.1796875 10.328125 C2.43224432 7.6352815 -7.01117823 8.53213789 -14.37890625 11.9921875 C-22.27747785 16.99414518 -25.81093175 24.79192471 -28.14453125 33.5625 C-30.32907257 48.2622173 -29.71036259 65.75527557 -21.625 78.625 C-19.23932558 81.75248861 -16.92038356 84.26656149 -13.5625 86.375 C-12.985 86.74496094 -12.4075 87.11492187 -11.8125 87.49609375 C-3.75875477 91.904299 6.31284315 91.71743728 15.03125 89.43359375 C17.06682326 88.72460161 19.08739911 87.96945512 21.08203125 87.15234375 C23.4375 86.375 23.4375 86.375 26.4375 87.375 C25.11595688 91.33962935 23.73473477 93.77191992 20.4375 96.375 C8.57056974 101.97260861 -6.30584446 102.07739957 -18.78515625 98.4140625 C-30.10675572 94.17841488 -39.29282014 87.46138531 -44.5625 76.375 C-50.45516956 60.1850392 -52.57480929 42.56229341 -45.5625 26.375 C-39.93971634 14.39453998 -30.75021607 7.21310726 -18.5625 2.375 C-12.30239894 0.45084262 -6.53257463 -0.00912849 0 0 Z " fill="#FDCF01" transform="translate(278.5625,34.625)"/>
<path d="M0 0 C1.04068391 3.12205172 0.99162646 4.66950789 0.66015625 7.88671875 C0.5199707 9.2934082 0.5199707 9.2934082 0.37695312 10.72851562 C0.27318359 11.70498047 0.16941406 12.68144531 0.0625 13.6875 C-0.08735352 15.16959961 -0.08735352 15.16959961 -0.24023438 16.68164062 C-0.4877804 19.12173718 -0.74125362 21.56106991 -1 24 C-3.31 24 -5.62 24 -8 24 C-8.00257812 23.10796875 -8.00515625 22.2159375 -8.0078125 21.296875 C-7.97128405 13.98481412 -7.97128405 13.98481412 -11.875 8.25 C-19.49995789 5.20001684 -28.52475697 4.7014907 -36.5859375 6.61328125 C-44.36152994 10.1015411 -49.11625411 17.28972734 -52.2734375 24.921875 C-57.01031209 38.47035501 -55.33051945 57.38694665 -49.96875 70.52734375 C-46.49773212 77.57491721 -41.33906641 82.11798075 -34.5625 85.9375 C-26.22104015 88.58033876 -15.23018459 88.37924318 -7.1875 84.9375 C-6.45917969 84.55464844 -5.73085937 84.17179687 -4.98046875 83.77734375 C-2.57309613 82.83243813 -1.39479644 83.14433116 1 84 C-0.01271721 87.51472443 -0.65481878 89.27737545 -3 92 C-14.68655342 98.38966103 -28.58811458 98.6209547 -41.375 95.875 C-53.69586318 92.24625263 -63.05278656 85.6026417 -69.375 74.375 C-76.30494558 60.74047293 -77.5648452 42.61097274 -73.4375 27.8125 C-68.61477787 14.73192384 -59.50926492 6.05707731 -47.0625 0.22265625 C-31.92003773 -5.82274004 -15.49887444 -2.98260127 0 0 Z " fill="#FDCF01" transform="translate(101,38)"/>
<path d="M0 0 C11.55 0 23.1 0 35 0 C35 1.65 35 3.3 35 5 C32.69 5.99 30.38 6.98 28 8 C27.9768637 18.52654238 27.95907832 29.05307875 27.94818783 39.57964134 C27.94296183 44.46716584 27.93586929 49.35467299 27.92456055 54.2421875 C27.91372165 58.95596106 27.90772103 63.6697179 27.90512276 68.38350296 C27.90327032 70.1848947 27.89965317 71.98628549 27.89426994 73.78767014 C27.88704624 76.30426791 27.88600963 78.82079593 27.88647461 81.33740234 C27.88287933 82.08762161 27.87928406 82.83784088 27.87557983 83.61079407 C27.81575895 87.4318316 27.81575895 87.4318316 29 91 C31.52733235 91.65555119 31.52733235 91.65555119 34 92 C34 93.65 34 95.3 34 97 C22.78 97 11.56 97 0 97 C0 95.35 0 93.7 0 92 C0.969375 91.690625 1.93875 91.38125 2.9375 91.0625 C5.84065792 90.30476658 5.84065792 90.30476658 7 89 C7.11627797 86.52135636 7.16798799 84.07018493 7.17700195 81.59033203 C7.18685875 80.42691284 7.18685875 80.42691284 7.19691467 79.23999023 C7.21669308 76.66259679 7.22831974 74.08526171 7.23828125 71.5078125 C7.24235678 70.62986904 7.2464323 69.75192558 7.25063133 68.84737778 C7.27151058 64.20147688 7.28580474 59.55560568 7.29516602 54.90966797 C7.30623983 50.10180237 7.3406454 45.29439842 7.38033772 40.48669624 C7.40643596 36.7978731 7.41485173 33.10916111 7.41844749 29.42025375 C7.42333039 27.64757033 7.43499251 25.87489242 7.45348549 24.10229874 C7.47773555 21.62397544 7.47693845 19.14686169 7.4699707 16.66845703 C7.48918579 15.56490372 7.48918579 15.56490372 7.50878906 14.4390564 C7.47551973 11.20109904 7.45257587 9.47098125 5.15812683 7.08322144 C2.91076005 5.89083898 2.91076005 5.89083898 0 5 C0 3.35 0 1.7 0 0 Z " fill="#FCCE01" transform="translate(108,36)"/>
<path d="M0 0 C1.89560325 -0.04591623 3.79153319 -0.07845294 5.6875 -0.10546875 C6.74324219 -0.12504639 7.79898438 -0.14462402 8.88671875 -0.16479492 C14.80135052 0.14828353 19.28127459 2.28127459 23.4375 6.4375 C27.80843666 13.60583612 28.16972159 21.27019191 26.5 29.44921875 C24.5024069 35.40794817 21.2103599 38.71799126 15.875 41.8125 C11.14386143 43.66518037 5.99599445 43.44946663 1 43 C0 42 0 42 -0.11352539 38.03100586 C-0.1133662 36.25894393 -0.10766785 34.4868774 -0.09765625 32.71484375 C-0.0962413 31.78402481 -0.09482635 30.85320587 -0.09336853 29.8941803 C-0.08775172 26.90858809 -0.0751964 23.92306971 -0.0625 20.9375 C-0.05748716 18.91862087 -0.05292388 16.89974057 -0.04882812 14.88085938 C-0.03777683 9.92054428 -0.02050095 4.96028468 0 0 Z " fill="#B00D1B" transform="translate(176,84)"/>
<path d="M0 0 C6.30234853 0.06539402 10.38894415 1.09105676 15.25 5.3125 C19.29298935 10.1329873 18.27654039 16.25609715 17.875 22.25 C16.28074263 27.03277212 14.11985007 29.54873177 9.875 32.25 C5.85899935 33.79461563 2.39855658 34.34366546 -1.859375 34.296875 C-2.66084961 34.29010742 -3.46232422 34.28333984 -4.28808594 34.27636719 C-4.89426758 34.26766602 -5.50044922 34.25896484 -6.125 34.25 C-6.14965288 29.56860746 -6.16783739 24.88725241 -6.17993164 20.20581055 C-6.18497157 18.61205386 -6.1918035 17.01830181 -6.20043945 15.42456055 C-6.21251999 13.13849747 -6.21823155 10.85249533 -6.22265625 8.56640625 C-6.22781754 7.84973282 -6.23297882 7.13305939 -6.23829651 6.39466858 C-6.23849263 4.67936328 -6.18692007 2.96418734 -6.125 1.25 C-4.42830868 -0.44669132 -2.31857491 0.03790586 0 0 Z " fill="#B10F1B" transform="translate(182.125,42.75)"/>
</svg>
