<svg xmlns="http://www.w3.org/2000/svg" width="3840" height="2160"><path fill="#03477E" d="M1082 1192c-3-23-21-36-47-36-39 0-54 34-54 69 0 34 15 69 54 69 28 0 44-16 47-43h60c-3 60-47 95-106 95-70 0-116-53-116-121 0-67 45-121 116-121 50 0 104 32 106 88h-60zm182-83l40 154h1l40-154h89v232h-57v-176h-1l-49 176h-46l-49-176h-1v176h-57v-232h89zm211 0h61v180h108v52h-168v-232zm245 154c1 27 18 36 44 36 18 0 37-6 37-24 0-20-33-24-66-34-33-9-68-24-68-67 0-51 51-70 94-70 46 0 93 22 93 75h-60c1-21-19-28-37-28-13 0-29 5-29 20 0 18 33 21 67 30 33 9 67 25 67 67 0 59-50 77-101 77-53 0-100-23-101-83h60zm427-11h-96v89h-60v-232h171v48h-110v47h96v47zm42-80h55v168h-55v-168zm55-21h-55v-42h55v42zm38 21h54v23c10-17 34-28 54-28 56 0 61 41 61 65v108h-55v-81c0-23 3-47-28-46-21 0-30 17-30 36v92h-56v-168zm274 139c26 0 35-15 34-50-8 5-22 6-34 9s-23 8-23 22c0 20 23 19 23 19zm-72-87c1-22 11-36 26-45 15-8 34-12 54-12 40 0 78 9 78 56v74c0 14 0 30 7 43h-56c-2-5-3-10-3-16a75 75 0 01-55 21c-32 0-58-16-58-51 0-55 60-51 98-58 9-2 15-5 15-16 0-13-15-17-27-17-15 0-25 7-28 21h-52zm509 10c0-14-13-24-27-24-31 0-36 26-36 50 0 22 9 44 33 44 19 0 29-11 31-29h54c-5 45-40 71-85 71-51 0-88-35-88-86 0-54 34-92 88-92 42 0 79 22 83 66h-54zm85-62h55v168h-55v-168zm55-21h-55v-42h55v42zm233-42h55v232h-55v-232zm117 30h6c5 0 10 0 10-6 0-5-4-6-8-6h-8v12zm-6-17h15c9 0 14 4 14 11s-4 10-10 11l11 17h-6l-11-17h-6v17h-6v-39zm13 48c15 0 27-12 27-28s-12-28-27-28-27 12-27 28 12 28 27 28zm0-61c18 0 33 14 33 33s-15 33-33 33-33-14-33-33 15-33 33-33zm-249 203c26 0 35-15 34-50-8 5-22 6-34 9s-23 8-23 22c0 20 23 19 23 19zm-72-87c1-22 11-36 26-45 15-8 34-12 54-12 40 0 78 9 78 56v74c0 14 0 30 7 43h-56c-2-5-3-10-3-16a75 75 0 01-55 21c-32 0-58-16-58-51 0-55 60-51 98-58 9-2 15-5 15-16 0-13-15-17-27-17-15 0-25 7-28 21h-52zm-490-52h54v23c10-17 34-28 54-28 56 0 61 41 61 65v108h-55v-81c0-23 3-47-28-46-21 0-30 17-30 36v92h-56v-168z"/><path fill="#A7A8AC" d="M476 1479l96-811-183 137v674h88zm285-41l29-79-182-124 47-37-20-92 83 19 29-52 75 82-26-195 69 39 48-126-296-318-109 921h405v-41H761z"/></svg>