<svg xmlns="http://www.w3.org/2000/svg" width="3840" height="2160"><path fill="#F47B20" d="M1601 1245h58v-63c31 0 26 2 43 26l25 37h65c-3-9-41-64-49-71 34-19 44-37 44-70-1-34-25-68-86-68h-100v209zm58-109v-50c29 0 66-5 68 23 2 33-38 27-68 27zm265 60c-34 0-38-27-38-59v-101h-60v111c-2 59 21 103 97 102 76 0 99-43 97-102v-111h-60v101c0 32-3 59-38 59zm-545-109h62v158h59v-158h61v-51h-182v51zm888 0h62v158h59v-158h61v-51h-182v51zm-181 87l-32 39c23 22 60 35 93 35 84 1 90-51 90-69 0-19-11-37-26-47-17-11-46-17-66-22-29-6-28-29-3-31 23-1 51 17 60 21l29-41c-26-22-71-33-107-26-60 10-82 78-39 111 17 15 56 20 78 28 9 3 14 9 14 14 0 14-25 14-34 12-21-3-41-12-57-25zm-1014 38c71 1 140-3 176-14-539-11-753-245-831-410 9 59 37 123 79 183 137 186 356 238 576 241z"/><path d="M900 1451c-78 30-212 51-264-30-41-63-19-168 29-259-30-14-58-32-81-55-42 64-95 157-72 259 39 166 269 153 393 103 98-40 187-111 263-185 8-8 1-23-12-11a867 867 0 01-256 178zm360-822h16v903h-16V629zm-544 454c122-167 348-331 539-363-174-14-492 165-617 318 24 16 50 31 78 45zm1972-136h25V781l133 166h21V740h-25v162l-128-162h-26v207zm-243-95c0 61 26 99 88 99 64 0 89-40 89-99V740h-25v125c-3 40-22 64-64 64-41 1-61-25-63-64V740h-25v112zm580-90h70v185h25V762h70v-22h-164v22zm-1124-22v207h25V781l76 112 76-112v166h25V740h-26l-74 112-74-112h-26zm273 0v207h25V781l76 112 76-112v166h25V740h-26l-74 112-74-112h-26zm-442 19c46 0 84 38 84 85a84 84 0 11-168 0c0-47 37-85 84-85zm0-23c-59 0-107 48-107 108s48 108 107 108 107-48 107-108-48-108-107-108zm-342 108a107 107 0 00189 70l-18-15a83 83 0 01-64 30c-46 0-84-38-84-85s37-85 84-85c24 0 46 10 61 27l17-16a107 107 0 00-185 74zm1550 103h25V740h-25v207zm373 0v-82l-86-125h30l69 100 69-100h30l-86 125v82h-25zm-1888 548h11l13-31h59l13 31h12l-46-117h-13l-48 117zm79-41h-51l25-65 25 65zm145 41h11v-126h-11v126zm-47 0h11v-76h19v-9h-19v-7c0-10-1-26 13-26l8 2 1-9-10-2c-22 0-23 18-23 36v6h-17v9h17v76zm143-13c-5 3-16 6-24 6-18 0-28-15-28-33h59v-5c0-23-10-42-34-42-22 0-36 19-36 45s11 45 39 45c8 0 17-2 25-5v-11zm-52-35c0-14 10-30 25-30 16 0 22 15 22 30h-47zm67 49h12l24-37 22 37h13l-29-45 26-40h-12l-21 32-20-32h-13l27 40-30 45zm86 0h11v-85h-11v85zm11-122h-11v14h11v-14zm26 122h11v-14c6 11 14 16 27 16 23 0 35-19 35-45s-10-45-35-45c-17 0-25 12-27 16v-55h-11v126zm61-43c0 17-5 36-25 36-19 0-25-20-25-36s6-36 25-36c20 0 25 19 25 36zm33 43h11v-126h-11v126zm95-13c-5 3-16 6-24 6-18 0-28-15-28-33h59v-5c0-23-10-42-34-42-22 0-36 19-36 45s11 45 39 45c8 0 17-2 25-5v-11zm-52-35c0-14 10-30 25-30 16 0 22 15 22 30h-47zm174 49h10l-1-18v-38c0-22-9-32-30-32-8 0-19 3-25 6v10c8-5 16-7 25-7 14 0 19 7 19 22v4h-2c-22 0-53 1-53 30 0 8 4 24 28 24 11 0 22-6 27-16v14zm-1-38c0 9 0 31-25 31-10 0-18-4-18-15 0-19 22-21 40-21h3v5zm36 38h11v-126h-11v126zm74-85h-19v-24l-11 4v21h-17v9h17v50c0 16 1 28 19 28l13-2-1-9-10 2c-9 0-11-6-11-14v-55h19v-9zm76 72c-5 3-16 6-24 6-18 0-28-15-28-33h59v-5c0-23-10-42-34-42-22 0-36 19-36 45s11 45 39 45c8 0 17-2 25-5v-11zm-52-35c0-14 10-30 25-30 16 0 22 15 22 30h-47zm79 49h11v-42c0-15 5-34 21-34l8 1v-11l-7-1c-11 0-18 9-22 18v-16h-11l1 19v66zm59 0h11v-47c0-14 6-31 25-31 15 0 20 10 20 26v52h11v-55c0-19-8-33-29-33-18 0-24 10-28 17v-15h-10l1 20v65zm142 0h10l-1-18v-38c0-22-9-32-30-32-8 0-19 3-25 6v10c8-5 16-7 25-7 14 0 19 7 19 22v4h-2c-22 0-53 1-53 30 0 8 4 24 28 24 11 0 22-6 27-16v14zm-1-38c0 9 0 31-25 31-10 0-18-4-18-15 0-19 22-21 40-21h3v5zm73-48h-19v-24l-11 4v21h-17v9h17v50c0 16 1 28 19 28l13-2-1-9-10 2c-9 0-11-6-11-14v-55h19v-9zm19 85h11v-85h-11v85zm11-122h-11v14h11v-14zm86 37h-11l-25 74-24-74h-12l29 85h12l30-85zm72 72c-5 3-16 6-24 6-18 0-28-15-28-33h59v-5c0-23-10-42-34-42-22 0-36 19-36 45s11 45 39 45c8 0 17-2 25-5v-11zm-52-35c0-14 10-30 25-30 16 0 22 15 22 30h-47z"/></svg>