<svg xmlns="http://www.w3.org/2000/svg" width="3840" height="2160"><path fill="#00A7BA" d="M1126 1708c0 43 32 68 66 68s67-25 67-68-32-68-67-68c-34 0-66 25-66 68zm66 47c-22 0-44-16-44-47 0-32 22-47 44-47s44 16 44 47c0 32-22 47-44 47zm123-55c-14 0-24 11-24 28s10 28 24 28 24-11 24-28-10-28-24-28zm-45 108v-125h21v12c4-8 15-14 29-14 27 0 42 20 42 47s-16 47-42 47c-13 0-23-6-27-12v45h-21zm134-125h19v19h-19v42c0 8 4 11 11 11l7-1v18c-1 1-5 2-13 2-17 0-27-10-27-27v-45h-17v-19h5c10 0 14-6 14-14v-13h19v27zm36 90v-90h21v90h-21zm11-135c8 0 14 6 14 14s-6 14-14 14-14-6-14-14 6-14 14-14zm32 135v-90h20v11c5-9 16-14 27-14 12 0 22 5 27 16 7-12 18-16 29-16 16 0 32 10 32 34v58h-21v-55c0-11-5-18-17-18-11 0-19 9-19 20v53h-21v-55c0-10-5-18-17-18-11 0-19 8-19 20v53h-21zm232 0h-20l-1-10c-4 8-15 13-25 13-21 0-34-16-34-36v-57h21v53c0 11 5 20 18 20 12 0 19-8 19-20v-53h21v73l1 16zm17 0v-90h20v11c5-9 16-14 27-14 12 0 22 5 27 16 7-12 18-16 29-16 16 0 32 10 32 34v58h-21v-55c0-11-5-18-17-18-11 0-19 9-19 20v53h-21v-55c0-10-5-18-17-18-11 0-19 8-19 20v53h-21zm327 0v-96l-41 96h-19l-40-96v96h-22v-131h30l42 100 42-100h30v131h-22zm108-45c0-19-12-28-25-28s-25 10-25 28c0 19 12 29 25 29s25-10 25-29zm22 0c0 28-20 48-47 48s-46-20-46-48c0-27 20-48 46-48 27 0 47 20 47 48zm64-24c-19-3-31 5-31 26v43h-21v-90h21v14c5-12 19-17 32-15v22zm46-21h19v19h-19v42c0 8 4 11 11 11l7-1v18c-1 1-5 2-13 2-17 0-27-10-27-27v-45h-17v-19h5c10 0 14-6 14-14v-13h19v27zm95 42c0-15-10-25-23-25-14 0-23 10-23 25 0 16 9 25 23 25s23-10 23-25zm0-31v-11h21v81c0 24-12 46-46 46-24 0-40-15-43-33l20-5c1 11 10 19 23 19 17 0 25-9 25-27v-9c-4 7-13 13-26 13-24 0-42-18-42-44 0-24 17-44 42-44 14 0 23 6 27 13zm94 41v-4l-23 4c-7 1-12 5-12 12 0 6 5 12 13 12 12 0 22-6 22-23zm-55-26c2-15 16-29 38-29 28 0 38 16 38 34v45l1 14h-20l-1-11c-4 7-13 14-28 14-19 0-30-13-30-27 0-16 12-25 27-27l23-4c5-1 7-3 7-6 0-8-5-14-17-14-11 0-18 7-18 16l-20-4zm158 16c0-15-10-25-23-25-14 0-23 10-23 25 0 16 9 25 23 25s23-10 23-25zm0-31v-11h21v81c0 24-12 46-46 46-24 0-40-15-43-33l20-5c1 11 10 19 23 19 17 0 25-9 25-27v-9c-4 7-13 13-26 13-24 0-41-18-41-44 0-24 17-44 41-44 14 0 23 6 27 13zm122 53l-18-6c-3 9-10 16-23 16s-24-10-25-23h66v-11c-1-26-17-43-44-43-23 0-44 19-44 47 0 30 22 48 46 48 22 0 36-13 41-28zm-20-29h-44c1-10 8-20 22-20 15 0 22 9 22 20zM1518 486l183 453h151l57-156c5-15 26-15 32 0l57 156h151l183-453h-815zm809 796h62c23 0 38-13 38-33 0-10-4-33-39-33h-62v66zm0 151h69c26 0 41-14 41-36s-16-36-41-36h-69v73zm-87 72v-361h173c65 0 109 39 109 97 0 27-12 52-32 67l-13 10 14 8c26 15 42 44 42 77 0 60-45 102-109 102h-183zm-141-361l-53 211-68-211h-95l-68 211-54-211h-97l98 361h97l71-221 71 221h95l98-361h-94zm-789 181c0-105 82-192 188-193 55 0 106 24 142 66l-68 58c-19-21-46-33-74-33-56 0-100 47-100 102 0 56 45 102 100 102 28 0 55-12 74-34l68 58c-36 42-87 66-141 66-105 0-189-87-189-192z"/><path fill="#E7B92C" d="M1790 726l87-189c16-44 78-44 95 0l87 189c6 14 26 14 31 0l100-239c-12 0-21-1-27-13-4-8-2-66-2-78 0-2-2-4-5-3-12 5-49 24-57 25-18 1-25-25-30-38-1-2-4-3-6-1l-30 41c-11 13-31 7-31-10v-86c0-3-3-4-5-2-12 11-27 15-38-1l-33-43c-1-2-4-2-5 0l-33 43c-11 16-25 12-38 1-2-2-5 0-5 2v86c0 17-20 23-31 10l-30-41c-2-2-5-2-6 1-5 14-12 40-30 38-8-1-46-20-57-25-2-1-5 1-5 3 0 12 2 71-2 78-4 9-13 13-26 13l99 239c6 14 26 14 31 0z"/></svg>