<svg xmlns="http://www.w3.org/2000/svg" width="3840" height="2160"><path fill="#06A" d="M832 1163h363l18-18H832v18zm0 27h337l17-18H832v18zm253-54h128v-121l-128-124H832v17h253v10H832v17h253v9H832v17h253v10H832v17h253v9H832v18h253v121zm-253 80h308l18-17H832v17zm0 27h281l18-18H832v18zm0 27h254l19-19-273 1v18zm521 0V890h171c125 0 202 57 202 182 0 143-81 198-206 198h-167zm155-89c59 0 91-30 91-102 0-79-26-100-94-100h-24v202h27zm264-291h127v227c0 38 8 70 60 70 46 0 59-29 59-70V890h127v215c0 122-57 175-186 175-120 0-187-45-187-176V890zm687 145c-4-40-29-62-69-62-45 0-72 37-72 111 0 53 12 103 77 103 40 0 60-27 65-64h122c-11 98-83 157-185 157-128 0-206-77-206-201 0-123 85-199 194-199 118 0 184 57 195 155h-121zm142 235l139-380h129l139 380h-126l-15-50h-127l-14 50h-125zm202-266l-39 137h80l-41-137z"/></svg>