<svg xmlns="http://www.w3.org/2000/svg" width="3840" height="2160"><path fill="#AAA" d="M1752 257h307c147 0 267 120 267 267v307c0 147-120 267-267 267h-307a268 268 0 01-267-267V524c0-147 120-267 267-267zm-400 1587c-7 7-19 15-29 15-12 0-6-16-4-23l13-39c1-2 4-10-1-10-6 0-12 11-16 16-2 3-4 2-2-2 9-18 42-39 30-4l-14 41c-9 30 23 1 30-7 12-14 20-29 26-46 2-6 1-7 7-7s7 0 5 6l-17 54c-7 24 15 2 19-6 2-3 5-3 3 1-5 10-20 25-31 25-9 0-3-17-2-21l8-24c-8 12-14 21-24 30zm1164-62c-17 0-27 16-32 31-4 14-6 42 15 42 19 0 32-27 34-42 2-13 2-31-16-31zm-18 77c-23 0-33-26-27-46 6-19 24-35 44-35 19 0 31 17 30 35-1 23-25 46-47 46zm-240-77c-17 0-27 16-32 31-4 14-6 42 15 42 19 0 32-27 34-42 2-13 2-31-16-31zm-18 77c-23 0-33-26-27-46 6-19 24-35 44-35 19 0 31 17 30 35-1 23-25 46-47 46zm-480-77c-17 0-27 16-32 31-4 14-6 42 15 42 19 0 32-27 34-42 2-13 2-31-16-31zm-18 77c-23 0-33-26-27-46 6-19 24-35 44-35 19 0 31 17 30 35-1 23-25 46-47 46zm-529-63c-7 25-4 59 29 59 25 0 38-21 45-42 9-25 7-61-28-61-25 0-39 22-46 44zm29 63c-28 0-47-21-47-48 0-34 30-64 64-64 27 0 47 21 47 47 0 34-29 65-64 65zm1205-53l33-38c2-2 7-7 7-11s-8-2-10-3-3-5 1-4h27c3 0 4 4-1 4-7 0-9 3-14 9l-42 48-10 32c-4 12 2 9 10 11 3 0 3 4-1 4h-39c-3 0-2-4 1-4 12 0 13-2 17-14l9-30-15-44c-2-7-4-11-12-11-5-1-3-4 0-4h35c3 0 4 4-2 4-11 1-12 1-8 11l13 40zm-283 48c4 0 4 4 0 4h-38c-6 0-4-5 1-4 12-1 11-2 15-14l24-81c2-6-7-5-11-5s-4-4 0-4l74 1c4 0 2 4 1 6l-5 15c-1 4-5 4-5-2-1-15-9-16-23-16h-9c-8 0-8 0-10 8l-11 37h19c12 0 15-1 20-12 1-3 5-3 4 2l-9 31c-1 6-5 4-5 1 0-12 4-17-13-17h-18l-11 35c-3 11-5 14 8 15zm-126 5c-5 0-24-4-24-11 0-2 3-12 5-12 5 0 8 19 23 19 7 0 15-6 15-13 0-15-27-24-27-40 0-15 14-23 28-23 3 0 21 1 21 7 0 2-2 10-4 10s-4-3-5-4c-5-5-9-9-17-9-7 0-12 5-12 11 0 14 28 24 28 42 0 14-18 23-30 23zm-43-23c-3 8-6 17 7 17 6 0 5 4 0 4h-38c-5 0-3-5 1-4 11 1 12-5 15-14l24-81c2-6-8-5-12-5-3 0-4-5 1-4h38c4 0 4 4 0 4-11 1-12 3-15 13l-21 69zm-106 13c5 0 13-11 16-16s4-2 3 2c-4 8-18 24-27 24-10 0-5-18-3-24l16-50h-11c-4 0-3-4 1-4h12l6-18c1-2 4-2 6-2 5 0 6 0 5 3l-5 17h14c4 0 3 4 0 5h-15l-15 50c-1 3-5 14 0 14zm-300 47c-7 0-16-3-16-11 0-9 16-11 15 3 0 10 9 4 12-1 4-7 9-21 11-29l22-72h-11c-4 0-3-4 1-4h12c5-19 17-44 40-44 16 0 16 17 5 17s-4-13-12-13c-3 0-7 3-8 5-6 7-10 24-14 34h14c4 0 3 4-1 4h-15l-22 71c-5 17-13 40-34 40zm-36-94l-8 27c-4 14-11 24 9 24 8 0 21-1 29-4 6-3 11-9 13-15 2-4 6-5 4 2l-4 14c-1 5-2 6-7 6-26 0-50-1-76 1-6 0-6-4 0-4 11 0 12-4 15-14l22-72c3-8 4-13-7-13-5 0-4-4 0-4h70c4 1 2 3 1 6l-5 15c-1 4-5 4-5-1 0-14-5-17-18-17h-11c-8 0-8 0-10 8l-11 37h18c12 0 15-1 21-12 3-6 8-5 5 0-4 9-8 21-9 30-1 6-5 5-5-2 1-13 0-13-13-13h-17zm-122 22c6-11 23-46 38-46 5 0 9 3 9 9 0 5-3 10-8 10-9 0-4-8-8-8-9 0-34 50-38 60-2 6-1 8-8 8s-5-2-4-7l15-49c1-2 4-14 0-14s-12 10-14 14c-3 5-5 2-3-1 4-7 17-21 25-21 10 0 6 16 4 22l-7 24zm214 72c-7 0-15-3-15-11 0-9 16-11 15 3 0 10 9 4 12-1 4-7 9-21 11-29l22-72h-11c-4 0-3-4 1-4h12c5-19 17-44 40-44 16 0 16 17 5 17s-4-13-12-13c-3 0-7 3-8 5-6 7-10 24-14 34h14c4 0 3 4-1 4h-15l-22 71c-5 17-13 40-34 40zm178-72c6-11 23-46 38-46 5 0 9 3 9 9 0 5-3 10-8 10-9 0-4-8-8-8-9 0-34 50-38 60-2 6-1 8-8 8s-5-2-4-7l15-49c1-2 4-14 0-14s-12 10-14 14c-3 5-5 2-3-1 4-7 17-21 25-21 10 0 6 16 4 22l-7 24zm495 0c6-11 23-46 38-46 5 0 9 3 9 9 0 5-3 10-8 10-9 0-4-8-8-8-9 0-34 50-38 60-2 6-1 8-8 8s-5-2-4-7l15-49c1-2 4-14 0-14s-12 10-14 14c-3 5-5 2-3-1 4-7 17-21 25-21 10 0 6 16 4 22l-7 24zm274 19c-7 7-19 15-29 15-12 0-6-16-4-23l13-39c1-2 4-10-1-10-6 0-12 11-16 16-2 3-4 2-2-2 9-18 42-39 30-4l-14 41c-9 30 23 1 30-7 12-14 20-29 26-46 2-6 1-7 7-7s7 0 5 6l-17 54c-7 24 15 2 19-6 2-3 5-3 3 1-5 10-20 25-31 25-9 0-3-17-2-21l8-24c-8 12-14 21-24 30z"/><path fill="#FFF" d="M2059 1063h-307a231 231 0 01-231-231V525c0-127 103-231 231-231h307c127 0 231 103 231 231v307c0 127-103 231-231 231z"/><path fill="#009" d="M2078 724c-25 0-46 21-46 46v154h-123V740h-123v184h-123V524c0-51 41-92 92-92h307c51 0 92 41 92 92v307c0 17 14 31 31 31v61c-51 0-92-41-92-92V723h-15zm-15-221c-11 0-21 9-21 21 0 11 9 21 21 21 11 0 21-9 21-21 0-11-9-21-21-21zm-572 1051h830v18h-830v-18z"/><path d="M2724 1390c4 17 9 28 34 40 25 11 83 26 83-25 0-62-114-35-114-113 0-36 30-62 73-62 18 0 50 8 58 2l6 1c-2 16-1 36-1 51h-7c-10-55-100-62-100-7 0 58 116 34 116 114 0 23-13 61-80 61-36 0-58-11-58-3h-9c-1-19-3-30-10-58l8-2zm-256-150v-8h93l2 8-6 1c-28 5-30 5-30 94 0 61 5 77 19 89 29 23 93 18 108-19 8-20 10-60 10-103 0-57-7-57-30-59l-1-10h72v10c-26 1-23 5-23 59 0 30-4 92-15 116-15 32-61 36-87 36-33 0-87-8-87-69 0-35 2-69 1-104-1-37-5-37-25-39zm-685 204c6-1 32-8 34-13 7-11 5-166 1-182l-33-1c-44 0-38 6-44 21l-9-2c9-22 12-33 14-40 12 0 2 2 20 4 20 3 153 2 174 0 5 0 6-1 8-2l5 3c-3 8-8 22-10 37l-11 2 1-13c-14-11-60-10-74-8-1 30-3 90-3 150 0 49 8 38 36 44l-1 8h-108l-3-8zm1138 0c6-1 32-8 34-13 7-11 5-166 1-182l-33-1c-44 0-38 6-44 21l-9-2c9-22 12-33 14-40h6c10 10 170 6 188 5 5 0 6-1 8-2l5 3c-3 8-8 22-10 37l-11 2 1-13c-14-11-60-10-74-8-1 30-3 90-3 150 0 49 8 38 36 44l-1 8h-108l-3-8zm-835 0c6-1 32-8 34-13 7-11 5-166 1-182l-33-1c-44 0-47 6-53 21l-9-2c9-22 12-33 14-40h6c8 8 82 6 98 6s99 1 106-4l5 3c-3 8-8 22-10 37l-11 2 1-13c-14-11-60-10-74-8-1 30-3 90-3 150 0 49 8 38 36 44l-1 8h-108l-3-8zm264-109c17 0 51-2 51-45 0-13-6-52-49-52-18 0-18 5-19 27l-1 68 18 2zm-81 109c15-5 22-7 24-18 4-17 4-154 2-168-2-16-16-16-23-16l1-9c31 1 59-4 87-4 95 0 104 91 32 115 39 75 66 110 102 113v6c-34 1-82 2-140-115l-21-1c-1 11-3 78 4 88 5 7 19 10 23 11l-1 8h-88v-7zm-635-109c17 0 53 0 53-45 0-13-6-51-49-51-18 0-18 5-19 27l-1 68 16 1zm-80 109c15-5 22-7 24-18 4-17 4-154 2-169-2-16-16-16-23-16l1-9c32 0 22 2 59-1l28-2c95 0 104 91 32 115 39 75 66 110 102 113v6c-34 1-82 2-140-115l-21-1c0 11-3 78 4 88 5 7 19 10 23 11l-1 7h-89v-7zm-133-203c-47 0-70 35-70 79 0 58 28 122 84 122 22 0 69-14 69-78 0-45-22-123-84-123zm125 100c0 59-46 114-118 114-74 0-118-55-118-116 0-68 59-112 120-112 64 0 116 50 116 113zm-411 103c8-2 18-4 20-13 7-21 7-168 0-183-4-8-15-9-23-9v-8c52 1 120 7 171-2-2 13-2 21-3 47h-9c-1-12-2-19-7-22-17-12-64-10-86-8l-2 85 34 1c43 0 43-4 44-22h10v61h-9c-1-20-1-21-21-24-16-2-31-3-56-2l-1 63c0 25 0 35 36 38v7h-97v-7zm-181 0c8-2 18-4 20-13 7-21 7-168 0-183-4-8-15-9-23-9v-8c52 1 120 7 171-2-2 13-2 21-3 47h-9c-1-12-2-19-7-22-17-12-64-10-86-8l-2 85 34 1c43 0 43-4 44-22h10v61h-9c-1-20-1-21-21-24-16-2-31-3-56-2l-1 63c0 25 0 35 36 38v7h-97v-7zm-206-1c13-2 20-4 22-16 7-38 3-121 2-165-1-30-20-22-21-25v-6c44 1 128 2 170-1 1 24-4 47-9 47l-7-1c6-23 1-33-47-33-14 0-29 2-44 4-4 34-4 49-3 85 19 1 67 2 77-3 6-2 9-20 9-20h8v67h-8c-4-30-4-32-60-32-14 0-19 1-27 2 0 42-4 50 3 88 52 9 99 10 115-35h8c-2 20-15 52-15 52H748l1-8z"/></svg>