<svg xmlns="http://www.w3.org/2000/svg" width="3840" height="2160"><path fill="#4E4E4D" d="M1115 1171v50H920V962h191v50H976v52h106v50H976v58h139zm81-41c0 26 19 50 46 50 28 0 44-24 44-50s-16-50-44-50c-27 0-46 24-46 50zm-52 0c0-47 38-95 87-95 18 0 44 12 54 27v-23h50v259h-50v-100c-25 31-68 32-100 10a98 98 0 01-41-79zm361 73c-41 47-122 15-122-54v-110h52v104c0 22 13 35 35 35 26 0 35-18 35-41v-97h50v183h-50v-19zm151 19h-50v-183h50v183zm-25-261a28 28 0 110 56 28 28 0 110-56zm143 25v58h35v44h-35v73c0 23 24 23 39 17v44c-20 6-49 6-66-5-15-10-23-27-23-53v-75h-33v-44h17c14 0 21-12 21-25v-33h46zm174 153l-39 6c-15 2-21 8-21 21 0 12 8 19 25 19 29 0 35-21 35-46zm0 64c-8 15-36 21-52 21-29-1-58-18-58-50 0-58 66-60 110-68 0-18-14-25-30-25-18 0-29 7-41 19l-29-29c23-19 41-35 72-35 43-1 78 28 78 73v114h-50v-19zm1072-64l-39 6c-15 2-21 8-21 21 0 12 8 19 25 19 29 0 35-21 35-46zm0 64c-8 15-36 21-52 21-29-1-58-18-58-50 0-58 66-60 110-68 0-18-14-25-30-25-18 0-29 7-41 19l-29-29c23-19 41-35 72-35 43-1 78 28 78 73v114h-50v-19zm-834-73c0-26-16-50-44-50s-44 24-44 50 16 50 44 50 44-24 44-50zm50 21c-8 40-41 73-83 73-20 0-42-7-54-25v23h-52V963h52v100c20-24 52-33 81-22 44 18 64 66 56 111zm91 71h-50V963h50v259zm91-110h83c-4-21-25-35-46-33-19 2-33 13-37 33zm0 35c9 43 73 46 95 12l27 33c-24 24-49 32-83 31-51-2-91-41-91-93s42-95 93-95c35 0 70 21 84 54 9 22 7 36 5 58h-131zm371 27c50 0 43-66 0-66h-60v66h60zm-60-166v56h52c39 0 40-56 0-56h-52zm-56 214V963h112c71 0 115 74 52 122 82 42 38 137-46 137h-118zm496-160c54-54 120-19 120 54v106h-50v-100c0-24-10-37-35-37-27 0-35 17-35 41v95h-50v-183h50v23zm222 114v46h-50V963h50v151l64-75h56l-66 79 71 104h-54l-50-71-21 25z"/><path fill="#F79633" d="M690 1161c0 35-27 62-62 62H404l-81 81h305c79 0 145-64 145-143V856l-83 81v224z"/><path fill="#FFCC29" d="M404 1223V999c0-33 29-62 64-62h222l83-81H468c-81 0-145 64-145 143v305l81-81z"/></svg>