<svg xmlns="http://www.w3.org/2000/svg" width="3840" height="2160"><path fill="#5FBB51" d="M864 1293h321v-72H864v72zm-320-224h198v-48H544v48zm476 0h305V969h-305v100zM679 855h251v-93H679v93z"/><path fill="#007044" d="M574 1193h290v-97H574v97zm503 0h197v-97h-197v97zm-56-253h258v-58h-258v58zm-250 129h222V882H771v187zm29-335h197v-90H800v90z"/><path fill="#C0D23B" d="M958 854h191v-93H958v93zM579 992h163V881H579v111zm312 200h158v-97H891v97zm-230 100h174v-72H661v72z"/><path fill="#504546" d="M982 1558H814l93-220h76l-1 220zm632-289h-57v-88h53c27 0 49 12 49 42s-16 46-46 46zm-63-190h58c22 0 38 7 38 31s-14 36-38 36h-58v-67zm116 78c16-13 24-30 24-51 0-41-34-60-71-60h-133v31h22v194h-25v36h135c52 0 91-27 91-82 0-32-15-54-44-68zm304-364v33h17l61 166h48l61-166h17v-33h-80v33h19l-39 118-39-118h20v-33h-85zm-327-32h25v71h-110v-71h25v-36h-99v36h25v193h-25v36h99v-36h-25v-84h110v84h-25v36h98v-36h-24V761h24v-36h-98v36zm251 135v28c0 24-26 35-46 35-15 0-29-9-29-25 0-23 14-32 35-35l40-4zm-55 99c22 0 44-6 58-24l2 19h63v-33h-21V856c0-49-32-69-77-69-29 0-51 7-76 22v38c21-13 41-24 66-24 30 0 39 12 39 40l-41 3c-43 3-82 18-82 68 0 39 31 61 68 61zm435-172c29 0 37 25 37 50h-76c3-23 11-50 39-50zm78 115c-22 12-41 20-66 20-30 0-49-24-50-53h126v-18c0-56-25-99-86-99-60 0-90 48-90 104 0 62 38 104 101 104 22 0 46-7 66-17v-40zm383 11c-18 9-47 16-47-14V826h39v-33h-39v-59l-49 25v33h-24v33h24v105c0 20 4 35 13 45 18 21 59 17 83 7v-35zm165-151c-30-12-57-1-71 27l-2-32h-64v33h23v132h-23v33h97v-33h-26v-74c0-37 27-60 61-44l5-41zm-504 476h-21l-55-93 44-39h24v-33h-97v31h20l-52 45v-139h-71v33h23v194h-23v33h85v-31h-14v-44l24-21 37 64h-16v31h91v-33zm-540-61v28c0 24-26 35-46 35-15 0-29-9-29-25 0-23 14-32 35-35l40-4zm-55 99c22 0 44-6 58-24l2 19h63v-33h-21v-101c0-49-32-69-77-69-29 0-51 7-76 22v38c21-13 42-24 66-24 30 0 39 12 39 40l-41 3c-43 3-82 18-82 68 0 39 31 61 68 61zm802-354h-23v-98c0-43-21-72-66-72-22 0-45 9-57 28l-2-23h-65v33h23v132h-23v33h91v-33h-20v-80c0-25 9-53 39-53 26 0 30 18 30 40v93h-20v33h92v-33zm-438 316h-23v-98c0-43-21-72-66-72-22 0-45 9-57 28l-2-23h-65v33h23v132h-23v33h91v-33h-20v-80c0-25 9-53 39-53 26 0 30 18 30 40v93h-20v33h92v-33zm918-336c-22 12-41 20-66 20-30 0-49-24-50-53h126v-18c0-56-25-99-86-99-60 0-90 48-90 104 0 62 38 104 101 104 22 0 46-7 66-17v-40zm-78-115c29 0 37 25 37 50h-76c3-23 11-50 39-50zm210 0c29 0 37 25 37 50h-76c3-23 11-50 39-50zm78 115c-22 12-41 20-66 20-30 0-49-24-50-53h126v-18c0-56-25-99-86-99-60 0-90 48-90 104 0 62 38 104 101 104 22 0 46-7 66-17v-40z"/></svg>