<svg xmlns="http://www.w3.org/2000/svg" width="3840" height="2160"><path fill="#7FC895" d="M3469 680l-170 170h90l80-80 80 80h90z"/><path fill="#284C56" d="M434 907v274h-30v-122H256v122h-30V907h30v122h148V907h30zm2703-51h12v-6h-30v6h11v34h7v-34zm163 325h340v-56h-340v56zm0-220h340v-56h-340v56zm0 110h340v-56h-340v56zm-124-181l12-31v30h7v-39h-10l-11 31-11-31h-10v39h7v-31l11 31h6zM570 1013c40 0 71 32 71 71 0 40-31 71-71 71s-71-32-71-71c0-40 32-71 71-71zm0 172c56 0 100-45 100-101s-45-100-100-100a101 101 0 100 201zm428-3h-29v-118c0-28-23-51-51-51-29 0-51 23-51 51v118h-29v-118c0-29-23-51-51-51-29 0-51 23-51 51v118h-29V986h29v16c15-12 32-19 51-19 27 0 51 13 66 34 15-22 39-34 66-34 45 0 81 36 81 81v118zm202-121a71 71 0 00-134 0h134zm-67-77c56 0 100 45 100 100v6h-171c3 37 34 65 71 65 26 0 51-15 63-38l27 12a101 101 0 11-90-145zm299 168v30h-164V908h164v30h-133v91h108v30h-108v93h133zm49-68c0 40 32 71 71 71 40 0 71-31 71-71s-32-71-71-71c-40 0-71 32-71 71zm-29 0a101 101 0 01172-71v-27h29v271h-29v-102a101 101 0 01-172-70zm239-98h29v118c0 29 23 51 51 51 29 0 51-23 51-51V986h29v196h-29v-16a80 80 0 01-51 19c-45 0-81-36-81-81V986zm202 196h29V986h-29v196zm67-275v211c0 36 28 64 64 64v-29c-19 0-34-15-34-35v-103h34v-29h-34v-78h-29zm229 79h32l-98 242h52v29h-96l37-90-73-181h32l57 142 57-142zm244 166c25 0 46-21 46-46s-21-46-46-46h-78v92h78zm-78-214v92h72c25 0 46-21 46-46s-20-46-46-46h-71zm154 167c0 42-33 76-76 77h-109V908h102a77 77 0 0149 135c22 15 34 36 34 63zm122-92c-40 0-71 32-71 71 0 40 32 71 71 71 40 0 71-31 71-71s-32-71-71-71zm71-27h29v196h-29v-27a100 100 0 01-171-70c0-56 45-101 100-101 28 0 52 10 71 30v-27zm224 196h-29v-118c0-28-23-51-51-51-29 0-51 23-51 51v118h-29V986h29v16c15-12 32-19 51-19 45 0 81 36 81 81v118zm195 0h-36l-66-94-34 34v61h-29V906h29v175l94-94h42l-81 81 81 116z"/></svg>