<svg xmlns="http://www.w3.org/2000/svg" width="3840" height="2160"><path fill="#063" d="M1703 1329h31c29 0 39-35 0-35h-26l-5 35zm729 0h31c30 0 39-35 0-35h-26l-5 35zm9-65h25c28 0 36-33 3-33h-23l-5 33zm-26-62h58c27 0 56 6 51 40-2 18-15 29-32 34 20 3 32 18 29 38-5 32-36 43-65 43h-64l22-156zm162 111c-20 6-19 25 0 25 12 0 26-7 28-20l1-7c-9 0-19 0-28 2zm24 31c-9 11-22 16-36 16-20 0-36-11-33-33 3-18 14-28 30-33 15-5 31-5 47-5 2-12-7-19-18-19s-21 5-29 13l-15-18c14-11 32-17 50-17 39 0 46 20 41 55l-8 54h-30l2-13zm64-94h32l-2 15c7-11 21-17 34-17 34 0 37 23 33 51l-8 59h-33l7-52c2-12 4-28-13-28s-22 13-24 27l-7 53h-33l15-107zm135-59h33l-14 102 42-42h41l-49 48 35 59h-42l-28-54-8 54h-33l23-166zm138 7c19 0 22 22 9 33-8 7-20 8-27 0-11-13 2-33 18-33zm-24 53h33l-15 107h-33l15-107zm57 0h32l-2 15c7-11 21-17 34-17 34 0 37 23 33 51l-8 59h-33l7-52c2-12 4-28-13-28-16 0-22 13-24 27l-7 53h-33l15-107zm148 53c-2 14 8 26 23 26 14 0 28-12 30-26s-8-26-23-26c-14 0-28 12-30 26zm60-53h30l-14 98c-6 41-29 62-71 62-18 0-37-3-52-16l22-27c9 9 20 14 33 14 17 0 31-8 33-26l1-10c-8 9-20 14-32 14-33 0-49-24-45-55 4-28 26-56 57-56 13 0 28 5 34 17l2-14zm-1468 13h25c28 0 36-33 3-33h-23l-5 33zm-26-62h58c28 0 56 6 51 40-2 18-15 29-32 34 20 3 32 18 29 38-5 32-36 43-65 43h-64l22-156zm199 90c2-12-6-20-17-20-12 0-23 8-26 20h44zm21 47a67 67 0 01-48 21c-33 0-56-22-52-56 5-34 34-56 67-56 34 0 47 25 42 56l-1 10h-77c1 13 9 21 22 21 11 0 19-5 26-13l21 17zm107-62h-29l-5 36c-1 6-2 15 5 18 5 2 18 2 22-2l-4 28c-14 5-39 5-50-4-8-6-9-16-8-25l7-51h-21l4-26h21l5-32h33l-5 32h29l-4 26zm90 0h-29l-5 36c-1 6-2 15 5 18 5 2 18 2 22-2l-4 28c-14 5-39 5-50-4-8-6-9-16-8-25l7-51h-21l4-26h21l5-32h33l-5 32h29l-4 26zm88 15c2-12-6-20-17-20-12 0-24 8-26 20h44zm21 47a67 67 0 01-48 21c-33 0-56-22-52-56 5-34 34-56 67-56 34 0 47 25 42 56l-1 10h-77c1 13 9 21 22 21 11 0 19-5 26-13l21 17zm37-89h33l-2 17c5-7 9-12 15-15 7-5 21-6 30-4l-4 30c-12-4-30-3-39 8-5 7-7 17-8 26l-6 45h-33l15-107zM626 1406v-15c29 0 29-11 29-22V797c0-11 0-22-29-22v-15h283v15c-30 0-29 11-29 22v142c55-135 186-195 325-195 72 0 150 17 239 51v188c-65-43-117-75-198-75-101 0-192 66-192 175 0 100 82 170 182 170 85 0 145-31 211-75v180c-78 44-156 59-245 59-143 0-270-63-323-198v150c0 11 0 22 29 22v15H625z"/><path fill="#FFF" d="M799 1195l17-27-79-65c7 0 30 1 33-2l-12-46 39 8 14-22 21 24-12-72c7 6 25 25 32 25l27-47 27 47c7 0 25-19 32-26l-12 72 21-24c15 24 12 23 19 22l34-7-12 45c3 3 25 2 33 2l-79 65 17 27-80-10-80 11z"/><path fill="#ED1D24" d="M771 1114l52 43c12 10 2 18 1 22 71-9 40-9 111 0-4-6-9-13 1-22l52-43c-19-6-10-24-5-42-26 6-26 8-38-10-9 10-25 34-33 26-5-5 5-46 8-62-5 2-8 5-15 5-10 0-18-20-26-34-12 23-19 45-41 29 3 16 12 56 8 62-7 9-24-16-33-25-12 18-11 16-37 10 5 18 14 37-5 42z"/><path fill="fil3" d="M1679 876a80 80 0 00-58-27c-23 0-39 13-39 31 0 50 106 50 106 133 0 41-29 71-69 71-27 0-49-8-69-24v-48c18 24 40 38 65 38 27 0 40-18 40-33 0-55-106-61-106-133 0-43 30-70 74-70 19 0 38 6 55 18v43zm1525 0a80 80 0 00-58-27c-23 0-39 13-39 31 0 50 106 50 106 133 0 41-29 71-69 71-26 0-48-8-69-24v-48c18 24 40 38 65 38 27 0 40-18 40-33 0-55-106-61-106-133 0-43 30-70 75-70 19 0 37 6 55 18v43zm-217 187c-33 15-59 21-94 21-75 0-131-56-131-133s57-136 132-136c29 0 49 5 87 22v38c-29-17-59-26-88-26-53 0-95 43-95 101s41 100 99 100c19 0 37-5 54-10v-54h-47v-34h82v111zm-318 18h-30l-164-202v202h-33V818h28l166 204V818h33v263zm-365 0h33V818h-33v263zm-181 2h-7l-106-265h36l74 184 74-184h35l-104 265zm-244-266h-25l-105 264h36l31-77h104l33 77h36l-110-264zm-13 58l40 95h-77l37-95z"/></svg>