<svg xmlns="http://www.w3.org/2000/svg" width="3840" height="2160"><path fill="#1F637B" d="M1020 1289h95l75-303h-96l-74 303zm490 0h96l74-303h-95l-75 303zm491 0h95l75-303h-96l-74 303zm-580-199h96c12-68-28-103-122-103-108 0-182 58-207 157-22 91 22 146 124 146 103 0 164-35 190-113h-96c-13 35-38 53-72 53-46 0-64-32-50-90 15-60 50-93 96-93 30 0 43 15 41 43zm491 0h95c13-68-28-103-121-103-109 0-182 58-207 157-22 91 22 146 124 146 103 0 164-35 190-113h-96c-13 35-39 53-72 53-47 0-65-32-51-90 15-60 50-93 97-93 29 0 43 15 41 43zm330 200h143c41 0 71-4 101-25 19-15 33-37 39-61 11-41-7-69-51-76 42-8 68-32 76-67 7-28 2-48-17-61-15-11-40-13-73-13h-143l-75 303zm124-257h59c45 0 65 6 58 36-8 31-32 38-78 38h-58l19-74zm-52 208l22-88h63c48 0 69 9 60 45-8 33-31 43-75 43h-70zm369 49h57l9-47 21-85c14-56-12-84-76-84-63 0-104 23-116 63h55c7-20 23-29 49-29 30 0 40 14 33 45l-1 3h-30c-86 0-132 17-145 71-10 41 14 68 65 68 33 0 61-12 84-34l-5 29zm22-98l-1 4c-10 39-39 63-74 63-26 0-37-11-32-31 7-28 29-36 71-36h36zm85 98h58l26-108c10-39 43-67 78-67 33 0 45 22 35 65l-28 110h57l32-130c14-54-12-86-68-86-37 0-66 13-91 42l6-37h-57l-11 62-37 149zm277 0h56l28-114 76 114h78l-86-121 116-90h-73l-108 85 44-177h-56l-75 303z"/><path fill="#F89F39" d="M651 818c128-137 282-173 344-79s8 283-120 420c-128 138-283 173-344 79-62-93-8-282 120-420z"/><path fill="#B23B3F" d="M735 745c-13 11-28 24-42 39-112 120-158 285-103 367 57 82 195 52 308-69 62-65 103-141 120-211 5-51-2-97-23-132-49-72-154-67-260 6z"/><path fill="#FEFEFE" d="M889 741c15 16 6 51-20 79-25 28-59 38-73 22-15-16-6-52 19-80 26-28 60-37 74-21zm-90 486c-60 49-122 73-182 63 25 1 45-29 62-70 17-42 28-81 36-117 12-58 12-99 6-108-10-14-33-11-59 6-13 7-30 2-10-24s100-89 128-99c32-10 68 4 56 41-9 27-119 341-37 308z"/></svg>