<svg xmlns="http://www.w3.org/2000/svg" width="3840" height="2160"><path d="M1199 1488v30H992v-360h31v330h177zm169-48h32c-13 45-47 86-109 85-74-1-111-65-111-132 0-66 35-131 108-131 78 0 112 61 111 138h-188c0 46 27 98 82 98 30 0 64-16 73-59zm0-69c-2-47-34-82-78-82-43 0-73 43-76 82h154zm255 147h-31v-162c0-96-133-90-133 24v138h-31v-249h28v44c20-38 51-51 82-50 43 1 85 26 85 101v154zm239-360v360h-31v-40c-16 33-52 47-85 47-75 0-99-65-98-137 1-92 47-126 98-126 36 0 67 13 86 44v-149h31zm-34 205c0-38-32-73-83-73-52 0-68 57-68 99 0 49 13 110 73 109 37 0 78-32 78-83v-53zm962 7c0-33-14-68-58-67-39 0-50 34-54 67h111zm49 83c-12 93-223 106-215-62 3-68 37-124 112-124 78 0 114 54 111 127v6l-168 1c0 41 9 80 58 81 28 1 47-11 51-30h52zm-437 1h55c11 50 91 37 92-3 1-20-19-29-31-33-40-10-110-23-111-74-1-44 43-77 101-77 55 0 87 35 87 62h-50c-6-18-18-29-44-29-52 0-58 53-9 64 48 11 109 19 110 77 1 100-188 102-199 12zm-31 60h-59v-241h59v241zm0-297h-59v-49h59v49zm-287 97l-58 201h-67l-81-241h59l54 201 62-201h62l62 201 54-201h59l-81 241h-67l-58-201z"/><path fill="#017CA5" d="M2273 784h127c-352 59-675 152-970 280V550l266 30v328h118V593l191 22v217h103V626l165 19v138z"/></svg>