<svg xmlns="http://www.w3.org/2000/svg" width="3840" height="2160"><path fill="#1EA960" d="M384 1278l72-72V882l-72 72v324zm144 0l72-72V882l-72 72v324zm144-324v324l72-72V882l-72 72z"/><path fill="#363435" d="M2178 923c-16 0-29 13-29 29s13 30 29 30 29-14 29-30-13-29-29-29zm-23 301h47v-207h-47v207zm-97 0h46V906l-46 45v273zm393-176c28 0 44 24 44 50h-92c1-24 21-50 48-50zm3 142c-28 0-52-24-53-58h142c2-84-36-120-91-120-58 0-98 47-98 108 0 64 37 109 96 109 38 0 70-20 87-44l-29-27a65 65 0 01-54 32zm-150-173v-41c0-17 11-28 26-28 9 0 19 3 25 7l15-35c-10-6-27-11-47-11-43 0-65 31-65 65v43h-28v37h28v170h46v-170h43l11-37h-54zm-761 147c-11 14-29 28-50 28-18 0-33-11-33-28 0-23 24-32 51-36l32-3v39zm-29-152c-37 0-65 14-81 35l26 31c8-13 30-30 53-30 19 0 32 11 32 24 0 11-6 21-22 22l-17 2c-44 5-89 22-89 70 0 40 30 63 66 63 32 0 50-15 61-28v23h46v-147c0-41-27-65-75-65zm448 151c-13 14-30 26-47 26-22 0-32-17-32-41v-131h-46v146c0 52 37 66 64 66s47-15 60-27v22h47v-207h-46v146zm-719-85h-1l-84-142h-54v288h49v-204h1l88 145 87-145h1v204h50V936h-53l-84 142zm500-66c-27 0-51 13-67 28v-23h-46v207h46v-149c10-10 32-25 50-25 21 0 30 18 30 38v136h45v-148c0-50-33-64-58-64zm1003 195h43c70 0 84-30 84-61 0-35-18-64-81-64h-46v125zm41-142c36 0 79-7 79-54s-40-58-75-58h-45v112h41zm-63 159V936h70c74 0 93 42 93 74 0 31-17 55-47 62 34 11 54 35 54 72 0 34-15 80-95 80h-75zm287-109c-30 4-60 19-60 53 0 28 17 45 42 45 19 0 40-18 54-36v-67l-36 5zm36 109v-26c-17 17-35 32-59 32-28 0-57-21-57-61 0-47 39-65 84-71 19-3 33-3 33-28 0-21-16-36-38-36-24 0-42 15-54 33l-12-15c16-21 37-35 69-35 33 0 55 17 55 59v148h-21zm101 0h-20v-201h20v21c15-13 33-27 59-27 27 0 50 15 50 62v145h-21v-150c0-17-10-41-33-41-21 0-43 19-55 30v161zm242-136l66 136h-24l-56-119-37 42v77h-20V929l20-15v158l-1 52h1l23-30 61-71h25l-58 65z"/></svg>