<svg xmlns="http://www.w3.org/2000/svg" xmlns:xlink="http://www.w3.org/1999/xlink" width="3840" height="2160"><defs><linearGradient id="a" x1="1300" x2="1124" y1="960" y2="696" gradientUnits="userSpaceOnUse"><stop offset="0" stop-color="#d5d7d8"/><stop offset=".2" stop-color="#b4b6b8"/><stop offset="1" stop-color="#929498"/></linearGradient><linearGradient id="b" x1="860" x2="1035" y1="1010" y2="1275" gradientUnits="userSpaceOnUse" xlink:href="#a"/></defs><path fill="url(#b)" d="M809 1131s-3 6-3 13c3 5 8 10 16 15l258 146-174-300c-7-11-7-28-1-38l-95 164z"/><path fill="url(#a)" d="M1350 840s3-6 3-13c-3-5-8-10-16-15l-258-146 174 300c7 11 7 27 1 38l95-164z"/><path fill="#1D2675" d="M2902 1057h-74v111h74c36 0 59-22 59-55s-23-56-59-56zm-74 182v153h-79V986h157c84 0 134 58 134 127s-50 127-134 127h-78zm-307-133l-51 148h101l-50-148zm95 286l-24-72h-144l-25 72h-83l148-406h62l148 406h-83zm-294-125c-14 85-74 128-149 128-45 0-81-16-110-44-41-41-40-92-40-162s-1-121 40-162c29-29 65-45 110-45 76 0 135 43 149 128h-80c-8-32-29-58-68-58-77 0-71 81-71 136s-6 136 71 136c40 0 60-25 68-58h80zm-444 125v-237l-78 154h-54l-78-154v237h-79V986h78l106 220 106-220h78v406h-79zm-798-88l258-146c11-6 22-19 22-33V844c0-7-3-12-6-18 0 7-3 13-3 13l-271 465zm0-639L822 811c-11 6-22 19-22 33v281c0 5 3 13 6 18 0-5 2-10 3-13l270-465z"/></svg>