<svg xmlns="http://www.w3.org/2000/svg" width="3840" height="2160"><path fill="#058" d="M2828 985v40c16-32 59-45 87-45 65 0 106 43 105 116v152h-49v-148c0-44-27-71-64-71s-80 21-80 78v142h-49V986h49zm-168 131c0-57-46-90-90-90-48 0-86 37-86 90a88 88 0 10176 0zm49-131v262h-49v-42c-18 30-55 47-93 47-72 0-131-54-131-137s59-136 131-136c39 0 76 16 94 47v-41l49 1zm-386 0h49v262h-49V985zm-10-96c0-18 16-33 34-33 19 0 35 14 35 33 0 18-16 33-35 33-18 0-34-14-34-33zm-204 137c-48 0-86 37-86 90a88 88 0 10176 0c0-50-39-90-90-90zm139-184v405h-49v-42c-18 30-55 47-93 47-72 0-131-54-131-137s59-136 131-136c39 0 76 16 94 47V842l49 1zm-386 143h49v262h-49V985zm-10-96c0-18 16-33 34-33 19 0 35 14 35 33 0 18-16 33-35 33s-34-14-34-33zm-48 147c-14-7-28-9-39-9-52 0-73 55-73 125v95h-49V985h49v60c13-46 39-65 74-65 18 0 38 4 45 10l-8 46zm-270 59c-6-45-39-69-81-69-44 0-76 23-84 69h165zm-166 42c8 47 41 69 86 69 32 0 62-13 76-40l43 17c-23 45-70 69-121 69-75 0-135-54-135-137s60-136 135-136 131 53 131 136l-2 23h-213zm-188-184l-123 252h-44L889 952l-35 295h-50l47-387h46l138 287 137-287h47l48 387-50 1-36-295zm1912-2l15-32h6l6 43h-7l-4-31-13 26h-6l-13-26-4 31h-7l6-43h6l15 32zm-62-32h31v6h-13v37h-6v-37h-13v-6z"/><path fill="#FB2" d="M721 1250s100 130 315 130c214 0 315-130 315-130s-71 167-315 167-315-167-315-167z"/></svg>