<svg xmlns="http://www.w3.org/2000/svg" width="3840" height="2160"><path fill="#B90" d="M1690 442h457v577h-457V442zm102 117l70 117 30-50-40-67h-59zm184 211l-30 50 47 79h59l-77-129zm70-211h-59l-201 340h59l201-340z"/><path d="M2262 1541v-335h52v335h-52zm-306-288v102h75c78 0 81-102-6-102h-69zm-52-47h124c60 0 111 28 111 95 0 52-29 80-67 91l78 148h-65l-69-142h-59v142h-52v-335zm-327 335v-335h215v47h-163v97h139v50h-139v95h163v47h-215zm-277-127l95-208h52v335h-52v-218h-2l-75 157h-38l-75-157h-2v218h-52v-335h52l95 208h1zm1329 127l-74-125-74 125h-58l104-173-96-162h58l66 115 66-115h58l-96 162 104 173h-58z"/></svg>