<svg xmlns="http://www.w3.org/2000/svg" width="3840" height="2160"><defs><linearGradient id="a" x1="1277" x2="1212" y1="1230" y2="643" gradientUnits="userSpaceOnUse"><stop offset="0" stop-color="#080"/><stop offset="1" stop-color="#0c0"/></linearGradient><linearGradient id="b" x1="1253" x2="1236" y1="1231" y2="931" gradientUnits="userSpaceOnUse"><stop offset="0" stop-color="#0c0"/><stop offset="1" stop-color="#080"/></linearGradient></defs><path fill="#040" d="M1310 1414c-7-3-13-8-17-13-3-6-5-12-5-19 0-24 22-38 44-38 6 0 13 2 21 4 8 3 11 4 15 4h17v13h-13c2 4 3 10 3 15 0 28-26 45-57 37-22 22 24 15 34 15 42 0 41 33 15 54-45 35-103-1-76-28 10-9 27-10 14-12-28-5-15-22 5-32zm3-33c0 11 5 30 19 29 12 0 16-15 16-26 0-13-5-25-19-25-11-1-16 11-16 22zm55 84c5-16-63-17-64 1-2 16 57 18 64-1zm-104-101h-24v58c0 24 16 5 22 2l7 6c-19 28-53 41-53-4v-62h-13v-13c21-2 26-19 28-34h9v31h24v16zm-154 90v-11c12 0 16-8 16-21v-50c0-10-6-9-15-7v-11c9-1 20 0 27-9h11v16l14-13c29-17 35 23 15 23-6 0-12-8-17-8-11 0-12 19-12 27v34c0 15 8 19 21 19v11h-60zm604-78h-39c10-27 34-20 39 0zm16 34c-18 37-53 26-57-17h67c1-25-16-48-42-48-30 0-50 22-50 55 0 47 59 89 91 15l-9-5zm-267 15c-11 10-31 13-32-3 0-16 20-20 32-26v29zm41 10l-5-8c-12 7-13 9-13-3v-41c0-59-75-39-76-10 0 25 25 14 24 5-2-27 29-24 29 0 0 17-56 12-57 48 0 32 30 38 58 16 6 24 29 7 40-7zm-466-79c33 0 37 90 4 90-16 0-27-22-27-51 0-14 5-39 23-39zm2-11c-24 0-53 19-53 58 0 27 17 54 53 54 26 0 52-19 52-58 0-31-21-54-52-54zm-73 109v-11c-20-2-22-1-22-24v-85c0-22 1-19 21-21v-12h-45l-49 106-48-106h-50v12c18 1 20 0 20 29v86c0 9-8 13-22 15v11h58v-11c-16-2-21-4-22-15v-36l2-62 51 122h8l50-110h1l-1 77c-1 23-1 22-20 24v11h68zm2088 0v-11c-13-2-15-3-15-18v-38c0-55-42-45-57-24v-16h-17c-2 2-4 6-24 5v12c12 2 13 3 13 18v42c0 16 1 17-14 19v11h53v-11c-12-2-11-3-11-18v-50c18-14 32-13 32 15v33c0 17-1 18-13 20v11h53zm-251 0v-11c-15-2-16-3-16-20v-76h-19c-2 2-1 5-22 5v12c9 0 16 3 16 18v41c0 17-2 18-16 20v11h57zm-29-131c9 0 16-7 16-15s-7-15-15-15-15 7-15 15 7 15 14 15zm-532 52c29-24 42 0 42 31 0 48-35 41-42 23v-54zm0-11v-22c-7 6-22 10-41 11v11c13 1 15 2 15 17v87c0 15-2 20-17 22v11h63v-11c-19-2-20-8-20-23v-16c32 16 68-21 68-56 0-46-46-60-68-31zm-276-67v54h-11c-21-65-92-39-91 25 0 32 12 66 49 66 23 0 35-14 49-31l9 6c-14 17-30 39-65 38-102-1-95-158 0-158 17 0 31 5 46 11v-10l10-1h4zm-417 117c-7-3-12-8-16-13-4-6-6-12-6-19 0-24 22-38 45-38l20 4c8 3 11 4 16 4h16v13h-13c2 4 3 10 3 15 0 28-26 45-57 37-21 22 24 15 34 15 43 0 41 33 15 54-45 35-103-1-75-28 10-9 26-10 13-12-28-5-15-22 5-32zm3-33c0 11 5 30 20 29 11 0 15-15 15-26 0-13-5-25-19-25-10-1-16 11-16 22zm55 84c5-16-62-17-64 1-1 16 58 18 64-1zm507-11v-11c13 0 17-8 17-21v-50c-1-10-7-9-16-7v-11c9-1 20 0 28-9h11v16c5-6 9-10 14-13 29-17 34 23 15 23-7 0-13-8-17-8-12 0-13 19-13 27v34c0 15 8 19 21 19v11h-60zm-72-98c33 0 37 90 5 90-17 0-28-22-28-51 0-14 5-39 23-39zm3-11c-25 0-54 19-54 58 0 27 17 54 53 54 26 0 52-19 52-58 0-31-21-54-51-54zm410 109v-11c13 0 17-8 17-21v-50c0-10-7-9-16-7v-11c10-1 20 0 28-9h11v16c5-6 9-10 14-13 29-17 35 23 15 23-7 0-13-8-17-8-12 0-13 19-13 27v34c0 15 9 19 21 19v11h-60zm-72-98c33 0 37 90 5 90-17 0-27-22-27-51 0-14 4-39 22-39zm3-11c-25 0-54 19-54 58 0 27 17 54 53 54 26 0 52-19 52-58 0-31-21-54-51-54zm221 80c-11 10-31 13-32-3 0-16 20-20 32-26v29zm41 10l-5-8c-12 7-13 9-13-3v-41c0-59-75-39-76-10 0 25 25 14 24 5-2-27 29-24 29 0 0 17-56 12-57 48 0 32 30 38 58 16 6 24 29 7 40-7zm221-79c33 0 37 90 4 90-16 0-27-22-27-51 0-14 4-39 23-39zm2-11c-25 0-53 19-53 58 0 27 17 54 53 54 26 0 52-19 52-58 0-31-21-54-52-54zm-148 19h-23v58c0 24 16 5 21 2l7 6c-18 28-52 41-52-4v-62h-14v-13c21-2 27-19 29-34h9v31h23v16zm-64-706v12c-22 2-26 28-33 44l-81 213h-7l-64-168-71 168h-6l-86-211c-7-18-12-44-35-46v-12h112v12c-33 1-23 22-13 44l49 121 41-98-9-23c-9-24-13-44-43-44v-12h125v12c-36 0-30 12-19 41l46 118 41-110c10-25 23-48-14-49v-12h67zm239 304l127 162v-107c0-28-6-44-37-44v-11h87v11c-30 5-33 13-33 44v213h-9l-173-217v160c0 30 13 39 40 39v12h-94v-12c28 0 38-10 38-39V993c-12-16-16-19-37-20v-11h91zm-249 15v103c41 0 46-23 49-58h11v132h-11c-3-35-13-56-49-56v69c0 22-2 37 25 37h34c39 0 61-33 71-68h7l-12 88h-223v-12c32 0 36-5 36-38v-162c0-31-2-38-36-38v-12h216v77h-8c-10-52-30-62-83-62h-27zm-110-15v11c-27 5-39 34-49 56l-89 201h-6l-86-204c-11-26-14-49-44-53v-11h125v12c-34-1-39 0-29 23l61 145 64-143c11-26-2-26-32-26v-11h85zm-350 173l-38-89-40 89h78zm7 14h-91l-11 26c-18 41 5 35 32 37v12h-89v-12c9-1 17 0 23-6 6-7 13-20 22-40l92-210h4l93 215c8 19 16 39 40 41v12h-126v-12h10c16 0 24-9 15-30l-14-33zm-359-51v76c0 32 3 38 36 38v12h-135v-12c33 0 37-5 37-38v-163c0-32-4-38-37-38v-11h135v11c-32 0-36 6-36 38v70h91v-70c0-32-3-38-36-38v-11h135v11c-33 0-37 6-37 38v163c0 32 4 38 37 38v12h-135v-12c32 0 36-6 36-38v-76h-91zm281-425v103h5c36 0 41-27 44-58h11v133h-11c-3-35-13-56-49-56v68c0 23-2 38 25 38h34c39 0 61-34 71-69h7l-12 89h-223v-12c32 0 36-6 36-38V709c0-31-2-38-36-38v-13h216v78h-8c-3-19-8-33-15-41-17-21-43-22-68-22h-27zm-291-15l128 163V713c0-28-6-44-38-43v-12h87v12c-30 4-33 12-33 43v214h-9l-172-217v160c0 29 12 39 39 39v12h-94v-12c29 0 39-11 39-39V689c-13-16-17-19-38-19v-12h91z"/><path fill="url(#a)" d="M956 1229H781V921l175 308zm56-585h212v380l-212-380zm-231 0h167l276 543v42h-204L781 757V644zm485 0h187v260h68V644h187v585h-187V979h-68v250h-187V644z"/><path fill="url(#b)" d="M956 1229H781v-198l52-18 123 216zm268-291v86l-46-82 46-4zm-120 13l120 236v42h-204L901 993c66-18 134-32 203-42zm604 22v256h-187V979h-68v250h-187V935a1678 1678 0 01442 38z"/></svg>