<svg xmlns="http://www.w3.org/2000/svg" width="3840" height="2160"><path fill="#EB7923" d="M900 386l402 695c15 25 17 63 1 89l222-379c17-31-3-49-30-65L900 385zm126 1344l511-288c22-13 44-37 44-64l2-556c0-11-5-26-12-35 0 8-3 18-7 26l-539 919zm734-419l6-10h21v14c5-10 14-16 27-16 16 0 24 8 27 19 4-11 13-19 28-19 20 0 32 14 32 39v37l1 23h-18l1-23v-35c0-19-7-28-20-28-11 0-20 10-20 27v36l1 23h-18l1-23v-37c0-16-6-26-20-26-11 0-20 9-20 27v36l1 23h-18v-87h-10zm246-12c28 0 50 23 50 50 0 28-23 50-50 50-28 0-50-22-50-50s23-50 50-50zm0 86c19 0 34-16 34-35 0-20-15-36-34-36s-34 16-34 36c0 19 14 35 34 35zm161-85v18c-4-2-9-4-14-4-12 0-22 15-22 30v31l1 22h-18l1-22v-65h-10l6-10h19v22c4-15 15-24 26-24l12 1zm76-24l-1 19v6h27v14h-27v49c0 16 7 22 16 22 3 0 7-1 8-3v16l-13 1c-15 0-28-9-28-33v-52h-15v-14h15v-6l-1-19h18zm160 25c0 8-3 13-10 17 3 5 6 12 6 20 0 22-18 39-42 39-9 0-15-4-19-4s-8 5-8 11 5 11 10 11l17-2c26 0 49 13 49 31 0 17-22 31-49 31s-49-13-49-30c0-11 8-18 17-23-7-2-11-11-11-18 0-8 5-16 14-19-7-7-12-16-12-28 0-21 18-39 41-39 12 0 21 5 27 11 2-2 4-5 4-9h14zm-46 143c18 0 32-8 32-18s-14-18-32-18c-17 0-31 8-31 18 0 14 21 18 32 18zm0-80c14 0 25-12 25-26s-11-25-25-25c-13 0-24 11-24 25s11 26 24 26zm99-41v-17c6-1 14-6 28-6 25 0 37 14 37 43v37c0 7 3 8 6 8l5-1v11c-3 2-6 4-13 4s-12-4-13-11c-5 7-14 11-25 11-20 0-32-12-32-28s12-29 34-29c10 0 20 4 23 10v-12c0-15-7-28-25-28-11 0-19 4-24 10zm30 66c11 0 20-8 20-17s-9-17-20-17c-13 0-20 8-20 17 0 12 10 17 20 17zm183-88c0 8-3 13-10 17 3 5 6 12 6 20 0 22-18 39-42 39-9 0-15-4-19-4s-8 5-8 11 5 11 10 11l17-2c26 0 49 13 49 31 0 17-22 31-49 31s-49-13-49-30c0-11 8-18 17-23-7-2-11-11-11-18 0-8 5-16 14-19-7-7-12-16-12-28 0-21 18-39 41-39 12 0 21 5 27 11 2-2 4-5 4-9h14zm-46 143c18 0 32-8 32-18s-14-18-32-18c-17 0-31 8-31 18 0 14 21 18 32 18zm0-80c14 0 25-12 25-26s-11-25-25-25c-13 0-24 11-24 25 0 13 10 26 24 26zm111-15c-1 20 14 38 35 38 12 0 20-2 30-8v16c-7 1-14 6-32 6-29 0-49-22-49-50 0-29 20-50 46-50 30 0 45 28 45 45v4h-73zm0-12h55c-1-11-11-25-27-25-15 0-25 11-28 25zm120 58v-21c4 8 16 14 26 14 9 0 15-5 15-14 0-20-39-20-39-49 0-15 11-26 31-26 9 0 16 3 22 4v19c-3-6-14-10-21-10-10 0-14 6-14 13 0 19 39 18 39 49 0 16-12 28-31 28-11 0-21-5-27-6z"/><path fill="#777" d="M1968 1199h-29l-131-191h-13v191h-26V796h50c73 0 132 22 132 107 0 70-49 106-115 105l132 191zm-141-215c55 0 99-21 99-82 0-74-57-82-115-82h-17v164h33zm567-119h-1l-140 347-140-347h-1l-69 333h-25l87-416 148 366 149-366 87 416h-25l-69-333zm546 139c1 51-6 95-42 134a209 209 0 01-360-140 210 210 0 01385-114l-21 17c-36-53-90-87-155-87-98 0-183 86-183 183 0 99 82 183 183 183 43 0 85-18 119-44 35-29 48-63 49-107h-144v-24h170z"/></svg>