<svg xmlns="http://www.w3.org/2000/svg" width="3840" height="2160"><path fill="#ED323D" d="M1589 1170c29 0 46-25 46-55s-16-55-46-55c-31 0-45 25-45 55s17 55 45 55zm0 51c-69 0-118-41-118-106 0-64 51-106 118-106s118 42 118 106-50 106-118 106zm845-106c0-27-16-51-42-51-24 0-43 20-43 51 0 30 16 51 43 51 25 0 42-20 42-51zm-154 101V930h70v98h1c5-3 28-19 61-19 55 0 95 44 95 102 0 73-45 109-96 109-38 0-58-18-63-23h-1l-1 19h-67zm-343-305c-22 0-40 18-40 40s18 40 40 40 40-18 40-40-18-40-40-40zm-35 103h71v203h-71v-203zm907 203h69v-105c0-25 16-41 37-41 24 0 37 15 37 41v105h69v-122c0-46-30-85-84-85-36 0-55 20-64 27h-1l-1-22h-62v202zm255 0h70v-94h1l62 94h78l-75-107 73-95h-78l-61 84h-1V932h-70v286zm-1610-200c-5-1-25-8-50-8-64 0-111 40-111 106 0 60 43 106 108 106 28 0 48-7 53-9l-3-59c-5 2-20 11-36 11-28 0-49-20-49-48 0-30 22-49 50-49 16 0 30 7 35 10l3-59zm625 96c0 33 19 54 43 54 22 0 43-21 43-52s-19-53-43-53c-25 0-43 23-43 50zm156-99v203h-68l-1-20h-2c-8 7-23 25-68 25-49 0-92-43-92-106 0-59 38-106 96-106 40 0 56 18 62 23h2l1-18h70zm373 99c0 33 19 54 43 54 22 0 43-20 43-52 0-31-19-53-43-53-25 0-43 22-43 50zm156-99v203h-68l-1-21h-1c-8 7-23 25-67 25-49 0-92-43-92-106 0-59 38-106 96-106 40 0 56 17 62 23h2l1-18h70zm-1697 195c20 6 50 11 81 11 60 0 120-21 120-87 0-91-125-78-125-114 0-19 19-22 38-22 26 0 59 13 67 16l6-62c-18-6-46-10-72-10-59 0-118 23-118 82 0 89 125 70 125 117 0 18-18 25-41 25-32 0-61-16-74-21l-7 67zm802-48c-4 1-13 3-20 3-14 0-30-7-30-31v-69h44v-51h-44v-65h-71v65h-31v51h31v80c0 44 20 76 73 76 15 0 29-2 39-4l9-55zm-1051-81c2 87-77 154-143 154H512l-103 102h264c84 0 165-76 165-166 0-27-3-61-20-88v-2zm-28 64c10-18 15-38 16-58h-74c0 18-3 38-10 58h68zm-72 11c-8 21-28 49-48 64 38 0 81-16 112-64h-64zm-8-11c7-18 10-38 11-58H609c2 20 5 39 11 58h89zm-102 0c-7-20-10-40-10-58h-74c2 20 7 39 16 58h68zm58 64c15-13 31-35 39-53h-79c8 18 25 40 40 53zm-119-53c33 48 76 64 114 64-20-15-41-43-48-64h-66zm177-138c7 18 10 38 10 58h74c-1-20-6-40-16-58h-68zm59-13c-31-46-75-64-112-64 19 15 39 42 48 64h64zm-162 13c-7 18-10 38-11 58h112c-2-20-5-40-11-58h-89zm-81 0c-10 18-15 38-16 58h74c0-20 4-40 10-58h-68zm126-65c-15 13-31 33-40 51h79c-8-18-25-38-39-51zm-53 51c7-22 28-50 48-64-38 0-81 18-114 64h66zm-101 74c-16-26-20-61-20-87 0-91 81-167 165-167h264L818 926H655c-66 0-145 67-143 151zm2861-104h10c6 0 12-1 12-9 0-7-6-8-12-8h-10v17zm-11-25h22c14 0 22 5 22 17 0 10-6 15-16 16l16 26h-11l-15-26h-7v26h-11v-59zm60 30c0-25-18-42-40-42s-40 18-40 42c0 25 18 42 40 42s40-18 40-42zm-92 0c0-29 23-52 52-52s52 23 52 52-23 52-52 52-52-23-52-52z"/></svg>