<svg xmlns="http://www.w3.org/2000/svg" width="3840" height="2160"><path fill="#02753C" d="M507 824a250 250 0 110 500 250 250 0 010-500zm754 86h-222v31h92v208h38V941h92v-31zm27 0v239h38v-104h16c20 0 36 6 71 55l35 49h45l-36-47c-20-30-35-52-59-66 28-11 44-31 44-59 0-41-33-67-87-67h-67zm38 30h25c37 0 51 13 52 36 0 20-11 39-52 39h-25v-75zm337-30h-150v239h154v-31h-116v-74h108v-31h-108v-72h112v-31zm180 0h-150v239h154v-31h-116v-74h108v-31h-108v-72h112v-31zm249 0h-222v31h92v208h38V941h92v-31zm492-1h-27l-114 240h39l34-70h113l35 70h39l-119-240zm-14 52l43 87h-82l39-87zm150-51v239h39v-103h39c62 0 90-30 90-67 0-38-26-69-85-69h-83zm39 31h44c35 0 46 19 46 36 0 24-19 38-47 38h-43v-74zm191-31h-38v239h38V910zm253 0h-222v31h92v208h38V941h92v-31zm84-1h-27l-114 240h39l34-70h113l35 70h39l-119-240zm-14 52l43 87h-83l40-87zm190-51h-38v239h158v-31h-120V910zm-1030-21c-39-16-68-23-98-23-90 0-156 62-156 148 0 58 47 139 154 139 44 0 75-10 103-24v-44c-32 20-67 31-99 31-69 0-116-43-116-106 0-62 49-107 114-107 33 0 63 9 98 29v-43zm-1414-13c-23-14-48-21-72-21-59 0-98 30-98 78 0 79 139 86 139 146 0 16-16 36-52 36-32 0-61-15-85-42v53c27 18 55 27 90 27 52 0 90-33 90-79 0-92-139-91-139-147 0-20 21-34 51-34 22 0 48 6 76 30v-47z"/><path fill="#FFCD32" d="M692 1153c49-66 36-123-33-157-60-29-128-28-191-12-16 3-76 25-86 5-19-38 205-130 233-141l-13-5c-60 19-190 62-244 104-36 28-34 67 11 79 60 17 136-39 209-16 78 26-9 92-44 113-69 40-144 80-214 117 39 43 93 73 153 81 74-45 170-97 219-168z"/><path fill="#6E6F71" d="M2187 1329h21c22 0 27-10 27-19s-5-19-30-19h-18v38zm0-44h11c21 0 28-7 28-18 0-14-12-18-28-18h-11v36zm48-19c0 10-5 16-15 21 16 3 24 11 24 23 0 15-14 25-35 25h-30v-92c19 0 56-4 56 23zm68-12l-22 43h44l-22-43zm50 81h-9l-16-32h-50l-17 32h-8l48-93h4l48 93zm112 0h-6l-79-81v81h-8v-92h7l78 80v-80h8v92zm50-46l53 46h-10l-54-46v46h-8v-92h8v46l50-46h10l-49 46zm159-41c-26 0-46 18-46 41s20 40 46 40 46-17 46-40-20-41-46-41zm0 88c-31 0-55-21-55-47 0-27 24-47 55-47 30 0 55 20 55 47 0 26-25 47-55 47zm129-87h-45v35h41v6h-41v45h-8v-92h53v6zm146 8c-13-6-24-9-36-9-26 0-45 18-45 41 0 24 19 40 46 40 11 0 22-2 36-9v7c-12 6-24 9-36 9-32 0-55-20-55-47 0-28 26-47 54-47 12 0 24 2 36 7v8zm69-3l-22 43h45l-23-43zm50 81h-8l-16-32h-51l-16 32h-8l47-93h5l47 93zm113 0h-7l-78-81v81h-8v-92h7l78 80v-80h8v92zm70-81l-22 43h44l-22-43zm50 81h-9l-16-32h-50l-17 32h-8l48-93h4l48 93zm27-6h30c24 0 46-14 46-40 0-24-19-40-47-40h-29v80zm29-86c43 0 56 26 56 46 0 21-14 46-55 46h-38v-92h37zm110 11l-22 43h44l-22-43zm50 81h-9l-16-32h-50l-17 32h-8l48-93h4l48 93zm29-91v3h-13v38h-3v-38h-13v-3h29zm21 19l13-19h3v41h-3v-36l-13 19-14-19v36h-3v-41h3l14 19z"/></svg>