<svg xmlns="http://www.w3.org/2000/svg" width="3840" height="2160"><path fill="#B22" d="M3171 1162V835h221v63h-139v57h129v62h-129v82h139v62h-221zm-490-267c36 0 57 23 67 57 8 27 8 72 0 97-10 33-32 58-68 58s-58-23-68-57c-8-27-8-71 0-98 11-35 32-57 68-57zm116-16c-28-30-67-44-116-44-101 0-158 66-158 166s57 166 158 166 158-65 158-166c0-51-14-92-42-122zm344 283h-79l-126-228v228h-75V835h101l105 187V835h75v327zM939 1326H448V835h491v491z"/><path fill="#FFF" d="M495 1052l62-62 131 131-62 62-131-131zm136 0l62-62 131 131-62 62-131-131z"/><path fill="#333" d="M1154 1308c-3 3-8 4-14 4h-25v-31h23c7 0 12 1 16 4 3 2 5 6 5 12 0 5-2 9-5 12zm-39-65h22c6 0 10 1 13 3s4 6 4 10c0 5-1 8-4 11-3 2-8 3-14 3h-21v-28zm52 39c-3-4-7-6-13-7 4-2 8-4 10-8 2-3 3-7 3-12 0-7-2-13-7-16-5-4-12-6-21-6h-36v90h38c9 0 17-2 22-7 6-5 8-11 8-20 0-6-2-11-5-15zm130 4l14-40 14 40h-28zm21-53h-14l-34 90h13l10-27h36l10 27h13l-34-90zm145 90v-90h13l42 66 2 4 2 4v-73h12v90h-13l-43-67-2-3-2-4v73h-12zm194 0v-90h12v44l43-44h16l-37 36 38 54h-15l-32-45-14 14v32h-12zm328-18c-5 7-13 10-22 10s-17-3-22-10-8-16-8-27c0-12 3-21 8-27s13-10 22-10 17 3 22 10 8 16 8 27c0 12-3 21-8 27zm9-62c-8-8-18-13-31-13s-24 4-32 13c-8 8-11 20-11 35s4 27 11 35c8 8 18 13 32 13 13 0 24-4 31-13 8-8 11-20 11-35s-4-27-11-35zm112 80v-90h61v11h-48v27h42v11h-42v41h-12zm341-34h12c-1 11-4 20-11 26-7 7-16 10-27 10-13 0-23-4-30-13s-11-21-11-36c0-14 4-25 11-34 8-8 18-12 31-12 10 0 19 3 25 8 7 5 10 12 11 22h-12c-1-6-4-11-8-14s-10-5-17-5c-9 0-16 3-21 10-5 6-8 15-8 27 0 11 3 20 8 27s12 10 21 10c7 0 13-2 18-7s7-11 8-18zm146-4l14-40 14 40h-28zm21-53h-14l-34 90h13l10-27h36l10 27h13l-34-90zm145 90v-90h13l42 66 2 4 2 4v-73h12v90h-13l-43-67-2-3-2-4v73h-12zm209-38l14-40 14 40h-28zm21-53h-14l-34 90h13l10-27h36l10 27h13l-34-90zm198 70c-5 6-11 9-20 9h-21v-69h21c9 0 16 3 20 9 5 6 7 14 7 25s-2 20-7 26zm9-59c-7-8-16-11-29-11h-34v90h34c12 0 22-4 29-12s10-20 10-34-3-25-10-33zm140 41l14-40 14 40h-28zm21-53h-14l-34 90h13l10-27h36l10 27h13l-34-90z"/><path fill="#CA6" d="M2479 932c-35-42-93-25-134 10V834h-77v327h77V986c26-18 72-30 76 23l1 152h77v-160c0-30-7-53-20-69zM830 990l62 62-62 62-62-62 62-62zm639-156l-83 327h-90l-52-202-51 202h-90l-83-327h85l45 219 55-219h81l52 219 47-219h83zm55 172c4-65 92-72 94 0h-94zm165 77h-8c-48 36-151 50-156-31h169v-28c0-150-161-134-211-82-54 56-66 225 110 225 39 0 62-7 97-20v-64zm179 13c-25 24-76 28-76-13 0-36 43-35 76-39v52zm48-168c-41-30-129-24-181-9v60h9c5-2 67-32 110-10 11 6 15 15 15 30-69 5-154 8-154 92 0 82 93 96 140 56l14-12v26h77V993c0-29-10-51-29-65zm52 233h77V834h-77v327zm219 5c-60 0-90-22-90-83V968h-29v-53h29v-68h77v68h74v53h-74c0 18-3 111 4 128 13 31 55 9 70 9v54l-61 7z"/></svg>