<svg xmlns="http://www.w3.org/2000/svg" width="3840" height="2160"><path fill="#1B4E8F" d="M2889 1532h11l59 70v-70h13v90h-11l-58-70v70h-13v-90zm-75 80c19 0 34-16 34-34 0-19-15-35-34-35s-34 16-34 35 15 34 34 34zm0-81c26 0 47 21 47 47s-22 46-47 46c-26 0-47-21-47-47s22-46 47-46zm-88 1h13v90h-13v-90zm-69 12h-33v-12h78v12h-33v79h-13v-79zm-78 8l-14 33h28l-14-33zm5-20l39 90h-13l-11-27h-38l-11 27h-13l38-90h9zm-82 25c0-10-6-14-18-14h-11v28h11c10 0 18-3 18-14zm-41-25h26c18 0 28 9 28 25 0 12-5 19-17 23 4 2 6 6 9 10l22 33h-15l-15-24c-7-11-11-17-21-17h-4v40h-13v-90zm-74 80c19 0 34-15 34-34s-15-35-34-35-34 16-34 35 15 34 34 34zm0-81c26 0 47 21 47 47s-22 46-47 46c-26 0-47-21-47-47s22-46 47-46zm-79 27c0-10-6-14-18-14h-14v28h14c10 0 18-3 18-14zm-44-26h28c19 0 29 10 29 26s-11 26-29 26h-15v39h-13v-90zm-52 25c0-10-6-14-18-14h-11v28h11c10 0 18-3 18-14zm-41-25h26c18 0 28 9 28 25 0 12-5 19-17 23 4 2 6 6 9 10l21 33h-15l-15-24c-7-11-11-17-21-17h-4v40h-13v-90zm-73 80c19 0 34-16 34-34 0-19-15-35-34-35s-34 16-34 35 15 34 34 34zm0-81c26 0 47 21 47 47s-22 46-47 46c-26 0-47-21-47-47s22-46 47-46zm-70 85c-10 6-21 8-32 8-27 0-48-20-48-47s23-46 49-46c12 0 22 3 30 7v14c-11-6-21-9-30-9-21 0-36 15-36 35 0 19 15 34 35 34 10 0 21-4 32-11v15zm-207-84h53v12h-41v27h40v12h-40v28h42v12h-55v-90zm-35 84c-11 5-22 8-32 8-27 0-49-19-49-47s23-46 50-46c10 0 20 2 30 7v14c-11-6-21-9-30-9-21 0-36 15-36 35 0 19 15 34 35 34 6 0 12-1 19-4v-17h-17v-12h30v38zm-139-65l-14 33h28l-14-33zm5-20l39 90h-13l-11-27h-38l-11 27h-13l38-90h9zm-70 84c-11 5-22 8-32 8-27 0-49-19-49-47s23-46 50-46c10 0 20 2 30 7v14c-11-6-21-9-30-9-21 0-36 15-36 35 0 19 15 34 35 34 6 0 12-1 19-4v-17h-17v-12h30v38zm-142-73h-33v-12h78v12h-33v79h-13v-79zm-70 13c0-10-6-14-18-14h-11v28h11c10 0 18-3 18-14zm-41-25h26c18 0 28 9 28 25 0 12-5 19-17 23 4 2 6 6 9 10l22 33h-15l-15-24c-7-11-11-17-21-17h-4v40h-13v-90zm-75 80c19 0 34-16 34-34 0-19-15-35-34-35s-34 16-34 35 15 34 34 34zm0-81c26 0 47 21 47 47s-22 46-47 46c-26 0-47-21-47-47s22-46 47-46zm-161 1h11l32 38 32-38h11v90h-12v-71l-31 36-31-36v71h-12v-90zm1822-995h53v12h-41v27h40v12h-40v28h42v12h-55v-90zm-64 39c12 0 18-5 18-14 0-10-6-14-18-14h-10v28h10zm-23-39h26c18 0 28 9 28 25 0 12-5 19-17 23 4 2 6 6 9 10l22 33h-15l-15-24c-7-11-11-17-21-17h-4v40h-13v-90zm-46 0h13v90h-13v-90zm-62 20l-14 33h28l-14-33zm5-20l39 90h-13l-11-27h-38l-11 27h-13l39-90h9zm-61 84c-10 6-21 8-32 8-27 0-48-20-48-47s23-46 49-46c12 0 22 3 30 7v14c-11-6-21-9-30-9-21 0-36 15-36 35 0 19 15 34 35 34 10 0 21-4 32-11v15zm-155-84h53v12h-41v27h40v12h-40v28h42v12h-55v-90zm-107 0h13v39h51v-39h13v90h-13v-39h-51v39h-13v-90zm-65 12h-33v-12h78v12h-33v79h-13v-79zm-85 68c19 0 34-16 34-34 0-19-15-35-34-35s-34 16-34 35 15 34 34 34zm0-81c26 0 47 21 47 47s-22 46-47 46c-26 0-47-21-47-47s22-46 47-46zm-93 41c12 0 18-4 18-14s-6-14-18-14h-14v28h14zm-26-40h28c19 0 29 10 29 26s-11 26-29 26h-15v39h-13v-90zm-66 45l-34-45h15l26 34 27-34h15l-36 46v45h-13v-45zm-128-45h13v39h51v-39h13v90h-13v-39h-51v39h-13v-90zm-158 0h11l59 70v-70h13v90h-11l-58-70v70h-13v-90zm-72 80c19 0 34-16 34-34 0-19-15-35-34-35s-34 16-34 35 15 34 34 34zm0-81c26 0 48 21 48 47s-22 46-48 46-47-21-47-47 22-46 47-46zm-85 1h13v90h-13v-90zm-67 12h-33v-12h78v12h-33v79h-13v-79zm-76 8l-14 33h28l-14-33zm5-20l39 90h-13l-12-27h-38l-11 27h-13l38-90h9zm-83 25c0-10-6-14-18-14h-11v28h11c10 0 18-3 18-14zm-41-25h26c18 0 28 9 28 25 0 12-5 19-17 23 4 2 6 6 9 10l22 33h-15l-15-24c-7-11-11-17-21-17h-4v40h-13v-90zm-70 80c19 0 34-16 34-34 0-19-15-35-34-35s-34 16-34 35 15 34 34 34zm0-81c26 0 47 21 47 47s-21 46-47 46-47-21-47-47 22-46 47-46zm-75 27c0-10-6-14-17-14h-14v28h14c10 0 17-3 17-14zm-44-26h28c19 0 30 10 30 26s-11 26-30 26h-15v39h-13v-90zm-49 25c0-10-6-14-18-14h-11v28h11c10 0 18-3 18-14zm-41-25h26c18 0 28 9 28 25 0 12-5 19-17 23 4 2 6 6 9 10l21 33h-15l-15-24c-7-11-11-17-21-17h-4v40h-13v-90zm-70 80c19 0 34-16 34-34 0-19-15-35-34-35s-34 16-34 35 15 34 34 34zm0-81c26 0 47 21 47 47s-22 46-47 46c-26 0-47-21-47-47s22-46 47-46zm-69 85c-10 6-21 8-32 8-27 0-49-20-49-47s23-46 49-46c12 0 22 3 30 7v14c-11-6-21-9-30-9-21 0-36 15-36 35 0 19 15 34 35 34 10 0 21-4 32-11v15zm1983 589h8c9 0 13-2 13-9s-4-9-14-9h-8v18zm20 5l12 25h-11l-11-23h-10v23h-10v-54h20c15 0 22 5 22 15 0 8-4 13-12 15zm-406 46h133c51 0 93-2 132-28 54-35 83-89 83-154 0-59-24-108-69-143-44-34-90-38-146-38h-133v362zm89-288h66c61 0 102 44 102 107s-42 108-102 108h-66V971zm-727-73h242v67h-153v82h153v67h-153v78h153v68h-242V898zm319 0h242v67h-153v82h154v67h-154v78h153v68h-242V898zm-393 331c-42 24-87 37-136 37-111 0-193-74-193-187 0-110 78-187 201-187 44 0 85 10 124 30v85c-40-26-79-39-118-39-70 0-115 41-115 112 0 67 41 111 108 111 43 0 86-16 129-46v85zm-588-150l-150-181h111l95 119 95-119h114l-155 181 155 181h-114l-95-119-95 119h-111l150-181zm1695 86c26 0 48 21 48 48 0 26-21 48-48 48-26 0-48-21-48-48 0-26 21-48 48-48zm0 7c-22 0-41 18-41 41 0 22 18 41 41 41 22 0 41-18 41-41 0-22-18-41-41-41z"/></svg>