<svg xmlns="http://www.w3.org/2000/svg" width="3840" height="2160"><path fill="#095" d="M964 1329h45l23 66 24-66h41v16h-9v61h11v16h-41v-16h9v-54l-26 70h-22l-25-69v53h8v16h-38v-16h10v-61h-10v-16zm193 79c12 0 23-8 23-30s-11-30-23-30-23 8-23 30 11 30 23 30zm0-79c28 0 48 17 48 49 0 31-20 49-48 49s-48-17-48-49c0-31 20-49 48-49zm91 18v23h6c9 0 14-4 14-12s-4-11-14-11h-6zm-23 0h-10v-16h47c19 0 28 10 28 25 0 10-6 22-24 24 9 1 13 4 17 10l10 15 5 2 3-1v17h-16c-8 0-11-2-14-9l-13-23c-3-5-5-5-11-5v21h7v16h-40v-16h10v-60zm110 0h-14l-1 12h-17l1-28h86l1 28h-17l-1-12h-14v60h11v16h-44v-16h11v-60zm127 45h-10v-16h39v16h-9v29c-12 3-23 5-35 5-30 0-49-17-49-46 0-36 24-51 54-51 11 0 21 2 31 5v26h-18v-11l-13-2c-19 0-29 11-29 30 0 20 11 31 26 31l13-2v-14zm95-15l-10-28-10 28h20zm-21-46h26l32 77h8v16h-43v-16h8l-5-14h-31l-5 14h8v16h-40v-16h8l33-77zm135 61h-10v-16h39v16h-9v29c-12 3-23 5-35 5-30 0-49-17-49-46 0-36 24-51 54-51 11 0 21 2 31 5v26h-18v-11l-13-2c-19 0-29 11-29 30 0 20 11 31 26 31l13-2v-14zm49-45h-10v-16h73l2 28h-17l-2-12h-23v22h24v16h-24v22h23l2-14h18l-3 30h-72v-16h9v-60zm178 47h17v27c-9 3-22 5-32 5-31 0-51-15-51-46 0-37 24-52 54-52 11 0 21 2 30 5v26h-18v-11l-13-2c-18 0-28 10-28 30 0 25 13 31 29 31l11-1 1-13zm77 14c12 0 23-8 23-30s-11-30-23-30-23 8-23 30 11 30 23 30zm0-79c28 0 48 17 48 49 0 31-20 49-48 49s-48-17-48-49c0-31 20-49 48-49zm91 18v23h6c9 0 14-4 14-12s-4-11-14-11h-6zm-23 0h-10v-16h47c19 0 28 10 28 25 0 10-6 22-24 24 9 1 13 4 17 9l10 15 5 2 3-1v17h-16c-8 0-11-2-14-9l-13-23c-3-5-5-5-11-5v21h7v16h-40v-16h10v-60zm118 24h8c9 0 13-2 13-13 0-8-6-11-13-11h-8v24zm-23-24h-10v-16h48c19 0 29 11 29 27 0 21-14 30-31 30h-13v20h12v16h-44v-16h9v-60zm123 61c12 0 23-8 23-30s-11-30-23-30-23 8-23 30 11 30 23 30zm0-79c28 0 48 17 48 49 0 31-20 49-48 49s-48-17-48-49c0-31 20-49 48-49zm91 18v23h6c9 0 14-4 14-12s-4-11-14-11h-6zm-23 0h-10v-16h47c19 0 28 10 28 25 0 10-6 22-24 24 9 1 13 4 17 9l10 15 5 2 3-1v17h-16c-8 0-11-2-14-9l-13-23c-3-5-5-5-11-5v21h7v16h-40v-16h10v-60zm145 30l-9-28-10 28h20zm-21-46h26l32 77h8v16h-43v-16h8l-5-14h-31l-5 14h8v16h-40v-16h8l33-77zm94 16h-14l-1 12h-17l1-28h86l1 28h-17l-1-12h-14v60h11v16h-44v-16h11v-60zm75 0h-10v-16h43v16h-10v60h10v16h-43v-16h10v-60zm91 61c12 0 23-8 23-30s-11-30-23-30-23 8-23 30 11 30 23 30zm0-79c28 0 48 17 48 49 0 31-20 49-48 49s-48-17-48-49c0-31 20-49 48-49zm57 2h32l41 56v-39h-10v-16h40v16h-9v77h-20l-44-59v43h10v16h-40v-16h9v-60h-10v-16z"/><path fill="#09C" d="M1467 1098h-5l-88 140h-155l160-242-157-239h164l85 132h5l85-132h155l-157 236 160 244h-163l-89-140zm1376 113c-19 19-44 27-94 27h-161c-50 0-76-9-95-27-28-27-52-80-52-213 0-132 24-185 52-213 19-19 45-27 95-27h161c50 0 76 9 94 27 24 24 36 66 37 163h-138c-2-60-8-69-12-73s-11-5-32-5h-61c-21 0-27 1-32 5-5 5-13 18-13 123 0 106 8 118 13 123 4 4 11 5 32 5h61c21 0 28-1 32-5s10-13 12-75h138c-1 98-12 141-37 165zm-488 27h-140V947h-7l-87 264c-7 21-13 27-31 27h-50c-18 0-25-8-31-27l-87-264h-7v291h-135V757h184c21 0 29 7 35 28l67 218h6l63-218c6-21 14-28 35-28h184v481z"/><path fill="#7BD" d="M1288 997l-160 242H960l160-242-157-239h168z"/></svg>